<?xml version="1.0" standalone="no"?>
<!DOCTYPE svg PUBLIC "-//W3C//DTD SVG 1.1//EN" "http://www.w3.org/Graphics/SVG/1.1/DTD/svg11.dtd">
<!--Generator: Xara Designer (www.xara.com), SVG filter version: 5.0.0.2-->
<svg stroke-width="0.501" stroke-linejoin="bevel" fill-rule="evenodd" xmlns:xlink="http://www.w3.org/1999/xlink" xmlns="http://www.w3.org/2000/svg" version="1.1" overflow="visible" width="225pt" height="218.25pt" viewBox="0 0 225 218.25">
 <defs>
  <marker id="DefaultArrow2" markerUnits="strokeWidth" viewBox="0 0 1 1" markerWidth="1" markerHeight="1" overflow="visible" orient="auto">
   <!-- REF_ARROW_STRAIGHT (-2) -->
   <g transform="scale(0.0092592592)">
    <!-- 1/108 -->
    <path d="M -9 54 L -9 -54 L 117 0 z"/>
   </g>
  </marker>
  <marker id="DefaultArrow3" markerUnits="strokeWidth" viewBox="0 0 1 1" markerWidth="1" markerHeight="1" overflow="visible" orient="auto">
   <!-- REF_ARROW_ANGLED -->
   <g transform="scale(0.0092592592)">
    <path d="M -27 54 L -9 0 L -27 -54 L 135 0 z"/>
   </g>
  </marker>
  <marker id="DefaultArrow4" markerUnits="strokeWidth" viewBox="0 0 1 1" markerWidth="1" markerHeight="1" overflow="visible" orient="auto">
   <!-- REF_ARROW_ROUNDED -->
   <g transform="scale(0.0092592592)">
    <path d="M -9,0 L -9,-45 C -9,-51.708 2.808,-56.580 9,-54 L 117,-9 C 120.916,-7.369 126.000,-4.242 126,0 C 126,4.242 120.916,7.369 117,9 L 9,54 C 2.808,56.580 -9,51.708 -9,45 z"/>
   </g>
  </marker>
  <marker id="DefaultArrow5" markerUnits="strokeWidth" viewBox="0 0 1 1" markerWidth="1" markerHeight="1" overflow="visible" orient="auto">
   <!-- REF_ARROW_SPOT -->
   <g transform="scale(0.0092592592)">
    <path d="M -54, 0 C -54,29.807 -29.807,54 0,54 C 29.807,54 54,29.807 54,0 C 54,-29.807 29.807,-54 0,-54 C -29.807,-54 -54,-29.807 -54,0 z"/>
   </g>
  </marker>
  <marker id="DefaultArrow6" markerUnits="strokeWidth" viewBox="0 0 1 1" markerWidth="1" markerHeight="1" overflow="visible" orient="auto">
   <!-- REF_ARROW_DIAMOND -->
   <g transform="scale(0.0092592592)">
    <path d="M -63,0 L 0,63 L 63,0 L 0,-63 z"/>
   </g>
  </marker>
  <marker id="DefaultArrow7" markerUnits="strokeWidth" viewBox="0 0 1 1" markerWidth="1" markerHeight="1" overflow="visible" orient="auto">
   <!-- REF_ARROW_FEATHER -->
   <g transform="scale(0.0092592592)">
    <path d="M 18,-54 L 108,-54 L 63,0 L 108,54 L 18, 54 L -36,0 z"/>
   </g>
  </marker>
  <marker id="DefaultArrow8" markerUnits="strokeWidth" viewBox="0 0 1 1" markerWidth="1" markerHeight="1" overflow="visible" orient="auto">
   <!-- REF_ARROW_FEATHER2 -->
   <g transform="scale(0.0092592592)">
    <path d="M -36,0 L 18,-54 L 54,-54 L 18,-18 L 27,-18 L 63,-54 L 99,-54 L 63,-18 L 72,-18 L 108,-54 L 144,-54 L 90,0 L 144,54 L 108,54 L 72,18 L 63,18 L 99,54 L 63,54 L 27,18 L 18,18 L 54,54 L 18,54 z"/>
   </g>
  </marker>
  <marker id="DefaultArrow9" markerUnits="strokeWidth" viewBox="0 0 1 1" markerWidth="1" markerHeight="1" overflow="visible" orient="auto">
   <!-- REF_ARROW_HOLLOWDIAMOND -->
   <g transform="scale(0.0092592592)">
    <path d="M 0,45 L -45,0 L 0, -45 L 45, 0 z M 0, 63 L-63, 0 L 0, -63 L 63, 0 z"/>
   </g>
  </marker>
  <filter id="StainedFilter">
   <feBlend mode="multiply" in2="BackgroundImage" in="SourceGraphic" result="blend"/>
   <feComposite in="blend" in2="SourceAlpha" operator="in" result="comp"/>
  </filter>
  <filter id="BleachFilter">
   <feBlend mode="screen" in2="BackgroundImage" in="SourceGraphic" result="blend"/>
   <feComposite in="blend" in2="SourceAlpha" operator="in" result="comp"/>
  </filter>
  <filter id="InvertTransparencyBitmapFilter">
   <feComponentTransfer>
    <feFuncR type="gamma" amplitude="1.055" exponent=".416666666" offset="-0.055"/>
    <feFuncG type="gamma" amplitude="1.055" exponent=".416666666" offset="-0.055"/>
    <feFuncB type="gamma" amplitude="1.055" exponent=".416666666" offset="-0.055"/>
   </feComponentTransfer>
   <feComponentTransfer>
    <feFuncR type="linear" slope="-1" intercept="1"/>
    <feFuncG type="linear" slope="-1" intercept="1"/>
    <feFuncB type="linear" slope="-1" intercept="1"/>
    <feFuncA type="linear" slope="1" intercept="0"/>
   </feComponentTransfer>
   <feComponentTransfer>
    <feFuncR type="gamma" amplitude="1" exponent="2.4" offset="0"/>
    <feFuncG type="gamma" amplitude="1" exponent="2.4" offset="0"/>
    <feFuncB type="gamma" amplitude="1" exponent="2.4" offset="0"/>
   </feComponentTransfer>
  </filter>
 </defs>
 <g id="Document" fill="none" stroke="black" font-family="Times New Roman" font-size="16" transform="scale(1 -1)">
  <g id="Spread" transform="translate(0 -218.25)">
   <g id="Page background">
    <path d="M 0,218.249 L 0,0 L 224.999,0 L 224.999,218.249 L 0,218.249 Z" stroke-linejoin="bevel" stroke="none" stroke-width="0" marker-start="none" marker-end="none" stroke-miterlimit="79.8403193612775"/>
   </g>
   <g id="MouseOff">
    <g id="Group" stroke-linecap="round" stroke="none">
     <g id="Group_1">
      <g id="Group_2">
       <path d="M 56.376,184.628 C 95.424,215.855 152.459,209.512 183.692,170.477 C 214.935,131.444 208.59,74.417 169.55,43.19 C 130.5,11.963 73.459,18.299 42.224,57.334 C 10.989,96.374 17.326,153.393 56.376,184.628 Z" stroke-width="0.463" stroke-linejoin="miter" marker-start="none" marker-end="none" stroke-miterlimit="79.8403193612775"/>
       <g id="Group_3" fill-rule="nonzero" stroke-linejoin="round" stroke-width="0.159" fill="#02314e" stroke-miterlimit="79.8403193612775">
        <path d="M 15.818,81.913 C 15.78,83.292 16.046,84.49 16.637,85.49 C 17.22,86.482 18.114,87.233 19.313,87.719 C 21.085,88.438 22.76,88.256 24.33,87.188 C 25.899,86.111 27.248,84.186 28.377,81.405 L 33,69.982 L 12.711,61.759 L 8.322,72.606 C 7.223,75.311 6.881,77.547 7.292,79.321 C 7.693,81.094 8.7,82.307 10.301,82.959 C 11.247,83.338 12.194,83.444 13.143,83.278 C 14.09,83.11 14.984,82.655 15.818,81.913 Z M 14.771,70.43 L 17.788,71.651 L 16.493,74.834 C 15.893,76.327 15.083,76.872 14.09,76.456 C 13.082,76.046 12.884,75.107 13.476,73.614 L 14.771,70.43 Z M 23.829,78.889 C 23.215,80.397 22.382,80.935 21.321,80.503 C 20.26,80.071 20.032,79.109 20.638,77.593 L 22.313,73.485 L 25.49,74.774 L 23.829,78.889 Z" marker-start="none" marker-end="none"/>
        <path d="M 3.29,88.582 L 1.895,95.829 L 23.397,99.944 L 24.792,92.69 L 3.29,88.582 Z" marker-start="none" marker-end="none"/>
        <path d="M 22.89,114.944 C 22.882,112.586 22.389,110.465 21.404,108.599 C 20.411,106.728 19.047,105.257 17.303,104.203 C 15.56,103.15 13.59,102.627 11.398,102.635 C 9.217,102.642 7.254,103.18 5.509,104.241 C 3.774,105.318 2.424,106.789 1.448,108.675 C 0.477,110.548 0,112.669 0,115.019 C 0.007,117.377 0.508,119.484 1.493,121.364 C 2.485,123.235 3.85,124.698 5.586,125.76 C 7.337,126.812 9.3,127.336 11.49,127.328 C 13.687,127.321 15.643,126.783 17.379,125.713 C 19.122,124.645 20.471,123.167 21.442,121.295 C 22.42,119.408 22.904,117.301 22.89,114.944 Z M 16.925,114.958 C 16.925,115.884 16.698,116.702 16.257,117.445 C 15.818,118.187 15.173,118.778 14.355,119.226 C 13.536,119.658 12.574,119.885 11.468,119.885 C 10.361,119.893 9.399,119.68 8.572,119.248 C 7.738,118.809 7.101,118.218 6.662,117.483 C 6.207,116.741 5.979,115.914 5.972,114.996 C 5.972,114.087 6.192,113.253 6.631,112.511 C 7.086,111.776 7.715,111.176 8.534,110.744 C 9.361,110.297 10.33,110.078 11.422,110.07 C 12.529,110.063 13.491,110.283 14.325,110.722 C 15.151,111.146 15.787,111.745 16.242,112.48 C 16.689,113.215 16.916,114.042 16.925,114.958 Z" marker-start="none" marker-end="none"/>
        <path d="M 5.176,146.86 L 7.791,153.765 L 22.913,148.043 L 26.407,157.289 L 31.765,155.266 L 25.656,139.121 L 5.176,146.86 Z" marker-start="none" marker-end="none"/>
        <path d="M 39.451,173.312 L 34.538,166.596 L 36.753,163.156 L 32.318,157.107 L 20.298,177.746 L 24.579,183.597 L 47.908,178.405 L 43.399,172.244 L 39.451,173.312 Z M 33.955,174.805 L 28.263,176.337 L 31.453,171.372 L 33.955,174.805 Z" marker-start="none" marker-end="none"/>
        <path d="M 57.966,200.113 C 59.293,200.484 60.513,200.522 61.627,200.203 C 62.742,199.893 63.682,199.211 64.455,198.172 C 65.591,196.634 65.842,194.959 65.197,193.178 C 64.545,191.389 63.014,189.601 60.597,187.818 L 50.69,180.497 L 37.677,198.096 L 47.076,205.04 C 49.432,206.782 51.517,207.669 53.327,207.715 C 55.146,207.767 56.572,207.093 57.603,205.706 C 58.209,204.88 58.543,203.994 58.627,203.038 C 58.687,202.076 58.483,201.105 57.966,200.113 Z M 46.582,198.256 L 48.508,195.641 L 51.281,197.687 C 52.57,198.642 52.896,199.551 52.252,200.43 C 51.6,201.296 50.638,201.257 49.349,200.302 L 46.582,198.256 Z M 57.026,191.593 C 58.339,192.564 58.649,193.511 57.966,194.429 C 57.284,195.353 56.291,195.33 54.98,194.359 L 51.418,191.722 L 53.457,188.956 L 57.026,191.593 Z" marker-start="none" marker-end="none"/>
        <path d="M 168.14,185.106 C 166.7,186.212 165.427,187.447 164.32,188.819 C 163.198,190.199 162.418,191.488 161.962,192.708 L 167.124,195.519 C 167.587,194.406 168.215,193.307 169.011,192.23 C 169.816,191.162 170.679,190.251 171.619,189.516 C 172.438,188.895 173.074,188.531 173.544,188.418 C 174.007,188.319 174.363,188.41 174.605,188.722 C 174.886,189.093 174.871,189.54 174.56,190.078 C 174.241,190.593 173.65,191.382 172.771,192.389 C 171.649,193.7 170.762,194.867 170.118,195.868 C 169.481,196.884 169.117,198.006 169.011,199.249 C 168.921,200.491 169.353,201.743 170.322,203 C 171.165,204.084 172.24,204.842 173.537,205.267 C 174.825,205.683 176.287,205.683 177.886,205.26 C 179.494,204.835 181.169,203.963 182.905,202.614 C 184.094,201.705 185.171,200.682 186.111,199.537 C 187.065,198.4 187.786,197.248 188.286,196.073 L 183.26,193.192 C 182.222,195.36 180.933,197.028 179.418,198.202 C 177.917,199.355 176.886,199.574 176.326,198.847 C 176.06,198.506 176.083,198.074 176.393,197.559 C 176.705,197.028 177.295,196.286 178.167,195.292 C 179.296,194.033 180.198,192.889 180.858,191.866 C 181.51,190.851 181.897,189.714 182.003,188.47 C 182.116,187.228 181.684,185.977 180.714,184.726 C 179.88,183.643 178.819,182.885 177.524,182.468 C 176.227,182.066 174.779,182.066 173.164,182.475 C 171.55,182.892 169.876,183.764 168.14,185.106 Z" marker-start="none" marker-end="none"/>
        <path d="M 184.769,168.28 C 183.366,170.174 182.502,172.159 182.176,174.259 C 181.85,176.351 182.078,178.338 182.837,180.225 C 183.609,182.111 184.868,183.71 186.626,185.007 C 188.392,186.311 190.287,187.053 192.318,187.236 C 194.341,187.418 196.32,187.046 198.222,186.114 C 200.117,185.189 201.777,183.779 203.18,181.884 C 204.574,179.989 205.438,177.996 205.771,175.905 C 206.097,173.812 205.878,171.826 205.112,169.94 C 204.338,168.053 203.081,166.452 201.323,165.157 C 199.556,163.853 197.662,163.111 195.63,162.929 C 193.599,162.747 191.629,163.118 189.727,164.05 C 187.823,164.975 186.172,166.392 184.769,168.28 Z M 189.567,171.835 C 190.12,171.091 190.786,170.56 191.591,170.234 C 192.394,169.901 193.25,169.811 194.175,169.947 C 195.092,170.083 196.002,170.477 196.889,171.136 C 197.783,171.788 198.427,172.539 198.829,173.38 C 199.23,174.23 199.389,175.078 199.314,175.934 C 199.23,176.798 198.919,177.602 198.382,178.338 C 197.828,179.073 197.154,179.604 196.358,179.928 C 195.555,180.263 194.69,180.353 193.774,180.217 C 192.848,180.081 191.946,179.687 191.06,179.035 C 190.158,178.374 189.513,177.625 189.12,176.784 C 188.71,175.934 188.558,175.086 188.634,174.23 C 188.71,173.358 189.021,172.562 189.567,171.835 Z" marker-start="none" marker-end="none"/>
        <path d="M 197.078,146.17 C 195.888,149.316 195.82,152.082 196.85,154.477 C 197.889,156.873 199.942,158.645 203.005,159.806 L 214.275,164.05 L 216.876,157.138 L 205.809,152.97 C 204.309,152.408 203.315,151.726 202.831,150.93 C 202.353,150.141 202.308,149.233 202.687,148.225 C 203.072,147.209 203.71,146.557 204.59,146.276 C 205.476,146.004 206.658,146.141 208.167,146.708 L 219.232,150.877 L 221.794,144.086 L 210.515,139.849 C 207.454,138.689 204.741,138.674 202.391,139.789 C 200.026,140.902 198.26,143.04 197.078,146.17 Z" marker-start="none" marker-end="none"/>
        <path d="M 208.5,124.159 L 208.311,126.146 L 202.831,125.638 L 202.148,132.982 L 223.946,135.013 L 224.924,124.523 C 225.114,122.515 224.946,120.727 224.416,119.174 C 223.894,117.611 223.044,116.376 221.87,115.451 C 220.703,114.519 219.285,113.982 217.634,113.829 C 216.071,113.678 214.677,113.912 213.456,114.504 C 212.221,115.102 211.205,116.035 210.402,117.301 L 204.096,112.093 L 203.369,119.938 L 208.5,124.159 Z M 216.943,121.242 C 217.746,121.317 218.345,121.621 218.747,122.16 C 219.149,122.69 219.3,123.462 219.217,124.471 L 218.967,127.138 L 213.858,126.661 L 214.108,123.993 C 214.2,122.992 214.488,122.266 214.98,121.811 C 215.473,121.355 216.132,121.166 216.943,121.242 Z" marker-start="none" marker-end="none"/>
        <path d="M 201.739,98.58 C 202.072,100.861 202.861,102.847 204.082,104.545 C 205.325,106.242 206.87,107.477 208.743,108.259 C 210.623,109.047 212.653,109.289 214.836,108.963 C 217.027,108.646 218.906,107.827 220.476,106.53 C 222.044,105.235 223.174,103.605 223.856,101.626 C 224.546,99.648 224.719,97.518 224.379,95.229 C 224.067,93.131 223.417,91.303 222.439,89.772 C 221.452,88.227 220.179,87.022 218.619,86.158 L 215.185,91.379 C 217.065,92.463 218.149,93.911 218.421,95.73 C 218.648,97.253 218.331,98.557 217.49,99.625 C 216.647,100.702 215.405,101.361 213.76,101.604 C 212.1,101.846 210.721,101.574 209.606,100.792 C 208.493,100.012 207.818,98.853 207.59,97.329 C 207.317,95.51 207.931,93.812 209.431,92.221 L 204.642,88.227 C 203.391,89.5 202.519,91.015 202.013,92.774 C 201.519,94.532 201.428,96.465 201.739,98.58 Z" marker-start="none" marker-end="none"/>
        <path d="M 198.017,67.823 L 192.857,69.922 L 199.715,86.786 L 219.997,78.547 L 213.298,62.063 L 208.143,64.163 L 212.1,73.924 L 209.728,74.886 L 206.249,66.315 L 201.323,68.307 L 204.801,76.888 L 202.133,77.971 L 198.017,67.823 Z" marker-start="none" marker-end="none"/>
        <path d="M 178.03,51.618 C 179.622,53.293 181.403,54.476 183.382,55.166 C 185.367,55.841 187.353,55.969 189.331,55.537 C 191.325,55.105 193.129,54.134 194.728,52.612 C 196.335,51.095 197.404,49.36 197.95,47.396 C 198.494,45.433 198.472,43.447 197.912,41.432 C 197.327,39.422 196.252,37.574 194.667,35.899 C 193.205,34.345 191.629,33.231 189.938,32.533 C 188.248,31.836 186.512,31.586 184.739,31.768 L 184.913,38.005 C 187.088,37.823 188.809,38.392 190.075,39.726 C 191.128,40.841 191.62,42.084 191.544,43.447 C 191.469,44.805 190.824,46.055 189.619,47.207 C 188.4,48.36 187.119,48.927 185.754,48.927 C 184.382,48.92 183.17,48.367 182.116,47.245 C 180.858,45.911 180.38,44.16 180.692,42.008 L 174.468,41.484 C 174.18,43.243 174.34,44.978 174.938,46.707 C 175.545,48.434 176.575,50.071 178.03,51.618 Z" marker-start="none" marker-end="none"/>
        <path d="M 159.931,37.043 C 161.925,38.302 163.979,39.013 166.086,39.181 C 168.201,39.355 170.171,38.983 171.997,38.073 C 173.825,37.171 175.318,35.786 176.485,33.936 C 177.652,32.087 178.25,30.146 178.273,28.1 C 178.296,26.061 177.781,24.127 176.712,22.301 C 175.644,20.475 174.113,18.929 172.119,17.678 C 170.133,16.419 168.071,15.707 165.973,15.533 C 163.857,15.374 161.887,15.745 160.06,16.647 C 158.234,17.557 156.734,18.929 155.573,20.786 C 154.406,22.634 153.808,24.583 153.784,26.63 C 153.754,28.66 154.278,30.601 155.338,32.427 C 156.408,34.254 157.946,35.786 159.931,37.043 Z M 163.107,31.988 C 162.335,31.503 161.75,30.873 161.364,30.1 C 160.986,29.328 160.818,28.471 160.887,27.538 C 160.954,26.614 161.288,25.681 161.872,24.75 C 162.456,23.81 163.16,23.113 163.963,22.65 C 164.782,22.18 165.616,21.953 166.479,21.975 C 167.345,21.991 168.17,22.241 168.936,22.726 C 169.717,23.21 170.3,23.848 170.686,24.62 C 171.073,25.393 171.239,26.243 171.165,27.174 C 171.104,28.107 170.77,29.04 170.178,29.971 C 169.602,30.911 168.89,31.608 168.087,32.071 C 167.275,32.533 166.443,32.761 165.578,32.746 C 164.707,32.73 163.888,32.481 163.107,31.988 Z" marker-start="none" marker-end="none"/>
        <path d="M 128.038,24.37 L 130.448,14.692 L 133.184,23.597 L 136.344,24.348 L 142.764,18.027 L 140.506,27.379 L 147.031,28.955 L 152.185,7.688 L 146.289,6.263 L 136.609,15.927 L 132.6,2.959 L 126.704,1.534 L 121.512,22.794 L 128.038,24.37 Z" marker-start="none" marker-end="none"/>
        <path d="M 106.133,1.678 C 104.109,1.784 102.366,2.201 100.904,2.951 C 99.441,3.686 98.334,4.709 97.583,5.99 C 96.834,7.286 96.5,8.756 96.583,10.417 C 96.675,12.084 97.145,13.532 98.015,14.73 C 98.894,15.942 100.108,16.837 101.639,17.435 C 103.162,18.027 104.936,18.261 106.96,18.171 L 110.121,18.011 L 110.385,23.378 L 117.753,23.006 L 116.669,1.147 L 106.133,1.678 Z M 107.142,12.455 C 106.148,12.509 105.383,12.327 104.86,11.911 C 104.338,11.486 104.057,10.863 104.019,10.045 C 103.973,9.242 104.201,8.598 104.678,8.128 C 105.156,7.65 105.891,7.385 106.883,7.34 L 109.575,7.203 L 109.831,12.327 L 107.142,12.455 Z" marker-start="none" marker-end="none"/>
        <path d="M 79.127,25.667 L 87.049,23.104 L 89.618,26.281 L 96.765,23.961 L 80.917,6.082 L 74.02,8.318 L 71.648,32.087 L 78.9,29.744 L 79.127,25.667 Z M 79.439,19.974 L 79.765,14.085 L 83.478,18.67 L 79.439,19.974 Z" marker-start="none" marker-end="none"/>
        <path d="M 40.398,27.341 L 52.866,45.342 L 57.853,41.886 L 59.027,28.979 L 64.698,37.149 L 70.594,33.056 L 58.148,15.063 L 53.154,18.519 L 51.971,31.419 L 46.318,23.257 L 40.398,27.341 Z" marker-start="none" marker-end="none"/>
        <path d="M 35.752,52.581 L 41.762,57.773 L 46.582,52.194 L 40.512,46.934 L 35.418,31.631 L 30.333,37.52 L 33.137,45.85 L 24.466,44.312 L 19.805,49.709 L 35.752,52.581 Z" marker-start="none" marker-end="none"/>
       </g>
      </g>
      <path d="M 46.582,60.819 C 17.28,97.451 23.223,150.96 59.854,180.263 C 67.79,186.599 76.505,191.29 85.594,194.383 L 85.594,207.367 L 81.675,207.367 C 78.385,207.374 72.08,212.71 69.456,218.25 L 96.477,218.25 L 96.477,197.278 L 96.485,197.285 L 96.485,186.356 L 96.477,186.356 C 85.866,183.961 75.611,179.17 66.539,171.918 C 34.509,146.299 29.317,99.528 54.942,67.489 C 80.561,35.474 127.356,30.282 159.385,55.893 C 191.409,81.511 196.608,128.291 170.99,160.314 C 160.06,173.964 145.288,182.741 129.447,186.334 L 129.447,197.255 L 129.455,197.255 L 129.455,218.25 L 156.475,218.25 C 153.853,212.71 147.546,207.374 144.257,207.367 L 140.339,207.367 L 140.339,194.359 C 155.18,189.32 168.815,180.133 179.327,166.983 C 208.644,130.36 202.701,76.849 166.056,47.541 C 129.425,18.238 75.9,24.188 46.582,60.819 Z M 58.33,70.126 C 34.16,100.277 39.011,144.367 69.177,168.53 C 99.328,192.693 143.424,187.842 167.594,157.683 C 191.764,127.532 186.907,83.444 156.756,59.281 C 126.598,35.118 82.5,39.977 58.33,70.126 Z M 143.067,70.468 C 143.067,71.763 142.014,72.802 140.733,72.802 L 125.377,72.802 C 138.725,76.683 148.495,89.144 148.495,103.915 C 148.495,120.332 136.427,133.884 120.784,135.991 L 120.466,135.469 L 124.21,142.411 C 124.582,143.085 124.323,143.935 123.642,144.306 L 121.83,145.284 L 129.781,159.684 C 129.902,159.911 129.826,160.192 129.598,160.314 L 119.495,165.87 C 119.275,165.998 118.987,165.922 118.859,165.688 L 110.855,151.18 L 108.475,152.462 C 107.794,152.826 106.944,152.574 106.573,151.893 L 88.791,118.922 C 88.427,118.241 88.686,117.384 89.36,117.02 L 104.527,108.865 C 105.201,108.509 106.058,108.759 106.429,109.44 L 116.532,128.177 C 129.735,128.018 140.392,117.294 140.392,104.068 C 140.392,90.75 129.576,79.957 116.244,79.957 C 106.557,79.957 98.213,85.65 94.355,93.866 L 104.905,89.257 C 105.928,88.825 107.119,89.288 107.566,90.311 C 108.005,91.326 107.535,92.517 106.519,92.971 L 75.187,106.629 C 74.164,107.068 72.973,106.607 72.534,105.583 C 72.087,104.567 72.55,103.378 73.573,102.93 L 84.456,98.186 L 84.456,72.802 L 76.551,72.802 C 75.262,72.802 74.216,71.763 74.216,70.468 C 74.216,69.179 75.262,68.134 76.551,68.134 L 140.733,68.134 C 142.014,68.134 143.067,69.179 143.067,70.468 Z M 100.358,108.766 C 100.722,109.471 100.448,110.328 99.76,110.692 L 93.392,114.072 C 92.703,114.443 91.831,114.178 91.46,113.488 C 91.096,112.791 91.361,111.934 92.058,111.563 L 98.424,108.19 C 99.115,107.812 99.978,108.084 100.358,108.766 Z M 131.934,161.836 C 132.319,162.535 132.062,163.398 131.379,163.785 L 121.346,169.317 C 120.647,169.697 119.783,169.447 119.39,168.757 C 119.01,168.06 119.268,167.196 119.958,166.801 L 129.985,161.276 C 130.675,160.882 131.554,161.139 131.934,161.836 Z" fill="#03bdf9" stroke-linejoin="miter" stroke-width="0.303" marker-start="none" marker-end="none" stroke-miterlimit="79.8403193612775"/>
     </g>
     <path d="M 56.376,184.628 C 95.424,215.855 152.459,209.512 183.692,170.477 C 214.935,131.444 208.59,74.417 169.55,43.19 C 130.5,11.963 73.459,18.299 42.224,57.334 C 10.989,96.374 17.326,153.393 56.376,184.628 Z" stroke-width="0.463" stroke-linejoin="miter" marker-start="none" marker-end="none" stroke-miterlimit="79.8403193612775"/>
     <g id="Group_4" fill="#000000" fill-rule="nonzero" stroke-linejoin="round" stroke-width="0.159" stroke-miterlimit="79.8403193612775">
      <path d="M 15.818,81.913 C 15.78,83.292 16.046,84.49 16.637,85.49 C 17.22,86.482 18.114,87.233 19.313,87.719 C 21.085,88.438 22.76,88.256 24.33,87.188 C 25.899,86.111 27.248,84.186 28.377,81.405 L 33,69.982 L 12.711,61.759 L 8.322,72.606 C 7.223,75.311 6.881,77.547 7.292,79.321 C 7.693,81.094 8.7,82.307 10.301,82.959 C 11.247,83.338 12.194,83.444 13.143,83.278 C 14.09,83.11 14.984,82.655 15.818,81.913 Z M 14.771,70.43 L 17.788,71.651 L 16.493,74.834 C 15.893,76.327 15.083,76.872 14.09,76.456 C 13.082,76.046 12.884,75.107 13.476,73.614 L 14.771,70.43 Z M 23.829,78.889 C 23.215,80.397 22.382,80.935 21.321,80.503 C 20.26,80.071 20.032,79.109 20.638,77.593 L 22.313,73.485 L 25.49,74.774 L 23.829,78.889 Z" marker-start="none" marker-end="none"/>
      <path d="M 3.29,88.582 L 1.895,95.829 L 23.397,99.944 L 24.792,92.69 L 3.29,88.582 Z" marker-start="none" marker-end="none"/>
      <path d="M 22.89,114.944 C 22.882,112.586 22.389,110.465 21.404,108.599 C 20.411,106.728 19.047,105.257 17.303,104.203 C 15.56,103.15 13.59,102.627 11.398,102.635 C 9.217,102.642 7.254,103.18 5.509,104.241 C 3.774,105.318 2.424,106.789 1.448,108.675 C 0.477,110.548 0,112.669 0,115.019 C 0.007,117.377 0.508,119.484 1.493,121.364 C 2.485,123.235 3.85,124.698 5.586,125.76 C 7.337,126.812 9.3,127.336 11.49,127.328 C 13.687,127.321 15.643,126.783 17.379,125.713 C 19.122,124.645 20.471,123.167 21.442,121.295 C 22.42,119.408 22.904,117.301 22.89,114.944 Z M 16.925,114.958 C 16.925,115.884 16.698,116.702 16.257,117.445 C 15.818,118.187 15.173,118.778 14.355,119.226 C 13.536,119.658 12.574,119.885 11.468,119.885 C 10.361,119.893 9.399,119.68 8.572,119.248 C 7.738,118.809 7.101,118.218 6.662,117.483 C 6.207,116.741 5.979,115.914 5.972,114.996 C 5.972,114.087 6.192,113.253 6.631,112.511 C 7.086,111.776 7.715,111.176 8.534,110.744 C 9.361,110.297 10.33,110.078 11.422,110.07 C 12.529,110.063 13.491,110.283 14.325,110.722 C 15.151,111.146 15.787,111.745 16.242,112.48 C 16.689,113.215 16.916,114.042 16.925,114.958 Z" marker-start="none" marker-end="none"/>
      <path d="M 5.176,146.86 L 7.791,153.765 L 22.913,148.043 L 26.407,157.289 L 31.765,155.266 L 25.656,139.121 L 5.176,146.86 Z" marker-start="none" marker-end="none"/>
      <path d="M 39.451,173.312 L 34.538,166.596 L 36.753,163.156 L 32.318,157.107 L 20.298,177.746 L 24.579,183.597 L 47.908,178.405 L 43.399,172.244 L 39.451,173.312 Z M 33.955,174.805 L 28.263,176.337 L 31.453,171.372 L 33.955,174.805 Z" marker-start="none" marker-end="none"/>
      <path d="M 57.966,200.113 C 59.293,200.484 60.513,200.522 61.627,200.203 C 62.742,199.893 63.682,199.211 64.455,198.172 C 65.591,196.634 65.842,194.959 65.197,193.178 C 64.545,191.389 63.014,189.601 60.597,187.818 L 50.69,180.497 L 37.677,198.096 L 47.076,205.04 C 49.432,206.782 51.517,207.669 53.327,207.715 C 55.146,207.767 56.572,207.093 57.603,205.706 C 58.209,204.88 58.543,203.994 58.627,203.038 C 58.687,202.076 58.483,201.105 57.966,200.113 Z M 46.582,198.256 L 48.508,195.641 L 51.281,197.687 C 52.57,198.642 52.896,199.551 52.252,200.43 C 51.6,201.296 50.638,201.257 49.349,200.302 L 46.582,198.256 Z M 57.026,191.593 C 58.339,192.564 58.649,193.511 57.966,194.429 C 57.284,195.353 56.291,195.33 54.98,194.359 L 51.418,191.722 L 53.457,188.956 L 57.026,191.593 Z" marker-start="none" marker-end="none"/>
      <path d="M 168.14,185.106 C 166.7,186.212 165.427,187.447 164.32,188.819 C 163.198,190.199 162.418,191.488 161.962,192.708 L 167.124,195.519 C 167.587,194.406 168.215,193.307 169.011,192.23 C 169.816,191.162 170.679,190.251 171.619,189.516 C 172.438,188.895 173.074,188.531 173.544,188.418 C 174.007,188.319 174.363,188.41 174.605,188.722 C 174.886,189.093 174.871,189.54 174.56,190.078 C 174.241,190.593 173.65,191.382 172.771,192.389 C 171.649,193.7 170.762,194.867 170.118,195.868 C 169.481,196.884 169.117,198.006 169.011,199.249 C 168.921,200.491 169.353,201.743 170.322,203 C 171.165,204.084 172.24,204.842 173.537,205.267 C 174.825,205.683 176.287,205.683 177.886,205.26 C 179.494,204.835 181.169,203.963 182.905,202.614 C 184.094,201.705 185.171,200.682 186.111,199.537 C 187.065,198.4 187.786,197.248 188.286,196.073 L 183.26,193.192 C 182.222,195.36 180.933,197.028 179.418,198.202 C 177.917,199.355 176.886,199.574 176.326,198.847 C 176.06,198.506 176.083,198.074 176.393,197.559 C 176.705,197.028 177.295,196.286 178.167,195.292 C 179.296,194.033 180.198,192.889 180.858,191.866 C 181.51,190.851 181.897,189.714 182.003,188.47 C 182.116,187.228 181.684,185.977 180.714,184.726 C 179.88,183.643 178.819,182.885 177.524,182.468 C 176.227,182.066 174.779,182.066 173.164,182.475 C 171.55,182.892 169.876,183.764 168.14,185.106 Z" marker-start="none" marker-end="none"/>
      <path d="M 184.769,168.28 C 183.366,170.174 182.502,172.159 182.176,174.259 C 181.85,176.351 182.078,178.338 182.837,180.225 C 183.609,182.111 184.868,183.71 186.626,185.007 C 188.392,186.311 190.287,187.053 192.318,187.236 C 194.341,187.418 196.32,187.046 198.222,186.114 C 200.117,185.189 201.777,183.779 203.18,181.884 C 204.574,179.989 205.438,177.996 205.771,175.905 C 206.097,173.812 205.878,171.826 205.112,169.94 C 204.338,168.053 203.081,166.452 201.323,165.157 C 199.556,163.853 197.662,163.111 195.63,162.929 C 193.599,162.747 191.629,163.118 189.727,164.05 C 187.823,164.975 186.172,166.392 184.769,168.28 Z M 189.567,171.835 C 190.12,171.091 190.786,170.56 191.591,170.234 C 192.394,169.901 193.25,169.811 194.175,169.947 C 195.092,170.083 196.002,170.477 196.889,171.136 C 197.783,171.788 198.427,172.539 198.829,173.38 C 199.23,174.23 199.389,175.078 199.314,175.934 C 199.23,176.798 198.919,177.602 198.382,178.338 C 197.828,179.073 197.154,179.604 196.358,179.928 C 195.555,180.263 194.69,180.353 193.774,180.217 C 192.848,180.081 191.946,179.687 191.06,179.035 C 190.158,178.374 189.513,177.625 189.12,176.784 C 188.71,175.934 188.558,175.086 188.634,174.23 C 188.71,173.358 189.021,172.562 189.567,171.835 Z" marker-start="none" marker-end="none"/>
      <path d="M 197.078,146.17 C 195.888,149.316 195.82,152.082 196.85,154.477 C 197.889,156.873 199.942,158.645 203.005,159.806 L 214.275,164.05 L 216.876,157.138 L 205.809,152.97 C 204.309,152.408 203.315,151.726 202.831,150.93 C 202.353,150.141 202.308,149.233 202.687,148.225 C 203.072,147.209 203.71,146.557 204.59,146.276 C 205.476,146.004 206.658,146.141 208.167,146.708 L 219.232,150.877 L 221.794,144.086 L 210.515,139.849 C 207.454,138.689 204.741,138.674 202.391,139.789 C 200.026,140.902 198.26,143.04 197.078,146.17 Z" marker-start="none" marker-end="none"/>
      <path d="M 208.5,124.159 L 208.311,126.146 L 202.831,125.638 L 202.148,132.982 L 223.946,135.013 L 224.924,124.523 C 225.114,122.515 224.946,120.727 224.416,119.174 C 223.894,117.611 223.044,116.376 221.87,115.451 C 220.703,114.519 219.285,113.982 217.634,113.829 C 216.071,113.678 214.677,113.912 213.456,114.504 C 212.221,115.102 211.205,116.035 210.402,117.301 L 204.096,112.093 L 203.369,119.938 L 208.5,124.159 Z M 216.943,121.242 C 217.746,121.317 218.345,121.621 218.747,122.16 C 219.149,122.69 219.3,123.462 219.217,124.471 L 218.967,127.138 L 213.858,126.661 L 214.108,123.993 C 214.2,122.992 214.488,122.266 214.98,121.811 C 215.473,121.355 216.132,121.166 216.943,121.242 Z" marker-start="none" marker-end="none"/>
      <path d="M 201.739,98.58 C 202.072,100.861 202.861,102.847 204.082,104.545 C 205.325,106.242 206.87,107.477 208.743,108.259 C 210.623,109.047 212.653,109.289 214.836,108.963 C 217.027,108.646 218.906,107.827 220.476,106.53 C 222.044,105.235 223.174,103.605 223.856,101.626 C 224.546,99.648 224.719,97.518 224.379,95.229 C 224.067,93.131 223.417,91.303 222.439,89.772 C 221.452,88.227 220.179,87.022 218.619,86.158 L 215.185,91.379 C 217.065,92.463 218.149,93.911 218.421,95.73 C 218.648,97.253 218.331,98.557 217.49,99.625 C 216.647,100.702 215.405,101.361 213.76,101.604 C 212.1,101.846 210.721,101.574 209.606,100.792 C 208.493,100.012 207.818,98.853 207.59,97.329 C 207.317,95.51 207.931,93.812 209.431,92.221 L 204.642,88.227 C 203.391,89.5 202.519,91.015 202.013,92.774 C 201.519,94.532 201.428,96.465 201.739,98.58 Z" marker-start="none" marker-end="none"/>
      <path d="M 198.017,67.823 L 192.857,69.922 L 199.715,86.786 L 219.997,78.547 L 213.298,62.063 L 208.143,64.163 L 212.1,73.924 L 209.728,74.886 L 206.249,66.315 L 201.323,68.307 L 204.801,76.888 L 202.133,77.971 L 198.017,67.823 Z" marker-start="none" marker-end="none"/>
      <path d="M 178.03,51.618 C 179.622,53.293 181.403,54.476 183.382,55.166 C 185.367,55.841 187.353,55.969 189.331,55.537 C 191.325,55.105 193.129,54.134 194.728,52.612 C 196.335,51.095 197.404,49.36 197.95,47.396 C 198.494,45.433 198.472,43.447 197.912,41.432 C 197.327,39.422 196.252,37.574 194.667,35.899 C 193.205,34.345 191.629,33.231 189.938,32.533 C 188.248,31.836 186.512,31.586 184.739,31.768 L 184.913,38.005 C 187.088,37.823 188.809,38.392 190.075,39.726 C 191.128,40.841 191.62,42.084 191.544,43.447 C 191.469,44.805 190.824,46.055 189.619,47.207 C 188.4,48.36 187.119,48.927 185.754,48.927 C 184.382,48.92 183.17,48.367 182.116,47.245 C 180.858,45.911 180.38,44.16 180.692,42.008 L 174.468,41.484 C 174.18,43.243 174.34,44.978 174.938,46.707 C 175.545,48.434 176.575,50.071 178.03,51.618 Z" marker-start="none" marker-end="none"/>
      <path d="M 159.931,37.043 C 161.925,38.302 163.979,39.013 166.086,39.181 C 168.201,39.355 170.171,38.983 171.997,38.073 C 173.825,37.171 175.318,35.786 176.485,33.936 C 177.652,32.087 178.25,30.146 178.273,28.1 C 178.296,26.061 177.781,24.127 176.712,22.301 C 175.644,20.475 174.113,18.929 172.119,17.678 C 170.133,16.419 168.071,15.707 165.973,15.533 C 163.857,15.374 161.887,15.745 160.06,16.647 C 158.234,17.557 156.734,18.929 155.573,20.786 C 154.406,22.634 153.808,24.583 153.784,26.63 C 153.754,28.66 154.278,30.601 155.338,32.427 C 156.408,34.254 157.946,35.786 159.931,37.043 Z M 163.107,31.988 C 162.335,31.503 161.75,30.873 161.364,30.1 C 160.986,29.328 160.818,28.471 160.887,27.538 C 160.954,26.614 161.288,25.681 161.872,24.75 C 162.456,23.81 163.16,23.113 163.963,22.65 C 164.782,22.18 165.616,21.953 166.479,21.975 C 167.345,21.991 168.17,22.241 168.936,22.726 C 169.717,23.21 170.3,23.848 170.686,24.62 C 171.073,25.393 171.239,26.243 171.165,27.174 C 171.104,28.107 170.77,29.04 170.178,29.971 C 169.602,30.911 168.89,31.608 168.087,32.071 C 167.275,32.533 166.443,32.761 165.578,32.746 C 164.707,32.73 163.888,32.481 163.107,31.988 Z" marker-start="none" marker-end="none"/>
      <path d="M 128.038,24.37 L 130.448,14.692 L 133.184,23.597 L 136.344,24.348 L 142.764,18.027 L 140.506,27.379 L 147.031,28.955 L 152.185,7.688 L 146.289,6.263 L 136.609,15.927 L 132.6,2.959 L 126.704,1.534 L 121.512,22.794 L 128.038,24.37 Z" marker-start="none" marker-end="none"/>
      <path d="M 106.133,1.678 C 104.109,1.784 102.366,2.201 100.904,2.951 C 99.441,3.686 98.334,4.709 97.583,5.99 C 96.834,7.286 96.5,8.756 96.583,10.417 C 96.675,12.084 97.145,13.532 98.015,14.73 C 98.894,15.942 100.108,16.837 101.639,17.435 C 103.162,18.027 104.936,18.261 106.96,18.171 L 110.121,18.011 L 110.385,23.378 L 117.753,23.006 L 116.669,1.147 L 106.133,1.678 Z M 107.142,12.455 C 106.148,12.509 105.383,12.327 104.86,11.911 C 104.338,11.486 104.057,10.863 104.019,10.045 C 103.973,9.242 104.201,8.598 104.678,8.128 C 105.156,7.65 105.891,7.385 106.883,7.34 L 109.575,7.203 L 109.831,12.327 L 107.142,12.455 Z" marker-start="none" marker-end="none"/>
      <path d="M 79.127,25.667 L 87.049,23.104 L 89.618,26.281 L 96.765,23.961 L 80.917,6.082 L 74.02,8.318 L 71.648,32.087 L 78.9,29.744 L 79.127,25.667 Z M 79.439,19.974 L 79.765,14.085 L 83.478,18.67 L 79.439,19.974 Z" marker-start="none" marker-end="none"/>
      <path d="M 40.398,27.341 L 52.866,45.342 L 57.853,41.886 L 59.027,28.979 L 64.698,37.149 L 70.594,33.056 L 58.148,15.063 L 53.154,18.519 L 51.971,31.419 L 46.318,23.257 L 40.398,27.341 Z" marker-start="none" marker-end="none"/>
      <path d="M 35.752,52.581 L 41.762,57.773 L 46.582,52.194 L 40.512,46.934 L 35.418,31.631 L 30.333,37.52 L 33.137,45.85 L 24.466,44.312 L 19.805,49.709 L 35.752,52.581 Z" marker-start="none" marker-end="none"/>
     </g>
     <path d="M 46.582,60.819 C 17.28,97.451 23.223,150.96 59.854,180.263 C 67.79,186.599 76.505,191.29 85.594,194.383 L 85.594,207.367 L 81.675,207.367 C 78.385,207.374 72.08,212.71 69.456,218.25 L 96.477,218.25 L 96.477,197.278 L 96.485,197.285 L 96.485,186.356 L 96.477,186.356 C 85.866,183.961 75.611,179.17 66.539,171.918 C 34.509,146.299 29.317,99.528 54.942,67.489 C 80.561,35.474 127.356,30.282 159.385,55.893 C 191.409,81.511 196.608,128.291 170.99,160.314 C 160.06,173.964 145.288,182.741 129.447,186.334 L 129.447,197.255 L 129.455,197.255 L 129.455,218.25 L 156.475,218.25 C 153.853,212.71 147.546,207.374 144.257,207.367 L 140.339,207.367 L 140.339,194.359 C 155.18,189.32 168.815,180.133 179.327,166.983 C 208.644,130.36 202.701,76.849 166.056,47.541 C 129.425,18.238 75.9,24.188 46.582,60.819 Z M 58.33,70.126 C 34.16,100.277 39.011,144.367 69.177,168.53 C 99.328,192.693 143.424,187.842 167.594,157.683 C 191.764,127.532 186.907,83.444 156.756,59.281 C 126.598,35.118 82.5,39.977 58.33,70.126 Z M 143.067,70.468 C 143.067,71.763 142.014,72.802 140.733,72.802 L 125.377,72.802 C 138.725,76.683 148.495,89.144 148.495,103.915 C 148.495,120.332 136.427,133.884 120.784,135.991 L 120.466,135.469 L 124.21,142.411 C 124.582,143.085 124.323,143.935 123.642,144.306 L 121.83,145.284 L 129.781,159.684 C 129.902,159.911 129.826,160.192 129.598,160.314 L 119.495,165.87 C 119.275,165.998 118.987,165.922 118.859,165.688 L 110.855,151.18 L 108.475,152.462 C 107.794,152.826 106.944,152.574 106.573,151.893 L 88.791,118.922 C 88.427,118.241 88.686,117.384 89.36,117.02 L 104.527,108.865 C 105.201,108.509 106.058,108.759 106.429,109.44 L 116.532,128.177 C 129.735,128.018 140.392,117.294 140.392,104.068 C 140.392,90.75 129.576,79.957 116.244,79.957 C 106.557,79.957 98.213,85.65 94.355,93.866 L 104.905,89.257 C 105.928,88.825 107.119,89.288 107.566,90.311 C 108.005,91.326 107.535,92.517 106.519,92.971 L 75.187,106.629 C 74.164,107.068 72.973,106.607 72.534,105.583 C 72.087,104.567 72.55,103.378 73.573,102.93 L 84.456,98.186 L 84.456,72.802 L 76.551,72.802 C 75.262,72.802 74.216,71.763 74.216,70.468 C 74.216,69.179 75.262,68.134 76.551,68.134 L 140.733,68.134 C 142.014,68.134 143.067,69.179 143.067,70.468 Z M 100.358,108.766 C 100.722,109.471 100.448,110.328 99.76,110.692 L 93.392,114.072 C 92.703,114.443 91.831,114.178 91.46,113.488 C 91.096,112.791 91.361,111.934 92.058,111.563 L 98.424,108.19 C 99.115,107.812 99.978,108.084 100.358,108.766 Z M 131.934,161.836 C 132.319,162.535 132.062,163.398 131.379,163.785 L 121.346,169.317 C 120.647,169.697 119.783,169.447 119.39,168.757 C 119.01,168.06 119.268,167.196 119.958,166.801 L 129.985,161.276 C 130.675,160.882 131.554,161.139 131.934,161.836 Z" fill="#000000" stroke-linejoin="miter" stroke-width="0.303" marker-start="none" marker-end="none" stroke-miterlimit="79.8403193612775"/>
    </g>
   </g>
  </g>
 </g>
</svg>
