<?xml version="1.0" standalone="no"?>
<!DOCTYPE svg PUBLIC "-//W3C//DTD SVG 1.1//EN" "http://www.w3.org/Graphics/SVG/1.1/DTD/svg11.dtd">
<!--Generator: Xara Designer (www.xara.com), SVG filter version: 5.0.0.2-->
<svg stroke-width="0.501" stroke-linejoin="bevel" fill-rule="evenodd" xmlns:xlink="http://www.w3.org/1999/xlink" xmlns="http://www.w3.org/2000/svg" version="1.1" overflow="visible" width="225pt" height="218.25pt" viewBox="0 0 225 218.25">
 <defs>
  <marker id="DefaultArrow2" markerUnits="strokeWidth" viewBox="0 0 1 1" markerWidth="1" markerHeight="1" overflow="visible" orient="auto">
   <!-- REF_ARROW_STRAIGHT (-2) -->
   <g transform="scale(0.0092592592)">
    <!-- 1/108 -->
    <path d="M -9 54 L -9 -54 L 117 0 z"/>
   </g>
  </marker>
  <marker id="DefaultArrow3" markerUnits="strokeWidth" viewBox="0 0 1 1" markerWidth="1" markerHeight="1" overflow="visible" orient="auto">
   <!-- REF_ARROW_ANGLED -->
   <g transform="scale(0.0092592592)">
    <path d="M -27 54 L -9 0 L -27 -54 L 135 0 z"/>
   </g>
  </marker>
  <marker id="DefaultArrow4" markerUnits="strokeWidth" viewBox="0 0 1 1" markerWidth="1" markerHeight="1" overflow="visible" orient="auto">
   <!-- REF_ARROW_ROUNDED -->
   <g transform="scale(0.0092592592)">
    <path d="M -9,0 L -9,-45 C -9,-51.708 2.808,-56.580 9,-54 L 117,-9 C 120.916,-7.369 126.000,-4.242 126,0 C 126,4.242 120.916,7.369 117,9 L 9,54 C 2.808,56.580 -9,51.708 -9,45 z"/>
   </g>
  </marker>
  <marker id="DefaultArrow5" markerUnits="strokeWidth" viewBox="0 0 1 1" markerWidth="1" markerHeight="1" overflow="visible" orient="auto">
   <!-- REF_ARROW_SPOT -->
   <g transform="scale(0.0092592592)">
    <path d="M -54, 0 C -54,29.807 -29.807,54 0,54 C 29.807,54 54,29.807 54,0 C 54,-29.807 29.807,-54 0,-54 C -29.807,-54 -54,-29.807 -54,0 z"/>
   </g>
  </marker>
  <marker id="DefaultArrow6" markerUnits="strokeWidth" viewBox="0 0 1 1" markerWidth="1" markerHeight="1" overflow="visible" orient="auto">
   <!-- REF_ARROW_DIAMOND -->
   <g transform="scale(0.0092592592)">
    <path d="M -63,0 L 0,63 L 63,0 L 0,-63 z"/>
   </g>
  </marker>
  <marker id="DefaultArrow7" markerUnits="strokeWidth" viewBox="0 0 1 1" markerWidth="1" markerHeight="1" overflow="visible" orient="auto">
   <!-- REF_ARROW_FEATHER -->
   <g transform="scale(0.0092592592)">
    <path d="M 18,-54 L 108,-54 L 63,0 L 108,54 L 18, 54 L -36,0 z"/>
   </g>
  </marker>
  <marker id="DefaultArrow8" markerUnits="strokeWidth" viewBox="0 0 1 1" markerWidth="1" markerHeight="1" overflow="visible" orient="auto">
   <!-- REF_ARROW_FEATHER2 -->
   <g transform="scale(0.0092592592)">
    <path d="M -36,0 L 18,-54 L 54,-54 L 18,-18 L 27,-18 L 63,-54 L 99,-54 L 63,-18 L 72,-18 L 108,-54 L 144,-54 L 90,0 L 144,54 L 108,54 L 72,18 L 63,18 L 99,54 L 63,54 L 27,18 L 18,18 L 54,54 L 18,54 z"/>
   </g>
  </marker>
  <marker id="DefaultArrow9" markerUnits="strokeWidth" viewBox="0 0 1 1" markerWidth="1" markerHeight="1" overflow="visible" orient="auto">
   <!-- REF_ARROW_HOLLOWDIAMOND -->
   <g transform="scale(0.0092592592)">
    <path d="M 0,45 L -45,0 L 0, -45 L 45, 0 z M 0, 63 L-63, 0 L 0, -63 L 63, 0 z"/>
   </g>
  </marker>
  <filter id="StainedFilter">
   <feBlend mode="multiply" in2="BackgroundImage" in="SourceGraphic" result="blend"/>
   <feComposite in="blend" in2="SourceAlpha" operator="in" result="comp"/>
  </filter>
  <filter id="BleachFilter">
   <feBlend mode="screen" in2="BackgroundImage" in="SourceGraphic" result="blend"/>
   <feComposite in="blend" in2="SourceAlpha" operator="in" result="comp"/>
  </filter>
  <filter id="InvertTransparencyBitmapFilter">
   <feComponentTransfer>
    <feFuncR type="gamma" amplitude="1.055" exponent=".416666666" offset="-0.055"/>
    <feFuncG type="gamma" amplitude="1.055" exponent=".416666666" offset="-0.055"/>
    <feFuncB type="gamma" amplitude="1.055" exponent=".416666666" offset="-0.055"/>
   </feComponentTransfer>
   <feComponentTransfer>
    <feFuncR type="linear" slope="-1" intercept="1"/>
    <feFuncG type="linear" slope="-1" intercept="1"/>
    <feFuncB type="linear" slope="-1" intercept="1"/>
    <feFuncA type="linear" slope="1" intercept="0"/>
   </feComponentTransfer>
   <feComponentTransfer>
    <feFuncR type="gamma" amplitude="1" exponent="2.4" offset="0"/>
    <feFuncG type="gamma" amplitude="1" exponent="2.4" offset="0"/>
    <feFuncB type="gamma" amplitude="1" exponent="2.4" offset="0"/>
   </feComponentTransfer>
  </filter>
 </defs>
 <g id="Document" fill="none" stroke="black" font-family="Times New Roman" font-size="16" transform="scale(1 -1)">
  <g id="Spread" transform="translate(0 -218.25)">
   <g id="Page background">
    <path d="M 0,218.249 L 0,0 L 224.999,0 L 224.999,218.249 L 0,218.249 Z" stroke-linejoin="bevel" stroke="none" stroke-width="0" marker-start="none" marker-end="none" stroke-miterlimit="79.8403193612775"/>
   </g>
   <g id="MouseOff">
    <g id="Group" stroke-linecap="round" stroke="none">
     <g id="Group_1">
      <path d="M 56.374,184.049 C 95.42,215.278 152.462,208.941 183.699,169.904 C 214.935,130.868 208.596,73.839 169.551,42.612 C 130.503,11.382 73.462,17.721 42.226,56.757 C 10.989,95.794 17.328,152.821 56.374,184.049 Z" stroke-width="0.457" stroke-linejoin="miter" marker-start="none" marker-end="none" stroke-miterlimit="79.8403193612775"/>
      <g id="Group_2" fill-rule="nonzero" stroke-linejoin="round" stroke-width="0.163" fill="#02314e" stroke-miterlimit="79.8403193612775">
       <path d="M 15.819,81.341 C 15.778,82.718 16.05,83.908 16.634,84.91 C 17.217,85.91 18.108,86.654 19.307,87.139 C 21.085,87.859 22.76,87.682 24.33,86.61 C 25.9,85.537 27.25,83.609 28.378,80.827 L 33.005,69.411 L 12.716,61.192 L 8.322,72.029 C 7.227,74.734 6.881,76.972 7.289,78.745 C 7.695,80.518 8.7,81.729 10.304,82.379 C 11.25,82.763 12.196,82.87 13.143,82.701 C 14.087,82.534 14.98,82.08 15.819,81.341 Z M 14.773,69.852 L 17.788,71.073 L 16.495,74.26 C 15.893,75.748 15.089,76.288 14.084,75.881 C 13.079,75.474 12.879,74.527 13.481,73.04 L 14.773,69.852 Z M 23.829,78.31 C 23.219,79.818 22.382,80.356 21.32,79.925 C 20.257,79.495 20.031,78.525 20.641,77.02 L 22.309,72.904 L 25.498,74.196 L 23.829,78.31 Z" marker-start="none" marker-end="none"/>
       <path d="M 3.286,88.008 L 1.898,95.255 L 23.399,99.367 L 24.787,92.12 L 3.286,88.008 Z" marker-start="none" marker-end="none"/>
       <path d="M 22.892,114.362 C 22.884,112.007 22.387,109.894 21.399,108.021 C 20.413,106.148 19.047,104.684 17.303,103.627 C 15.558,102.572 13.591,102.047 11.402,102.055 C 9.212,102.063 7.25,102.602 5.512,103.67 C 3.775,104.739 2.42,106.215 1.447,108.093 C 0.473,109.973 -0.009,112.09 0.001,114.446 C 0.009,116.802 0.506,118.916 1.494,120.788 C 2.48,122.66 3.846,124.125 5.591,125.182 C 7.335,126.239 9.302,126.762 11.492,126.754 C 13.68,126.746 15.644,126.207 17.38,125.139 C 19.118,124.069 20.473,122.595 21.445,120.715 C 22.418,118.835 22.902,116.718 22.892,114.362 Z M 16.919,114.385 C 16.923,115.301 16.702,116.13 16.257,116.873 C 15.811,117.614 15.176,118.205 14.354,118.646 C 13.533,119.086 12.569,119.309 11.465,119.314 C 10.359,119.317 9.393,119.102 8.569,118.668 C 7.744,118.232 7.106,117.645 6.655,116.908 C 6.204,116.17 5.976,115.342 5.973,114.424 C 5.97,113.508 6.191,112.678 6.637,111.936 C 7.082,111.195 7.716,110.604 8.539,110.163 C 9.36,109.722 10.324,109.499 11.428,109.496 C 12.534,109.492 13.498,109.706 14.324,110.142 C 15.149,110.577 15.787,111.163 16.238,111.901 C 16.69,112.64 16.915,113.468 16.919,114.385 Z" marker-start="none" marker-end="none"/>
       <path d="M 5.177,146.284 L 7.787,153.187 L 22.911,147.473 L 26.404,156.715 L 31.759,154.693 L 25.655,138.548 L 5.177,146.284 Z" marker-start="none" marker-end="none"/>
       <path d="M 39.45,172.735 L 34.538,166.022 L 36.75,162.584 L 32.32,156.529 L 20.3,177.17 L 24.583,183.025 L 47.902,177.827 L 43.396,171.669 L 39.45,172.735 Z M 33.958,174.233 L 28.261,175.766 L 31.447,170.8 L 33.958,174.233 Z" marker-start="none" marker-end="none"/>
       <path d="M 57.968,199.532 C 59.293,199.915 60.513,199.948 61.628,199.632 C 62.744,199.316 63.686,198.638 64.453,197.6 C 65.594,196.058 65.841,194.393 65.193,192.604 C 64.545,190.816 63.012,189.029 60.6,187.245 L 50.692,179.921 L 37.675,197.519 L 47.081,204.471 C 49.428,206.206 51.511,207.098 53.329,207.146 C 55.148,207.193 56.571,206.522 57.6,205.131 C 58.206,204.31 58.548,203.42 58.62,202.463 C 58.693,201.506 58.475,200.529 57.968,199.532 Z M 46.578,197.684 L 48.512,195.069 L 51.278,197.113 C 52.569,198.068 52.892,198.981 52.247,199.853 C 51.602,200.723 50.635,200.682 49.345,199.728 L 46.578,197.684 Z M 57.028,191.021 C 58.336,191.988 58.649,192.933 57.968,193.854 C 57.285,194.775 56.29,194.753 54.983,193.786 L 51.413,191.148 L 53.457,188.381 L 57.028,191.021 Z" marker-start="none" marker-end="none"/>
       <path d="M 168.141,184.529 C 166.705,185.637 165.43,186.876 164.315,188.247 C 163.201,189.618 162.416,190.914 161.961,192.133 L 167.127,194.943 C 167.584,193.827 168.212,192.731 169.013,191.653 C 169.814,190.576 170.687,189.674 171.628,188.948 C 172.437,188.326 173.075,187.958 173.543,187.849 C 174.011,187.738 174.366,187.839 174.608,188.154 C 174.887,188.517 174.87,188.964 174.556,189.495 C 174.241,190.026 173.647,190.8 172.772,191.818 C 171.652,193.129 170.769,194.288 170.126,195.296 C 169.481,196.306 169.113,197.433 169.018,198.676 C 168.923,199.919 169.361,201.169 170.328,202.423 C 171.168,203.514 172.236,204.269 173.535,204.689 C 174.834,205.111 176.287,205.109 177.896,204.686 C 179.504,204.262 181.174,203.382 182.909,202.046 C 184.098,201.131 185.168,200.103 186.117,198.962 C 187.069,197.821 187.791,196.666 188.284,195.497 L 183.261,192.617 C 182.221,194.786 180.942,196.456 179.423,197.627 C 177.919,198.785 176.889,199 176.328,198.275 C 176.061,197.927 176.083,197.496 176.396,196.979 C 176.709,196.462 177.3,195.71 178.171,194.723 C 179.302,193.457 180.196,192.314 180.856,191.291 C 181.517,190.271 181.901,189.138 182.01,187.896 C 182.119,186.654 181.689,185.406 180.722,184.152 C 179.883,183.062 178.817,182.311 177.524,181.899 C 176.232,181.486 174.78,181.488 173.165,181.902 C 171.551,182.318 169.876,183.193 168.141,184.529 Z" marker-start="none" marker-end="none"/>
       <path d="M 184.771,167.703 C 183.372,169.598 182.507,171.59 182.179,173.68 C 181.852,175.772 182.071,177.763 182.839,179.652 C 183.607,181.54 184.871,183.136 186.631,184.438 C 188.391,185.74 190.287,186.479 192.319,186.659 C 194.35,186.839 196.319,186.466 198.223,185.541 C 200.127,184.615 201.778,183.205 203.179,181.311 C 204.579,179.417 205.443,177.425 205.772,175.334 C 206.099,173.242 205.879,171.253 205.111,169.364 C 204.343,167.474 203.079,165.879 201.319,164.577 C 199.559,163.276 197.663,162.535 195.632,162.355 C 193.6,162.175 191.631,162.548 189.728,163.474 C 187.825,164.4 186.173,165.811 184.771,167.703 Z M 189.574,171.255 C 190.119,170.517 190.792,169.983 191.593,169.656 C 192.394,169.327 193.256,169.231 194.178,169.369 C 195.101,169.506 196.006,169.904 196.894,170.56 C 197.784,171.217 198.428,171.966 198.829,172.808 C 199.232,173.649 199.393,174.5 199.313,175.363 C 199.234,176.224 198.921,177.023 198.376,177.761 C 197.831,178.497 197.158,179.031 196.357,179.36 C 195.556,179.689 194.695,179.783 193.772,179.646 C 192.849,179.508 191.944,179.112 191.056,178.455 C 190.167,177.797 189.522,177.049 189.121,176.206 C 188.718,175.366 188.557,174.514 188.637,173.653 C 188.716,172.791 189.029,171.991 189.574,171.255 Z" marker-start="none" marker-end="none"/>
       <path d="M 197.079,145.6 C 195.896,148.741 195.821,151.509 196.858,153.904 C 197.894,156.298 199.943,158.072 203.007,159.226 L 214.275,163.469 L 216.877,156.563 L 205.813,152.397 C 204.31,151.832 203.32,151.152 202.838,150.359 C 202.357,149.566 202.308,148.662 202.691,147.648 C 203.073,146.632 203.707,145.986 204.591,145.706 C 205.476,145.428 206.669,145.57 208.171,146.136 L 219.236,150.302 L 221.792,143.513 L 210.524,139.271 C 207.461,138.118 204.749,138.099 202.391,139.216 C 200.032,140.331 198.261,142.461 197.079,145.6 Z" marker-start="none" marker-end="none"/>
       <path d="M 208.503,123.58 L 208.317,125.573 L 202.836,125.062 L 202.152,132.41 L 223.95,134.44 L 224.926,123.948 C 225.114,121.935 224.945,120.15 224.421,118.593 C 223.896,117.039 223.048,115.797 221.877,114.871 C 220.708,113.947 219.292,113.407 217.632,113.252 C 216.074,113.106 214.682,113.332 213.453,113.93 C 212.226,114.528 211.206,115.459 210.398,116.723 L 204.098,111.52 L 203.367,119.366 L 208.503,123.58 Z M 216.942,120.662 C 217.75,120.736 218.356,121.044 218.755,121.584 C 219.155,122.123 219.308,122.891 219.217,123.888 L 218.967,126.564 L 213.859,126.088 L 214.109,123.412 C 214.202,122.415 214.494,121.688 214.987,121.232 C 215.48,120.775 216.131,120.586 216.942,120.662 Z" marker-start="none" marker-end="none"/>
       <path d="M 201.738,97.996 C 202.076,100.285 202.861,102.276 204.091,103.97 C 205.321,105.663 206.874,106.904 208.75,107.69 C 210.627,108.477 212.657,108.709 214.843,108.387 C 217.03,108.065 218.907,107.254 220.476,105.959 C 222.045,104.663 223.173,103.028 223.86,101.05 C 224.549,99.074 224.724,96.941 224.386,94.653 C 224.075,92.549 223.426,90.727 222.44,89.188 C 221.454,87.648 220.18,86.445 218.619,85.58 L 215.185,90.796 C 217.074,91.887 218.153,93.339 218.422,95.154 C 218.646,96.68 218.338,97.979 217.496,99.051 C 216.652,100.124 215.406,100.781 213.756,101.026 C 212.107,101.27 210.723,101 209.606,100.216 C 208.489,99.432 207.818,98.279 207.593,96.753 C 207.325,94.937 207.938,93.236 209.431,91.645 L 204.636,87.645 C 203.391,88.924 202.52,90.443 202.021,92.203 C 201.522,93.961 201.428,95.893 201.738,97.996 Z" marker-start="none" marker-end="none"/>
       <path d="M 198.022,67.254 L 192.864,69.348 L 199.713,86.207 L 219.996,77.972 L 213.3,61.489 L 208.141,63.584 L 212.107,73.346 L 209.731,74.31 L 206.249,65.736 L 201.323,67.736 L 204.806,76.31 L 202.139,77.393 L 198.022,67.254 Z" marker-start="none" marker-end="none"/>
       <path d="M 178.035,51.04 C 179.626,52.721 181.409,53.902 183.389,54.585 C 185.369,55.266 187.353,55.392 189.341,54.961 C 191.33,54.53 193.126,53.555 194.731,52.038 C 196.338,50.52 197.411,48.78 197.953,46.82 C 198.495,44.859 198.48,42.871 197.91,40.857 C 197.338,38.844 196.259,36.996 194.668,35.315 C 193.207,33.771 191.631,32.649 189.939,31.954 C 188.249,31.258 186.516,31.003 184.74,31.19 L 184.92,37.432 C 187.092,37.242 188.81,37.813 190.07,39.146 C 191.131,40.266 191.623,41.508 191.548,42.87 C 191.473,44.232 190.83,45.485 189.617,46.63 C 188.405,47.777 187.118,48.349 185.754,48.347 C 184.389,48.346 183.177,47.785 182.117,46.665 C 180.856,45.331 180.382,43.586 180.694,41.427 L 174.469,40.9 C 174.184,42.661 174.341,44.406 174.943,46.132 C 175.543,47.859 176.573,49.494 178.035,51.04 Z" marker-start="none" marker-end="none"/>
       <path d="M 159.934,36.468 C 161.927,37.723 163.98,38.435 166.089,38.604 C 168.2,38.775 170.168,38.407 171.995,37.498 C 173.823,36.591 175.319,35.212 176.485,33.36 C 177.651,31.507 178.246,29.561 178.275,27.523 C 178.302,25.483 177.782,23.549 176.715,21.721 C 175.649,19.893 174.118,18.351 172.124,17.097 C 170.13,15.842 168.078,15.131 165.969,14.961 C 163.858,14.792 161.89,15.16 160.063,16.067 C 158.235,16.974 156.739,18.353 155.573,20.206 C 154.407,22.058 153.811,24.004 153.785,26.044 C 153.756,28.084 154.276,30.016 155.342,31.845 C 156.409,33.673 157.94,35.214 159.934,36.468 Z M 163.114,31.414 C 162.338,30.926 161.755,30.295 161.368,29.521 C 160.981,28.749 160.82,27.895 160.888,26.967 C 160.956,26.036 161.284,25.104 161.874,24.168 C 162.462,23.233 163.16,22.535 163.97,22.07 C 164.779,21.607 165.617,21.382 166.481,21.397 C 167.347,21.412 168.167,21.663 168.944,22.151 C 169.72,22.641 170.303,23.271 170.69,24.044 C 171.078,24.818 171.238,25.669 171.17,26.6 C 171.102,27.529 170.773,28.461 170.184,29.396 C 169.596,30.332 168.898,31.032 168.089,31.495 C 167.279,31.959 166.443,32.183 165.577,32.169 C 164.711,32.153 163.891,31.902 163.114,31.414 Z" marker-start="none" marker-end="none"/>
       <path d="M 128.04,23.794 L 130.445,14.114 L 133.184,23.01 L 136.346,23.774 L 142.766,17.444 L 140.504,26.805 L 147.04,28.385 L 152.183,7.11 L 146.285,5.687 L 136.614,15.348 L 132.606,2.38 L 126.708,0.956 L 121.505,22.214 L 128.04,23.794 Z" marker-start="none" marker-end="none"/>
       <path d="M 106.135,1.103 C 104.114,1.204 102.371,1.625 100.905,2.367 C 99.439,3.108 98.331,4.124 97.582,5.413 C 96.834,6.704 96.5,8.181 96.584,9.847 C 96.668,11.512 97.146,12.95 98.022,14.157 C 98.897,15.365 100.101,16.266 101.633,16.857 C 103.166,17.448 104.942,17.692 106.962,17.59 L 110.117,17.432 L 110.386,22.803 L 117.758,22.432 L 116.66,0.574 L 106.135,1.103 Z M 107.146,11.883 C 106.146,11.934 105.384,11.747 104.863,11.325 C 104.34,10.902 104.059,10.286 104.017,9.474 C 103.976,8.662 104.196,8.019 104.673,7.546 C 105.15,7.074 105.888,6.813 106.888,6.763 L 109.574,6.627 L 109.832,11.749 L 107.146,11.883 Z" marker-start="none" marker-end="none"/>
       <path d="M 79.135,25.082 L 87.049,22.522 L 89.623,25.699 L 96.764,23.39 L 80.922,5.51 L 74.018,7.742 L 71.65,31.51 L 78.911,29.163 L 79.135,25.082 Z M 79.432,19.399 L 79.763,13.509 L 83.48,18.091 L 79.432,19.399 Z" marker-start="none" marker-end="none"/>
       <path d="M 40.399,26.767 L 52.863,44.761 L 57.851,41.307 L 59.028,28.398 L 64.69,36.572 L 70.602,32.479 L 58.14,14.485 L 53.152,17.939 L 51.975,30.847 L 46.313,22.674 L 40.399,26.767 Z" marker-start="none" marker-end="none"/>
       <path d="M 35.753,52.002 L 41.763,57.195 L 46.589,51.612 L 40.508,46.357 L 35.426,31.055 L 30.334,36.945 L 33.135,45.276 L 24.464,43.734 L 19.802,49.128 L 35.753,52.002 Z" marker-start="none" marker-end="none"/>
      </g>
     </g>
     <path d="M 46.589,60.243 C 17.279,96.873 23.224,150.386 59.862,179.689 C 67.787,186.027 76.505,190.716 85.599,193.803 L 85.599,206.793 L 81.674,206.793 C 78.387,206.797 72.08,212.14 69.455,217.676 L 96.484,217.676 L 96.483,196.704 L 96.486,196.706 L 96.486,185.776 L 96.484,185.781 C 85.863,183.379 75.609,178.595 66.54,171.342 C 34.511,145.724 29.313,98.941 54.938,66.919 C 80.562,34.898 127.356,29.698 159.385,55.316 C 191.415,80.935 196.613,127.717 170.988,159.739 C 160.062,173.393 145.286,182.169 129.451,185.76 L 129.451,196.684 L 129.452,196.682 L 129.452,217.676 L 156.48,217.676 C 153.857,212.14 147.55,206.797 144.264,206.793 L 140.338,206.793 L 140.338,193.78 C 155.188,188.748 168.819,179.556 179.337,166.416 C 208.647,129.785 202.702,76.272 166.064,46.97 C 129.426,17.667 75.9,23.612 46.589,60.243 Z M 58.328,69.55 C 34.155,99.701 39.014,143.788 69.171,167.953 C 99.328,192.118 143.425,187.259 167.598,157.108 C 191.77,126.957 186.912,82.87 156.755,58.705 C 126.598,34.541 82.501,39.399 58.328,69.55 Z M 143.067,69.893 C 143.067,71.185 142.021,72.229 140.731,72.229 L 125.376,72.229 C 138.725,76.106 148.492,88.567 148.492,103.338 C 148.492,119.755 136.426,133.315 120.788,135.413 L 120.466,134.892 L 124.21,141.832 C 124.577,142.512 124.324,143.362 123.642,143.728 L 121.831,144.701 L 129.779,159.107 C 129.904,159.331 129.822,159.616 129.598,159.742 L 119.501,165.297 C 119.273,165.42 118.99,165.341 118.864,165.112 L 110.857,150.604 L 108.478,151.885 C 107.797,152.255 106.943,151.999 106.577,151.317 L 88.79,118.345 C 88.424,117.666 88.678,116.816 89.359,116.449 L 104.525,108.292 C 105.206,107.924 106.057,108.18 106.425,108.861 L 116.532,127.599 C 129.737,127.446 140.392,116.712 140.392,103.494 C 140.392,90.174 129.582,79.38 116.244,79.38 C 106.563,79.38 98.213,85.071 94.361,93.286 L 104.909,88.689 C 105.931,88.243 107.119,88.713 107.568,89.732 C 108.011,90.754 107.547,91.94 106.525,92.386 L 75.186,106.052 C 74.162,106.496 72.977,106.028 72.53,105.009 C 72.083,103.99 72.549,102.801 73.569,102.355 L 84.455,97.607 L 84.455,72.229 L 76.551,72.229 C 75.26,72.229 74.214,71.185 74.214,69.893 C 74.214,68.603 75.26,67.558 76.551,67.558 L 140.731,67.558 C 142.021,67.558 143.067,68.603 143.067,69.893 Z M 100.352,108.198 C 100.719,108.891 100.453,109.752 99.761,110.119 L 93.389,113.497 C 92.699,113.866 91.835,113.601 91.465,112.907 C 91.097,112.217 91.364,111.356 92.056,110.986 L 98.428,107.608 C 99.12,107.242 99.981,107.506 100.352,108.198 Z M 131.934,161.26 C 132.318,161.956 132.066,162.828 131.375,163.21 L 121.347,168.744 C 120.654,169.127 119.78,168.876 119.395,168.182 C 119.012,167.487 119.265,166.615 119.959,166.232 L 129.982,160.696 C 130.677,160.314 131.551,160.567 131.934,161.26 Z" fill="#03bdf9" stroke-linejoin="miter" stroke-width="0.31" marker-start="none" marker-end="none" stroke-miterlimit="79.8403193612775"/>
    </g>
   </g>
  </g>
 </g>
</svg>
