<?xml version="1.0" standalone="no"?>
<!DOCTYPE svg PUBLIC "-//W3C//DTD SVG 1.1//EN" "http://www.w3.org/Graphics/SVG/1.1/DTD/svg11.dtd">
<!--Generator: Xara Designer (www.xara.com), SVG filter version: 5.0.0.2-->
<svg stroke-width="0.501" stroke-linejoin="bevel" fill-rule="evenodd" xmlns:xlink="http://www.w3.org/1999/xlink" xmlns="http://www.w3.org/2000/svg" version="1.1" overflow="visible" width="172.5pt" height="36.75pt" viewBox="0 0 172.5 36.75">
 <defs>
  <marker id="DefaultArrow2" markerUnits="strokeWidth" viewBox="0 0 1 1" markerWidth="1" markerHeight="1" overflow="visible" orient="auto">
   <!-- REF_ARROW_STRAIGHT (-2) -->
   <g transform="scale(0.0092592592)">
    <!-- 1/108 -->
    <path d="M -9 54 L -9 -54 L 117 0 z"/>
   </g>
  </marker>
  <marker id="DefaultArrow3" markerUnits="strokeWidth" viewBox="0 0 1 1" markerWidth="1" markerHeight="1" overflow="visible" orient="auto">
   <!-- REF_ARROW_ANGLED -->
   <g transform="scale(0.0092592592)">
    <path d="M -27 54 L -9 0 L -27 -54 L 135 0 z"/>
   </g>
  </marker>
  <marker id="DefaultArrow4" markerUnits="strokeWidth" viewBox="0 0 1 1" markerWidth="1" markerHeight="1" overflow="visible" orient="auto">
   <!-- REF_ARROW_ROUNDED -->
   <g transform="scale(0.0092592592)">
    <path d="M -9,0 L -9,-45 C -9,-51.708 2.808,-56.580 9,-54 L 117,-9 C 120.916,-7.369 126.000,-4.242 126,0 C 126,4.242 120.916,7.369 117,9 L 9,54 C 2.808,56.580 -9,51.708 -9,45 z"/>
   </g>
  </marker>
  <marker id="DefaultArrow5" markerUnits="strokeWidth" viewBox="0 0 1 1" markerWidth="1" markerHeight="1" overflow="visible" orient="auto">
   <!-- REF_ARROW_SPOT -->
   <g transform="scale(0.0092592592)">
    <path d="M -54, 0 C -54,29.807 -29.807,54 0,54 C 29.807,54 54,29.807 54,0 C 54,-29.807 29.807,-54 0,-54 C -29.807,-54 -54,-29.807 -54,0 z"/>
   </g>
  </marker>
  <marker id="DefaultArrow6" markerUnits="strokeWidth" viewBox="0 0 1 1" markerWidth="1" markerHeight="1" overflow="visible" orient="auto">
   <!-- REF_ARROW_DIAMOND -->
   <g transform="scale(0.0092592592)">
    <path d="M -63,0 L 0,63 L 63,0 L 0,-63 z"/>
   </g>
  </marker>
  <marker id="DefaultArrow7" markerUnits="strokeWidth" viewBox="0 0 1 1" markerWidth="1" markerHeight="1" overflow="visible" orient="auto">
   <!-- REF_ARROW_FEATHER -->
   <g transform="scale(0.0092592592)">
    <path d="M 18,-54 L 108,-54 L 63,0 L 108,54 L 18, 54 L -36,0 z"/>
   </g>
  </marker>
  <marker id="DefaultArrow8" markerUnits="strokeWidth" viewBox="0 0 1 1" markerWidth="1" markerHeight="1" overflow="visible" orient="auto">
   <!-- REF_ARROW_FEATHER2 -->
   <g transform="scale(0.0092592592)">
    <path d="M -36,0 L 18,-54 L 54,-54 L 18,-18 L 27,-18 L 63,-54 L 99,-54 L 63,-18 L 72,-18 L 108,-54 L 144,-54 L 90,0 L 144,54 L 108,54 L 72,18 L 63,18 L 99,54 L 63,54 L 27,18 L 18,18 L 54,54 L 18,54 z"/>
   </g>
  </marker>
  <marker id="DefaultArrow9" markerUnits="strokeWidth" viewBox="0 0 1 1" markerWidth="1" markerHeight="1" overflow="visible" orient="auto">
   <!-- REF_ARROW_HOLLOWDIAMOND -->
   <g transform="scale(0.0092592592)">
    <path d="M 0,45 L -45,0 L 0, -45 L 45, 0 z M 0, 63 L-63, 0 L 0, -63 L 63, 0 z"/>
   </g>
  </marker>
  <filter id="StainedFilter">
   <feBlend mode="multiply" in2="BackgroundImage" in="SourceGraphic" result="blend"/>
   <feComposite in="blend" in2="SourceAlpha" operator="in" result="comp"/>
  </filter>
  <filter id="BleachFilter">
   <feBlend mode="screen" in2="BackgroundImage" in="SourceGraphic" result="blend"/>
   <feComposite in="blend" in2="SourceAlpha" operator="in" result="comp"/>
  </filter>
  <filter id="InvertTransparencyBitmapFilter">
   <feComponentTransfer>
    <feFuncR type="gamma" amplitude="1.055" exponent=".416666666" offset="-0.055"/>
    <feFuncG type="gamma" amplitude="1.055" exponent=".416666666" offset="-0.055"/>
    <feFuncB type="gamma" amplitude="1.055" exponent=".416666666" offset="-0.055"/>
   </feComponentTransfer>
   <feComponentTransfer>
    <feFuncR type="linear" slope="-1" intercept="1"/>
    <feFuncG type="linear" slope="-1" intercept="1"/>
    <feFuncB type="linear" slope="-1" intercept="1"/>
    <feFuncA type="linear" slope="1" intercept="0"/>
   </feComponentTransfer>
   <feComponentTransfer>
    <feFuncR type="gamma" amplitude="1" exponent="2.4" offset="0"/>
    <feFuncG type="gamma" amplitude="1" exponent="2.4" offset="0"/>
    <feFuncB type="gamma" amplitude="1" exponent="2.4" offset="0"/>
   </feComponentTransfer>
  </filter>
 </defs>
 <g id="Document" fill="none" stroke="black" font-family="Times New Roman" font-size="16" transform="scale(1 -1)">
  <g id="Spread" transform="translate(0 -36.75)">
   <g id="Page background">
    <path d="M 0,36.749 L 0,0 L 172.499,0 L 172.499,36.749 L 0,36.749 Z" stroke-linejoin="bevel" stroke="none" stroke-width="0" marker-start="none" marker-end="none" stroke-miterlimit="79.8403193612775"/>
   </g>
   <g id="MouseOff">
    <path d="M 4.047,1.689 L 23.672,0.201 L 37.278,0.201 L 62.233,24.069 L 65.888,13.261 L 55.179,13.24 L 45.316,4.004 L 69.004,4.004 L 70.183,0.201 L 83.828,0.201 C 83.828,0.201 74.353,27.868 72.545,32.679 C 70.737,37.491 67.269,36.878 62.895,36.499 C 58.521,36.12 32.953,35.1 32.953,35.1 L 59.541,33.904 L 44.468,19.591 L 18.325,18.381 L 41.976,17.31 L 26.666,2.681 L 4.047,1.689 Z" stroke-linejoin="miter" stroke="none" fill="#62859e" stroke-width="0.064" fill-rule="nonzero" marker-start="none" marker-end="none"/>
    <path d="M 85.17,0.201 L 88.319,0.201 L 91.507,9.425 C 91.507,9.425 106.902,9.142 114.597,9.648 C 122.295,10.153 126.259,14.043 126.259,14.043 C 126.259,14.043 120.856,15.013 120.194,20.689 C 120.194,20.689 118.363,18.849 115.696,18.673 C 113.028,18.497 83.577,18.667 83.577,18.667 L 81.441,12.486 C 81.277,12.018 81.277,11.508 81.441,11.039 L 85.17,0.201 Z" stroke-linejoin="miter" stroke="none" fill="#62859e" stroke-width="0.064" fill-rule="nonzero" marker-start="none" marker-end="none"/>
    <g id="Group" stroke-linejoin="miter" stroke="none" fill-rule="nonzero" stroke-width="0.064" fill="#e00000">
     <path d="M 86.308,26.783 C 86.308,26.783 113.041,26.868 115.451,26.83 C 117.863,26.792 122.178,27.375 121.361,22.166 C 120.545,16.959 126.687,14.469 130.495,14.741 C 130.495,14.741 149.776,14.779 150.944,14.721 C 152.11,14.663 155.724,14.604 154.15,11.631 C 152.575,8.659 152.459,9.419 122.37,9.417 L 112.342,0.204 C 112.342,0.204 141.321,0.086 144.703,0.204 C 148.085,0.321 157.209,0.613 161.261,5.218 C 165.316,9.823 168.667,17.871 161.438,20.786 C 161.438,20.786 158.814,22.215 147.328,21.837 C 135.841,21.458 131.381,21.02 132.486,24.488 C 133.593,27.957 132.574,35.858 120.447,36.123 C 108.319,36.386 96.802,36.123 96.802,36.123 L 86.308,26.783 Z" marker-start="none" marker-end="none"/>
    </g>
    <path d="M 130.592,34.37 C 130.592,34.37 134.694,31.669 133.916,26.245 C 133.916,26.245 135.296,26.868 138.737,26.79 C 142.178,26.712 162.119,26.811 162.119,26.811 L 172.5,36.158 C 172.5,36.158 148.99,36.061 142.46,36.236 C 135.928,36.413 130.592,34.37 130.592,34.37 Z" stroke-linejoin="miter" stroke="none" fill="#62859e" stroke-width="0.064" fill-rule="nonzero" marker-start="none" marker-end="none"/>
   </g>
  </g>
 </g>
</svg>
