<?xml version="1.0" standalone="no"?>
<!DOCTYPE svg PUBLIC "-//W3C//DTD SVG 1.1//EN" "http://www.w3.org/Graphics/SVG/1.1/DTD/svg11.dtd">
<!--Generator: Xara Designer (www.xara.com), SVG filter version: 5.0.0.2-->
<svg stroke-width="0.501" stroke-linejoin="bevel" fill-rule="evenodd" xmlns:xlink="http://www.w3.org/1999/xlink" xmlns="http://www.w3.org/2000/svg" version="1.1" overflow="visible" width="134.25pt" height="36.75pt" viewBox="0 0 134.25 36.75">
 <defs>
  <marker id="DefaultArrow2" markerUnits="strokeWidth" viewBox="0 0 1 1" markerWidth="1" markerHeight="1" overflow="visible" orient="auto">
   <!-- REF_ARROW_STRAIGHT (-2) -->
   <g transform="scale(0.0092592592)">
    <!-- 1/108 -->
    <path d="M -9 54 L -9 -54 L 117 0 z"/>
   </g>
  </marker>
  <marker id="DefaultArrow3" markerUnits="strokeWidth" viewBox="0 0 1 1" markerWidth="1" markerHeight="1" overflow="visible" orient="auto">
   <!-- REF_ARROW_ANGLED -->
   <g transform="scale(0.0092592592)">
    <path d="M -27 54 L -9 0 L -27 -54 L 135 0 z"/>
   </g>
  </marker>
  <marker id="DefaultArrow4" markerUnits="strokeWidth" viewBox="0 0 1 1" markerWidth="1" markerHeight="1" overflow="visible" orient="auto">
   <!-- REF_ARROW_ROUNDED -->
   <g transform="scale(0.0092592592)">
    <path d="M -9,0 L -9,-45 C -9,-51.708 2.808,-56.580 9,-54 L 117,-9 C 120.916,-7.369 126.000,-4.242 126,0 C 126,4.242 120.916,7.369 117,9 L 9,54 C 2.808,56.580 -9,51.708 -9,45 z"/>
   </g>
  </marker>
  <marker id="DefaultArrow5" markerUnits="strokeWidth" viewBox="0 0 1 1" markerWidth="1" markerHeight="1" overflow="visible" orient="auto">
   <!-- REF_ARROW_SPOT -->
   <g transform="scale(0.0092592592)">
    <path d="M -54, 0 C -54,29.807 -29.807,54 0,54 C 29.807,54 54,29.807 54,0 C 54,-29.807 29.807,-54 0,-54 C -29.807,-54 -54,-29.807 -54,0 z"/>
   </g>
  </marker>
  <marker id="DefaultArrow6" markerUnits="strokeWidth" viewBox="0 0 1 1" markerWidth="1" markerHeight="1" overflow="visible" orient="auto">
   <!-- REF_ARROW_DIAMOND -->
   <g transform="scale(0.0092592592)">
    <path d="M -63,0 L 0,63 L 63,0 L 0,-63 z"/>
   </g>
  </marker>
  <marker id="DefaultArrow7" markerUnits="strokeWidth" viewBox="0 0 1 1" markerWidth="1" markerHeight="1" overflow="visible" orient="auto">
   <!-- REF_ARROW_FEATHER -->
   <g transform="scale(0.0092592592)">
    <path d="M 18,-54 L 108,-54 L 63,0 L 108,54 L 18, 54 L -36,0 z"/>
   </g>
  </marker>
  <marker id="DefaultArrow8" markerUnits="strokeWidth" viewBox="0 0 1 1" markerWidth="1" markerHeight="1" overflow="visible" orient="auto">
   <!-- REF_ARROW_FEATHER2 -->
   <g transform="scale(0.0092592592)">
    <path d="M -36,0 L 18,-54 L 54,-54 L 18,-18 L 27,-18 L 63,-54 L 99,-54 L 63,-18 L 72,-18 L 108,-54 L 144,-54 L 90,0 L 144,54 L 108,54 L 72,18 L 63,18 L 99,54 L 63,54 L 27,18 L 18,18 L 54,54 L 18,54 z"/>
   </g>
  </marker>
  <marker id="DefaultArrow9" markerUnits="strokeWidth" viewBox="0 0 1 1" markerWidth="1" markerHeight="1" overflow="visible" orient="auto">
   <!-- REF_ARROW_HOLLOWDIAMOND -->
   <g transform="scale(0.0092592592)">
    <path d="M 0,45 L -45,0 L 0, -45 L 45, 0 z M 0, 63 L-63, 0 L 0, -63 L 63, 0 z"/>
   </g>
  </marker>
  <filter id="StainedFilter">
   <feBlend mode="multiply" in2="BackgroundImage" in="SourceGraphic" result="blend"/>
   <feComposite in="blend" in2="SourceAlpha" operator="in" result="comp"/>
  </filter>
  <filter id="BleachFilter">
   <feBlend mode="screen" in2="BackgroundImage" in="SourceGraphic" result="blend"/>
   <feComposite in="blend" in2="SourceAlpha" operator="in" result="comp"/>
  </filter>
  <filter id="InvertTransparencyBitmapFilter">
   <feComponentTransfer>
    <feFuncR type="gamma" amplitude="1.055" exponent=".416666666" offset="-0.055"/>
    <feFuncG type="gamma" amplitude="1.055" exponent=".416666666" offset="-0.055"/>
    <feFuncB type="gamma" amplitude="1.055" exponent=".416666666" offset="-0.055"/>
   </feComponentTransfer>
   <feComponentTransfer>
    <feFuncR type="linear" slope="-1" intercept="1"/>
    <feFuncG type="linear" slope="-1" intercept="1"/>
    <feFuncB type="linear" slope="-1" intercept="1"/>
    <feFuncA type="linear" slope="1" intercept="0"/>
   </feComponentTransfer>
   <feComponentTransfer>
    <feFuncR type="gamma" amplitude="1" exponent="2.4" offset="0"/>
    <feFuncG type="gamma" amplitude="1" exponent="2.4" offset="0"/>
    <feFuncB type="gamma" amplitude="1" exponent="2.4" offset="0"/>
   </feComponentTransfer>
  </filter>
 </defs>
 <g id="Document" fill="none" stroke="black" font-family="Times New Roman" font-size="16" transform="scale(1 -1)">
  <g id="Spread" transform="translate(0 -36.75)">
   <g id="Page background">
    <path d="M 0,36.749 L 0,0 L 134.249,0 L 134.249,36.749 L 0,36.749 Z" stroke-linejoin="bevel" stroke="none" stroke-width="0" marker-start="none" marker-end="none" stroke-miterlimit="79.8403193612775"/>
   </g>
   <g id="MouseOff">
    <path d="M -215.25,271.995 L -122.752,264.982 L -58.623,264.982 L 58.996,377.478 L 76.223,326.537 L 25.749,326.438 L -20.738,282.907 L 90.91,282.907 L 96.467,264.982 L 160.779,264.982 C 160.779,264.982 116.121,395.384 107.6,418.06 C 99.078,440.74 82.732,437.851 62.117,436.064 C 41.501,434.278 -79.008,429.47 -79.008,429.47 L 46.308,423.833 L -24.735,356.372 L -147.954,350.669 L -36.48,345.621 L -108.641,276.671 L -215.25,271.995 Z" stroke-linejoin="miter" stroke="none" fill="#62859e" stroke-width="0.302" fill-rule="nonzero" marker-start="none" marker-end="none"/>
    <path d="M 167.105,264.982 L 181.947,264.982 L 196.973,308.457 C 196.973,308.457 269.533,307.123 305.802,309.508 C 342.085,311.888 360.768,330.223 360.768,330.223 C 360.768,330.223 335.302,334.795 332.182,361.547 C 332.182,361.547 323.552,352.875 310.982,352.045 C 298.407,351.216 159.596,352.017 159.596,352.017 L 149.529,322.884 C 148.756,320.679 148.756,318.275 149.529,316.064 L 167.105,264.982 Z" stroke-linejoin="miter" stroke="none" fill="#62859e" stroke-width="0.302" fill-rule="nonzero" marker-start="none" marker-end="none"/>
    <g id="Group" stroke-linejoin="miter" stroke="none" fill-rule="nonzero" stroke-width="0.302" fill="#e00000">
     <path d="M 172.468,390.27 C 172.468,390.27 298.468,390.671 309.827,390.492 C 321.196,390.313 341.533,393.06 337.683,368.509 C 333.837,343.967 362.786,332.231 380.734,333.513 C 380.734,333.513 471.61,333.692 477.115,333.419 C 482.611,333.145 499.645,332.867 492.226,318.855 C 484.803,304.847 484.256,308.429 342.438,308.419 L 295.174,264.996 C 295.174,264.996 431.76,264.44 447.7,264.996 C 463.64,265.548 506.644,266.924 525.742,288.628 C 544.854,310.333 560.649,348.265 526.576,362.005 C 526.576,362.005 514.209,368.74 460.072,366.958 C 405.931,365.172 384.91,363.108 390.118,379.453 C 395.335,395.803 390.533,433.043 333.375,434.292 C 276.212,435.532 221.929,434.292 221.929,434.292 L 172.468,390.27 Z" marker-start="none" marker-end="none"/>
    </g>
    <path d="M 381.191,426.03 C 381.191,426.03 400.525,413.299 396.858,387.734 C 396.858,387.734 403.362,390.671 419.58,390.303 C 435.799,389.935 529.786,390.402 529.786,390.402 L 578.715,434.457 C 578.715,434.457 467.906,434 437.128,434.825 C 406.341,435.659 381.191,426.03 381.191,426.03 Z" stroke-linejoin="miter" stroke="none" fill="#62859e" stroke-width="0.302" fill-rule="nonzero" marker-start="none" marker-end="none"/>
    <path d="M 192.208,170.51 L 258.6,165.476 L 304.631,165.476 L 389.054,246.223 L 401.419,209.658 L 365.191,209.587 L 331.823,178.342 L 411.962,178.342 L 415.951,165.476 L 462.112,165.476 C 462.112,165.476 430.057,259.075 423.941,275.351 C 417.824,291.63 406.091,289.557 391.295,288.274 C 376.498,286.992 289.999,283.541 289.999,283.541 L 379.948,279.494 L 328.955,231.073 L 240.511,226.98 L 320.524,223.357 L 268.729,173.866 L 192.208,170.51 Z" stroke-linejoin="miter" stroke="none" fill="#62859e" stroke-width="0.217" fill-rule="nonzero" marker-start="none" marker-end="none"/>
    <path d="M 415.951,165.476 L 411.962,178.342 L 331.823,178.342 L 365.191,209.587 L 401.419,209.658 L 401.259,210.13 L 446.595,210.616 C 454.859,186.654 462.112,165.476 462.112,165.476 L 415.951,165.476 Z" fill-rule="nonzero" stroke-linejoin="miter" fill="#e00000" stroke-width="0.217" stroke="none" marker-start="none" marker-end="none"/>
    <path d="M 0.093,-0.048 L 2.177,5.351 L 125.24,5.351 L 123.203,-0.048 L 0.093,-0.048 Z M 17.705,0.438 C 17.815,0.482 17.916,0.538 18.006,0.609 C 18.096,0.679 18.177,0.755 18.25,0.837 L 21.578,4.593 L 20.057,4.593 L 17.622,1.837 L 16.238,4.593 L 14.667,4.593 L 16.598,0.837 C 16.643,0.749 16.698,0.67 16.765,0.6 C 16.831,0.53 16.911,0.475 17.005,0.434 C 17.098,0.393 17.209,0.372 17.337,0.371 C 17.471,0.373 17.594,0.395 17.705,0.438 Z M 31.299,0.451 C 31.414,0.505 31.513,0.59 31.598,0.705 C 31.682,0.821 31.742,0.97 31.777,1.154 L 32.391,4.593 L 31.224,4.593 L 30.789,2.153 L 28.647,4.438 C 28.563,4.529 28.482,4.589 28.403,4.62 C 28.324,4.65 28.246,4.664 28.169,4.661 C 28.039,4.662 27.916,4.636 27.8,4.583 C 27.683,4.53 27.583,4.446 27.499,4.332 C 27.415,4.218 27.357,4.069 27.324,3.885 L 26.722,0.44 L 27.889,0.44 L 28.318,2.88 L 30.46,0.595 C 30.545,0.504 30.625,0.444 30.699,0.413 C 30.774,0.383 30.853,0.369 30.938,0.371 C 31.064,0.371 31.184,0.398 31.299,0.451 Z M 66.101,0.492 C 66.231,0.57 66.343,0.677 66.439,0.812 L 67.315,1.992 C 67.473,2.203 67.606,2.383 67.714,2.532 C 67.823,2.68 67.915,2.81 67.991,2.921 C 68.067,3.032 68.136,3.136 68.196,3.233 C 68.225,3.136 68.257,3.031 68.294,2.92 C 68.332,2.808 68.378,2.677 68.434,2.527 C 68.489,2.377 68.559,2.197 68.643,1.986 L 69.103,0.812 C 69.155,0.674 69.231,0.567 69.333,0.489 C 69.434,0.412 69.567,0.373 69.73,0.371 C 69.897,0.371 70.052,0.418 70.196,0.513 C 70.339,0.607 70.457,0.75 70.55,0.943 L 72.276,4.593 L 71.015,4.593 L 70.364,3.147 C 70.259,2.919 70.167,2.712 70.09,2.526 C 70.012,2.341 69.944,2.167 69.885,2.004 C 69.857,2.096 69.826,2.194 69.791,2.298 C 69.757,2.402 69.716,2.522 69.669,2.659 C 69.622,2.795 69.566,2.958 69.5,3.147 L 69.128,4.196 C 69.081,4.331 69.026,4.432 68.964,4.499 C 68.902,4.566 68.831,4.61 68.749,4.632 C 68.668,4.653 68.575,4.663 68.47,4.661 C 68.367,4.663 68.273,4.653 68.186,4.63 C 68.099,4.608 68.013,4.563 67.928,4.496 C 67.843,4.429 67.752,4.329 67.656,4.196 L 66.911,3.153 C 66.782,2.974 66.67,2.816 66.576,2.678 C 66.482,2.541 66.399,2.418 66.327,2.309 C 66.256,2.2 66.19,2.098 66.129,2.004 C 66.122,2.169 66.112,2.343 66.098,2.526 C 66.083,2.71 66.067,2.916 66.048,3.147 L 65.911,4.593 L 64.632,4.593 L 65.036,0.943 C 65.049,0.814 65.085,0.708 65.142,0.623 C 65.199,0.539 65.272,0.476 65.36,0.434 C 65.449,0.392 65.548,0.371 65.657,0.371 C 65.824,0.373 65.972,0.413 66.101,0.492 Z M 63.354,0.998 C 63.926,1.416 64.211,2.052 64.21,2.904 C 64.21,3.504 63.984,3.948 63.532,4.234 C 63.081,4.521 62.406,4.663 61.509,4.661 C 60.346,4.663 59.478,4.455 58.906,4.038 C 58.334,3.621 58.049,2.987 58.05,2.135 C 58.051,1.534 58.277,1.09 58.728,0.801 C 59.179,0.513 59.854,0.37 60.751,0.372 C 61.914,0.37 62.782,0.579 63.354,0.998 Z M 103.628,0.998 C 104.2,1.416 104.485,2.052 104.484,2.904 C 104.484,3.504 104.258,3.948 103.806,4.234 C 103.355,4.521 102.68,4.663 101.783,4.661 C 100.62,4.663 99.752,4.455 99.18,4.038 C 98.608,3.621 98.323,2.987 98.324,2.135 C 98.325,1.534 98.551,1.09 99.002,0.801 C 99.453,0.513 100.128,0.37 101.025,0.372 C 102.188,0.37 103.056,0.579 103.628,0.998 Z M 3.094,0.44 L 5.528,3.197 L 6.081,2.098 C 6.114,2.031 6.15,1.96 6.188,1.886 C 6.226,1.813 6.263,1.742 6.299,1.674 C 6.335,1.606 6.368,1.546 6.398,1.496 C 6.296,1.502 6.18,1.505 6.049,1.507 C 5.918,1.508 5.788,1.508 5.659,1.508 L 4.622,1.508 L 3.653,0.44 L 8.484,0.44 L 6.553,4.196 C 6.508,4.284 6.452,4.363 6.386,4.432 C 6.32,4.502 6.24,4.558 6.146,4.599 C 6.052,4.64 5.942,4.66 5.814,4.661 C 5.68,4.66 5.557,4.638 5.446,4.595 C 5.335,4.551 5.235,4.494 5.145,4.424 C 5.054,4.354 4.973,4.278 4.901,4.196 L 1.573,0.44 L 3.094,0.44 Z M 12.636,0.56 C 12.925,0.64 13.191,0.752 13.433,0.897 C 13.675,1.042 13.886,1.214 14.064,1.412 C 14.243,1.611 14.382,1.83 14.48,2.069 C 14.578,2.308 14.628,2.562 14.63,2.83 C 14.628,3.092 14.577,3.33 14.474,3.545 C 14.372,3.761 14.225,3.946 14.034,4.103 C 13.843,4.259 13.615,4.379 13.349,4.464 C 13.082,4.549 12.785,4.592 12.456,4.593 L 10.494,4.593 L 9.482,3.513 L 12.264,3.513 C 12.474,3.511 12.659,3.473 12.818,3.397 C 12.977,3.322 13.101,3.218 13.19,3.086 C 13.279,2.954 13.324,2.802 13.326,2.631 C 13.324,2.465 13.288,2.313 13.215,2.176 C 13.143,2.039 13.042,1.92 12.913,1.821 C 12.785,1.721 12.635,1.644 12.464,1.59 C 12.293,1.536 12.108,1.509 11.91,1.508 L 10.42,1.508 L 10.687,3.029 L 9.401,3.029 L 8.942,0.44 L 11.724,0.44 C 12.043,0.441 12.347,0.481 12.636,0.56 Z M 20.893,0.44 L 23.327,3.197 L 23.88,2.098 C 23.913,2.031 23.949,1.96 23.987,1.886 C 24.025,1.813 24.062,1.742 24.098,1.674 C 24.134,1.606 24.167,1.546 24.197,1.496 C 24.095,1.502 23.979,1.505 23.848,1.507 C 23.717,1.508 23.587,1.508 23.458,1.508 L 22.421,1.508 L 21.452,0.44 L 26.283,0.44 L 24.352,4.196 C 24.307,4.284 24.251,4.363 24.185,4.432 C 24.119,4.502 24.039,4.558 23.945,4.599 C 23.851,4.64 23.741,4.66 23.613,4.661 C 23.479,4.66 23.356,4.638 23.245,4.595 C 23.134,4.551 23.034,4.494 22.944,4.424 C 22.853,4.354 22.772,4.278 22.7,4.196 L 19.372,0.44 L 20.893,0.44 Z M 36.874,0.44 L 37.886,1.508 L 34.974,1.508 C 34.764,1.509 34.579,1.545 34.422,1.616 C 34.264,1.686 34.141,1.786 34.053,1.913 C 33.965,2.041 33.92,2.192 33.918,2.364 C 33.92,2.53 33.957,2.682 34.031,2.821 C 34.105,2.961 34.207,3.082 34.337,3.185 C 34.467,3.288 34.616,3.369 34.785,3.426 C 34.955,3.483 35.136,3.512 35.328,3.513 L 37.414,3.513 L 38.433,4.593 L 35.52,4.593 C 35.201,4.592 34.897,4.556 34.609,4.483 C 34.321,4.41 34.056,4.305 33.815,4.169 C 33.574,4.033 33.365,3.869 33.188,3.679 C 33.01,3.488 32.873,3.274 32.775,3.037 C 32.678,2.8 32.628,2.545 32.627,2.271 C 32.628,2.008 32.68,1.765 32.782,1.543 C 32.884,1.32 33.031,1.127 33.221,0.962 C 33.411,0.797 33.638,0.67 33.903,0.578 C 34.167,0.487 34.462,0.441 34.788,0.44 L 36.874,0.44 Z M 42.145,0.44 L 43.163,1.508 L 39.624,1.508 L 39.723,2.072 L 42.281,2.072 L 43.175,3.016 L 39.891,3.016 L 39.978,3.513 L 42.666,3.513 L 43.691,4.593 L 38.885,4.593 L 38.146,0.44 L 42.145,0.44 Z M 47.106,0.56 C 47.395,0.64 47.661,0.752 47.903,0.897 C 48.145,1.042 48.356,1.214 48.534,1.412 C 48.713,1.611 48.852,1.83 48.95,2.069 C 49.048,2.308 49.098,2.562 49.1,2.83 C 49.098,3.092 49.047,3.33 48.944,3.545 C 48.842,3.761 48.695,3.946 48.504,4.103 C 48.313,4.259 48.085,4.379 47.819,4.464 C 47.552,4.549 47.255,4.592 46.926,4.593 L 44.964,4.593 L 43.952,3.513 L 46.734,3.513 C 46.944,3.511 47.129,3.473 47.288,3.397 C 47.447,3.322 47.571,3.218 47.66,3.086 C 47.749,2.954 47.794,2.802 47.796,2.631 C 47.794,2.465 47.758,2.313 47.685,2.176 C 47.613,2.039 47.512,1.92 47.383,1.821 C 47.255,1.721 47.105,1.644 46.934,1.59 C 46.763,1.536 46.578,1.509 46.38,1.508 L 44.89,1.508 L 45.157,3.029 L 43.871,3.029 L 43.412,0.44 L 46.194,0.44 C 46.513,0.441 46.817,0.481 47.106,0.56 Z M 52.991,0.44 L 53.178,1.502 L 55.351,1.502 C 55.712,1.503 56.037,1.547 56.325,1.632 C 56.613,1.717 56.858,1.838 57.062,1.994 C 57.265,2.15 57.421,2.335 57.529,2.549 C 57.637,2.763 57.691,3 57.692,3.258 C 57.691,3.525 57.622,3.758 57.485,3.957 C 57.348,4.157 57.146,4.312 56.881,4.424 C 56.615,4.535 56.289,4.591 55.904,4.593 L 53.296,4.593 L 52.253,3.513 L 55.829,3.513 C 56.01,3.511 56.147,3.475 56.241,3.405 C 56.334,3.334 56.381,3.238 56.382,3.116 C 56.381,3.007 56.352,2.912 56.294,2.829 C 56.237,2.746 56.154,2.682 56.047,2.635 C 55.94,2.588 55.811,2.564 55.662,2.563 L 52.085,2.563 L 51.712,0.44 L 52.991,0.44 Z M 76.025,0.44 L 77.043,1.508 L 73.504,1.508 L 73.603,2.072 L 76.161,2.072 L 77.055,3.016 L 73.771,3.016 L 73.858,3.513 L 76.546,3.513 L 77.571,4.593 L 72.765,4.593 L 72.026,0.44 L 76.025,0.44 Z M 78.565,0.44 L 78.757,1.539 L 80.732,1.539 L 81.464,0.44 L 83.184,0.44 L 82.557,1.247 C 82.444,1.391 82.351,1.505 82.276,1.59 C 82.202,1.675 82.136,1.743 82.079,1.793 C 82.348,1.847 82.583,1.948 82.783,2.095 C 82.983,2.241 83.139,2.421 83.251,2.634 C 83.362,2.847 83.419,3.08 83.42,3.333 C 83.419,3.531 83.381,3.702 83.306,3.845 C 83.232,3.989 83.13,4.109 83.002,4.205 C 82.874,4.302 82.728,4.379 82.565,4.435 C 82.402,4.492 82.231,4.533 82.052,4.557 C 81.873,4.582 81.696,4.594 81.52,4.593 L 78.85,4.593 L 77.82,3.513 L 81.433,3.513 C 81.634,3.513 81.789,3.479 81.899,3.41 C 82.009,3.342 82.065,3.24 82.067,3.103 C 82.065,2.991 82.027,2.895 81.954,2.814 C 81.881,2.734 81.785,2.672 81.664,2.629 C 81.543,2.586 81.411,2.564 81.266,2.563 L 77.652,2.563 L 77.279,0.44 L 78.565,0.44 Z M 90.832,0.642 C 91.133,0.775 91.351,0.957 91.487,1.19 C 91.623,1.422 91.691,1.69 91.688,1.992 C 91.687,2.303 91.57,2.538 91.337,2.697 C 91.104,2.856 90.761,2.936 90.31,2.936 L 88.05,2.936 C 87.916,2.936 87.817,2.954 87.751,2.991 C 87.685,3.028 87.652,3.089 87.652,3.172 C 87.651,3.294 87.691,3.382 87.77,3.435 C 87.85,3.488 87.976,3.514 88.149,3.513 L 91.03,3.513 L 92.049,4.593 L 88.441,4.593 C 88.078,4.592 87.768,4.554 87.511,4.48 C 87.253,4.406 87.043,4.302 86.881,4.168 C 86.719,4.034 86.6,3.877 86.524,3.697 C 86.448,3.518 86.41,3.322 86.411,3.11 C 86.41,2.908 86.458,2.732 86.555,2.583 C 86.652,2.434 86.801,2.318 87.003,2.236 C 87.205,2.153 87.463,2.111 87.776,2.11 L 90.043,2.11 C 90.173,2.11 90.271,2.09 90.336,2.049 C 90.402,2.008 90.434,1.946 90.434,1.862 C 90.435,1.741 90.396,1.652 90.316,1.594 C 90.236,1.536 90.11,1.508 89.937,1.508 L 86.79,1.508 L 85.777,0.44 L 89.646,0.44 C 90.136,0.442 90.531,0.51 90.832,0.642 Z M 93.265,0.44 L 93.452,1.502 L 95.625,1.502 C 95.986,1.503 96.311,1.547 96.599,1.632 C 96.887,1.717 97.132,1.838 97.336,1.994 C 97.539,2.15 97.695,2.335 97.803,2.549 C 97.911,2.763 97.965,3 97.966,3.258 C 97.965,3.525 97.896,3.758 97.759,3.957 C 97.622,4.157 97.42,4.312 97.155,4.424 C 96.889,4.535 96.563,4.591 96.178,4.593 L 93.57,4.593 L 92.527,3.513 L 96.103,3.513 C 96.284,3.511 96.421,3.475 96.515,3.405 C 96.608,3.334 96.655,3.238 96.656,3.116 C 96.655,3.007 96.626,2.912 96.568,2.829 C 96.511,2.746 96.428,2.682 96.321,2.635 C 96.214,2.588 96.085,2.564 95.936,2.563 L 92.359,2.563 L 91.986,0.44 L 93.265,0.44 Z M 105.999,0.44 L 106.191,1.539 L 108.166,1.539 L 108.898,0.44 L 110.618,0.44 L 109.991,1.247 C 109.878,1.391 109.785,1.505 109.71,1.59 C 109.636,1.675 109.57,1.743 109.513,1.793 C 109.782,1.847 110.017,1.948 110.217,2.095 C 110.417,2.241 110.573,2.421 110.685,2.634 C 110.796,2.847 110.853,3.08 110.854,3.333 C 110.853,3.531 110.815,3.702 110.74,3.845 C 110.666,3.989 110.564,4.109 110.436,4.205 C 110.308,4.302 110.162,4.379 109.999,4.435 C 109.836,4.492 109.665,4.533 109.486,4.557 C 109.307,4.582 109.13,4.594 108.954,4.593 L 106.284,4.593 L 105.254,3.513 L 108.867,3.513 C 109.068,3.513 109.223,3.479 109.333,3.41 C 109.443,3.342 109.499,3.24 109.501,3.103 C 109.499,2.991 109.461,2.895 109.388,2.814 C 109.315,2.734 109.219,2.672 109.098,2.629 C 108.977,2.586 108.845,2.564 108.7,2.563 L 105.086,2.563 L 104.713,0.44 L 105.999,0.44 Z M 113.921,0.44 L 114.467,3.513 L 115.945,3.513 L 116.976,4.593 L 112.257,4.593 L 111.226,3.513 L 113.176,3.513 L 112.635,0.44 L 113.921,0.44 Z M 121.44,0.642 C 121.741,0.775 121.959,0.957 122.095,1.19 C 122.231,1.422 122.299,1.69 122.296,1.992 C 122.295,2.303 122.178,2.538 121.945,2.697 C 121.712,2.856 121.369,2.936 120.918,2.936 L 118.658,2.936 C 118.524,2.936 118.425,2.954 118.359,2.991 C 118.293,3.028 118.26,3.089 118.26,3.172 C 118.259,3.294 118.299,3.382 118.378,3.435 C 118.458,3.488 118.584,3.514 118.757,3.513 L 121.638,3.513 L 122.657,4.593 L 119.049,4.593 C 118.686,4.592 118.376,4.554 118.119,4.48 C 117.861,4.406 117.651,4.302 117.489,4.168 C 117.327,4.034 117.208,3.877 117.132,3.697 C 117.056,3.518 117.018,3.322 117.019,3.11 C 117.018,2.908 117.066,2.732 117.163,2.583 C 117.26,2.434 117.409,2.318 117.611,2.236 C 117.813,2.153 118.071,2.111 118.384,2.11 L 120.651,2.11 C 120.781,2.11 120.879,2.09 120.944,2.049 C 121.01,2.008 121.042,1.946 121.042,1.862 C 121.043,1.741 121.004,1.652 120.924,1.594 C 120.844,1.536 120.718,1.508 120.545,1.508 L 117.398,1.508 L 116.385,0.44 L 120.254,0.44 C 120.744,0.442 121.139,0.51 121.44,0.642 Z M 60.027,1.512 C 59.792,1.555 59.618,1.635 59.507,1.752 C 59.396,1.869 59.341,2.038 59.342,2.259 C 59.34,2.472 59.355,2.654 59.387,2.806 C 59.418,2.958 59.474,3.085 59.556,3.185 C 59.637,3.286 59.752,3.365 59.9,3.423 C 60.048,3.481 60.238,3.522 60.47,3.546 C 60.701,3.57 60.984,3.582 61.316,3.581 C 61.692,3.583 61.998,3.563 62.234,3.521 C 62.47,3.478 62.644,3.398 62.754,3.281 C 62.865,3.164 62.92,2.995 62.918,2.774 C 62.92,2.562 62.905,2.381 62.873,2.229 C 62.841,2.077 62.784,1.951 62.702,1.85 C 62.62,1.749 62.505,1.67 62.356,1.612 C 62.208,1.553 62.017,1.512 61.785,1.488 C 61.553,1.463 61.27,1.451 60.938,1.452 C 60.566,1.449 60.263,1.47 60.027,1.512 Z M 100.301,1.512 C 100.066,1.555 99.892,1.635 99.781,1.752 C 99.67,1.869 99.615,2.038 99.616,2.259 C 99.614,2.472 99.629,2.654 99.661,2.806 C 99.692,2.958 99.748,3.085 99.83,3.185 C 99.911,3.286 100.026,3.365 100.174,3.423 C 100.322,3.481 100.512,3.522 100.744,3.546 C 100.975,3.57 101.258,3.582 101.59,3.581 C 101.966,3.583 102.272,3.563 102.508,3.521 C 102.744,3.478 102.918,3.398 103.028,3.281 C 103.139,3.164 103.194,2.995 103.192,2.774 C 103.194,2.562 103.179,2.381 103.147,2.229 C 103.115,2.077 103.058,1.951 102.976,1.85 C 102.894,1.749 102.779,1.67 102.63,1.612 C 102.482,1.553 102.291,1.512 102.059,1.488 C 101.827,1.463 101.544,1.451 101.212,1.452 C 100.84,1.449 100.537,1.47 100.301,1.512 Z" stroke-width="0.052" stroke="none" fill-rule="nonzero" stroke-linejoin="miter" fill="#e00000" marker-start="none" marker-end="none"/>
    <path d="M 3.245,9.346 L 18.533,8.188 L 29.13,8.188 L 48.571,26.78 L 51.417,18.361 L 43.074,18.345 L 35.391,11.152 L 53.843,11.152 L 54.762,8.188 L 65.391,8.188 C 65.391,8.188 58.011,29.739 56.603,33.486 C 55.194,37.235 52.492,36.757 49.085,36.462 C 45.679,36.167 25.761,35.373 25.761,35.373 L 46.473,34.441 L 34.732,23.292 L 14.368,22.349 L 32.792,21.515 L 20.865,10.119 L 3.245,9.346 Z" stroke="none" fill="#62859e" stroke-width="0.049" fill-rule="nonzero" stroke-linejoin="miter" marker-start="none" marker-end="none"/>
    <path d="M 66.437,8.188 L 68.89,8.188 L 71.374,15.372 C 71.374,15.372 83.365,15.152 89.359,15.546 C 95.356,15.941 98.443,18.97 98.443,18.97 C 98.443,18.97 94.234,19.726 93.719,24.147 C 93.719,24.147 92.293,22.713 90.216,22.577 C 88.137,22.44 65.196,22.573 65.196,22.573 L 63.532,17.758 C 63.404,17.393 63.404,16.995 63.532,16.631 L 66.437,8.188 Z" stroke="none" fill="#62859e" stroke-width="0.049" fill-rule="nonzero" stroke-linejoin="miter" marker-start="none" marker-end="none"/>
    <g id="Group_1" fill="#e00000" stroke="none" fill-rule="nonzero" stroke-linejoin="miter" stroke-width="0.049">
     <path d="M 67.323,28.894 C 67.323,28.894 88.147,28.961 90.025,28.932 C 91.903,28.901 95.264,29.355 94.628,25.299 C 93.993,21.242 98.777,19.302 101.744,19.515 C 101.744,19.515 116.762,19.544 117.672,19.498 C 118.581,19.453 121.396,19.408 120.17,17.092 C 118.943,14.776 118.852,15.368 95.415,15.366 L 87.602,8.19 C 87.602,8.19 110.176,8.099 112.811,8.19 C 115.445,8.281 122.552,8.509 125.71,12.096 C 128.867,15.684 131.478,21.953 125.846,24.222 C 125.846,24.222 123.802,25.336 114.855,25.041 C 105.907,24.745 102.433,24.405 103.295,27.106 C 104.156,29.809 103.362,35.963 93.916,36.17 C 84.469,36.375 75.497,36.17 75.497,36.17 L 67.323,28.894 Z" marker-start="none" marker-end="none"/>
    </g>
    <path d="M 101.819,34.804 C 101.819,34.804 105.014,32.701 104.408,28.476 C 104.408,28.476 105.483,28.961 108.163,28.899 C 110.844,28.838 126.378,28.915 126.378,28.915 L 134.463,36.197 C 134.463,36.197 116.15,36.122 111.064,36.259 C 105.975,36.395 101.819,34.804 101.819,34.804 Z" stroke="none" fill="#62859e" stroke-width="0.049" fill-rule="nonzero" stroke-linejoin="miter" marker-start="none" marker-end="none"/>
   </g>
  </g>
 </g>
</svg>
