<?xml version="1.0" standalone="no"?>
<!DOCTYPE svg PUBLIC "-//W3C//DTD SVG 1.1//EN" "http://www.w3.org/Graphics/SVG/1.1/DTD/svg11.dtd">
<!--Generator: Xara Designer (www.xara.com), SVG filter version: 5.0.0.2-->
<svg stroke-width="0.501" stroke-linejoin="bevel" fill-rule="evenodd" xmlns:xlink="http://www.w3.org/1999/xlink" xmlns="http://www.w3.org/2000/svg" version="1.1" overflow="visible" width="215.25pt" height="73.5pt" viewBox="0 0 215.25 73.5">
 <defs>
  <marker id="DefaultArrow2" markerUnits="strokeWidth" viewBox="0 0 1 1" markerWidth="1" markerHeight="1" overflow="visible" orient="auto">
   <!-- REF_ARROW_STRAIGHT (-2) -->
   <g transform="scale(0.0092592592)">
    <!-- 1/108 -->
    <path d="M -9 54 L -9 -54 L 117 0 z"/>
   </g>
  </marker>
  <marker id="DefaultArrow3" markerUnits="strokeWidth" viewBox="0 0 1 1" markerWidth="1" markerHeight="1" overflow="visible" orient="auto">
   <!-- REF_ARROW_ANGLED -->
   <g transform="scale(0.0092592592)">
    <path d="M -27 54 L -9 0 L -27 -54 L 135 0 z"/>
   </g>
  </marker>
  <marker id="DefaultArrow4" markerUnits="strokeWidth" viewBox="0 0 1 1" markerWidth="1" markerHeight="1" overflow="visible" orient="auto">
   <!-- REF_ARROW_ROUNDED -->
   <g transform="scale(0.0092592592)">
    <path d="M -9,0 L -9,-45 C -9,-51.708 2.808,-56.580 9,-54 L 117,-9 C 120.916,-7.369 126.000,-4.242 126,0 C 126,4.242 120.916,7.369 117,9 L 9,54 C 2.808,56.580 -9,51.708 -9,45 z"/>
   </g>
  </marker>
  <marker id="DefaultArrow5" markerUnits="strokeWidth" viewBox="0 0 1 1" markerWidth="1" markerHeight="1" overflow="visible" orient="auto">
   <!-- REF_ARROW_SPOT -->
   <g transform="scale(0.0092592592)">
    <path d="M -54, 0 C -54,29.807 -29.807,54 0,54 C 29.807,54 54,29.807 54,0 C 54,-29.807 29.807,-54 0,-54 C -29.807,-54 -54,-29.807 -54,0 z"/>
   </g>
  </marker>
  <marker id="DefaultArrow6" markerUnits="strokeWidth" viewBox="0 0 1 1" markerWidth="1" markerHeight="1" overflow="visible" orient="auto">
   <!-- REF_ARROW_DIAMOND -->
   <g transform="scale(0.0092592592)">
    <path d="M -63,0 L 0,63 L 63,0 L 0,-63 z"/>
   </g>
  </marker>
  <marker id="DefaultArrow7" markerUnits="strokeWidth" viewBox="0 0 1 1" markerWidth="1" markerHeight="1" overflow="visible" orient="auto">
   <!-- REF_ARROW_FEATHER -->
   <g transform="scale(0.0092592592)">
    <path d="M 18,-54 L 108,-54 L 63,0 L 108,54 L 18, 54 L -36,0 z"/>
   </g>
  </marker>
  <marker id="DefaultArrow8" markerUnits="strokeWidth" viewBox="0 0 1 1" markerWidth="1" markerHeight="1" overflow="visible" orient="auto">
   <!-- REF_ARROW_FEATHER2 -->
   <g transform="scale(0.0092592592)">
    <path d="M -36,0 L 18,-54 L 54,-54 L 18,-18 L 27,-18 L 63,-54 L 99,-54 L 63,-18 L 72,-18 L 108,-54 L 144,-54 L 90,0 L 144,54 L 108,54 L 72,18 L 63,18 L 99,54 L 63,54 L 27,18 L 18,18 L 54,54 L 18,54 z"/>
   </g>
  </marker>
  <marker id="DefaultArrow9" markerUnits="strokeWidth" viewBox="0 0 1 1" markerWidth="1" markerHeight="1" overflow="visible" orient="auto">
   <!-- REF_ARROW_HOLLOWDIAMOND -->
   <g transform="scale(0.0092592592)">
    <path d="M 0,45 L -45,0 L 0, -45 L 45, 0 z M 0, 63 L-63, 0 L 0, -63 L 63, 0 z"/>
   </g>
  </marker>
  <filter id="StainedFilter">
   <feBlend mode="multiply" in2="BackgroundImage" in="SourceGraphic" result="blend"/>
   <feComposite in="blend" in2="SourceAlpha" operator="in" result="comp"/>
  </filter>
  <filter id="BleachFilter">
   <feBlend mode="screen" in2="BackgroundImage" in="SourceGraphic" result="blend"/>
   <feComposite in="blend" in2="SourceAlpha" operator="in" result="comp"/>
  </filter>
  <filter id="InvertTransparencyBitmapFilter">
   <feComponentTransfer>
    <feFuncR type="gamma" amplitude="1.055" exponent=".416666666" offset="-0.055"/>
    <feFuncG type="gamma" amplitude="1.055" exponent=".416666666" offset="-0.055"/>
    <feFuncB type="gamma" amplitude="1.055" exponent=".416666666" offset="-0.055"/>
   </feComponentTransfer>
   <feComponentTransfer>
    <feFuncR type="linear" slope="-1" intercept="1"/>
    <feFuncG type="linear" slope="-1" intercept="1"/>
    <feFuncB type="linear" slope="-1" intercept="1"/>
    <feFuncA type="linear" slope="1" intercept="0"/>
   </feComponentTransfer>
   <feComponentTransfer>
    <feFuncR type="gamma" amplitude="1" exponent="2.4" offset="0"/>
    <feFuncG type="gamma" amplitude="1" exponent="2.4" offset="0"/>
    <feFuncB type="gamma" amplitude="1" exponent="2.4" offset="0"/>
   </feComponentTransfer>
  </filter>
 </defs>
 <g id="Document" fill="none" stroke="black" font-family="Times New Roman" font-size="16" transform="scale(1 -1)">
  <g id="Spread" transform="translate(0 -73.5)">
   <g id="Page background">
    <path d="M 0.001,73.499 L 0.001,0 L 215.248,0 L 215.248,73.499 L 0.001,73.499 Z" stroke-linejoin="bevel" stroke="none" stroke-width="0" marker-start="none" marker-end="none" stroke-miterlimit="79.8403193612775"/>
   </g>
   <g id="MouseOff">
    <g id="Group" font-size="35.429" font-weight="bold" font-family="Poppins" stroke-linejoin="miter" stroke="none" stroke-width="0.086" fill="#000000">
     <text xml:space="preserve" transform="translate(62.607 38.13) scale(1 -1)"><tspan x="0" y="0">L</tspan><tspan x="16.998" y="0">I</tspan><tspan x="27.543" y="0">F</tspan><tspan x="47.014" y="0">E</tspan><tspan x="0" y="30.563">C</tspan><tspan x="27.1" y="30.563">H</tspan><tspan x="53.093" y="30.563">U</tspan><tspan x="78.169" y="30.563">R</tspan><tspan x="101.36" y="30.563">C</tspan><tspan x="128.46" y="30.563">H</tspan></text>
    </g>
    <g id="Group_1" font-size="10.762" font-weight="bold" font-family="Poppins" stroke-linejoin="miter" stroke="none" stroke-width="0.086" fill="#8fa78f">
     <text xml:space="preserve" transform="translate(137.644 39.354) scale(1 -1)"><tspan x="0" y="0">o</tspan><tspan x="6.492" y="0">f</tspan><tspan x="9.999" y="0"> </tspan><tspan x="11.914" y="0">S</tspan><tspan x="18.169" y="0">a</tspan><tspan x="25.112" y="0">c</tspan><tspan x="31.257" y="0">r</tspan><tspan x="35.5" y="0">a</tspan><tspan x="42.443" y="0">m</tspan><tspan x="53.475" y="0">e</tspan><tspan x="59.741" y="0">n</tspan><tspan x="66.627" y="0">t</tspan><tspan x="70.628" y="0">o</tspan></text>
    </g>
    <path d="M 28.156,0 L 0,0 L 0,29.28 C 0,29.283 0,29.285 0,29.288 L 0,44.212 C 0,60.378 12.617,73.5 28.163,73.5 L 28.163,73.5 C 43.71,73.5 56.327,60.378 56.327,44.212 L 56.327,34.968 L 56.328,34.968 L 56.328,0 L 28.17,0 C 28.168,0 28.165,0 28.163,0 L 28.163,0 C 28.16,0 28.158,0 28.156,0 Z M 3.717,3.651 L 14.398,3.688 L 14.292,33.664 C 14.292,47.431 23.238,55.707 33.619,55.707 C 42.369,55.707 51.25,49.428 52.703,37.336 L 52.704,37.13 L 52.687,41.985 C 52.687,60.3 40.323,69.844 28.157,69.844 C 14.959,69.844 3.582,59.321 3.582,41.813 L 3.717,3.651 Z M 29.001,3.739 L 52.626,3.822 L 52.576,18.256 L 52.576,18.256 L 52.562,22.095 C 52.562,30.907 46.614,35.498 40.76,35.498 C 34.41,35.498 28.937,30.435 28.937,22.012 L 29.001,3.739 Z" fill="#8fa78f" stroke-linejoin="miter" stroke="none" stroke-linecap="round" stroke-width="0.126" marker-start="none" marker-end="none" stroke-miterlimit="79.8403193612775"/>
   </g>
  </g>
 </g>
</svg>
