<?xml version="1.0" standalone="no"?>
<!DOCTYPE svg PUBLIC "-//W3C//DTD SVG 1.1//EN" "http://www.w3.org/Graphics/SVG/1.1/DTD/svg11.dtd">
<!--Generator: Xara Designer (www.xara.com), SVG filter version: 5.0.0.2-->
<svg stroke-width="0.501" stroke-linejoin="bevel" fill-rule="evenodd" xmlns:xlink="http://www.w3.org/1999/xlink" xmlns="http://www.w3.org/2000/svg" version="1.1" overflow="visible" width="165pt" height="40.5pt" viewBox="0 0 165 40.5">
 <defs>
  <marker id="DefaultArrow2" markerUnits="strokeWidth" viewBox="0 0 1 1" markerWidth="1" markerHeight="1" overflow="visible" orient="auto">
   <!-- REF_ARROW_STRAIGHT (-2) -->
   <g transform="scale(0.0092592592)">
    <!-- 1/108 -->
    <path d="M -9 54 L -9 -54 L 117 0 z"/>
   </g>
  </marker>
  <marker id="DefaultArrow3" markerUnits="strokeWidth" viewBox="0 0 1 1" markerWidth="1" markerHeight="1" overflow="visible" orient="auto">
   <!-- REF_ARROW_ANGLED -->
   <g transform="scale(0.0092592592)">
    <path d="M -27 54 L -9 0 L -27 -54 L 135 0 z"/>
   </g>
  </marker>
  <marker id="DefaultArrow4" markerUnits="strokeWidth" viewBox="0 0 1 1" markerWidth="1" markerHeight="1" overflow="visible" orient="auto">
   <!-- REF_ARROW_ROUNDED -->
   <g transform="scale(0.0092592592)">
    <path d="M -9,0 L -9,-45 C -9,-51.708 2.808,-56.580 9,-54 L 117,-9 C 120.916,-7.369 126.000,-4.242 126,0 C 126,4.242 120.916,7.369 117,9 L 9,54 C 2.808,56.580 -9,51.708 -9,45 z"/>
   </g>
  </marker>
  <marker id="DefaultArrow5" markerUnits="strokeWidth" viewBox="0 0 1 1" markerWidth="1" markerHeight="1" overflow="visible" orient="auto">
   <!-- REF_ARROW_SPOT -->
   <g transform="scale(0.0092592592)">
    <path d="M -54, 0 C -54,29.807 -29.807,54 0,54 C 29.807,54 54,29.807 54,0 C 54,-29.807 29.807,-54 0,-54 C -29.807,-54 -54,-29.807 -54,0 z"/>
   </g>
  </marker>
  <marker id="DefaultArrow6" markerUnits="strokeWidth" viewBox="0 0 1 1" markerWidth="1" markerHeight="1" overflow="visible" orient="auto">
   <!-- REF_ARROW_DIAMOND -->
   <g transform="scale(0.0092592592)">
    <path d="M -63,0 L 0,63 L 63,0 L 0,-63 z"/>
   </g>
  </marker>
  <marker id="DefaultArrow7" markerUnits="strokeWidth" viewBox="0 0 1 1" markerWidth="1" markerHeight="1" overflow="visible" orient="auto">
   <!-- REF_ARROW_FEATHER -->
   <g transform="scale(0.0092592592)">
    <path d="M 18,-54 L 108,-54 L 63,0 L 108,54 L 18, 54 L -36,0 z"/>
   </g>
  </marker>
  <marker id="DefaultArrow8" markerUnits="strokeWidth" viewBox="0 0 1 1" markerWidth="1" markerHeight="1" overflow="visible" orient="auto">
   <!-- REF_ARROW_FEATHER2 -->
   <g transform="scale(0.0092592592)">
    <path d="M -36,0 L 18,-54 L 54,-54 L 18,-18 L 27,-18 L 63,-54 L 99,-54 L 63,-18 L 72,-18 L 108,-54 L 144,-54 L 90,0 L 144,54 L 108,54 L 72,18 L 63,18 L 99,54 L 63,54 L 27,18 L 18,18 L 54,54 L 18,54 z"/>
   </g>
  </marker>
  <marker id="DefaultArrow9" markerUnits="strokeWidth" viewBox="0 0 1 1" markerWidth="1" markerHeight="1" overflow="visible" orient="auto">
   <!-- REF_ARROW_HOLLOWDIAMOND -->
   <g transform="scale(0.0092592592)">
    <path d="M 0,45 L -45,0 L 0, -45 L 45, 0 z M 0, 63 L-63, 0 L 0, -63 L 63, 0 z"/>
   </g>
  </marker>
  <filter id="StainedFilter">
   <feBlend mode="multiply" in2="BackgroundImage" in="SourceGraphic" result="blend"/>
   <feComposite in="blend" in2="SourceAlpha" operator="in" result="comp"/>
  </filter>
  <filter id="BleachFilter">
   <feBlend mode="screen" in2="BackgroundImage" in="SourceGraphic" result="blend"/>
   <feComposite in="blend" in2="SourceAlpha" operator="in" result="comp"/>
  </filter>
  <filter id="InvertTransparencyBitmapFilter">
   <feComponentTransfer>
    <feFuncR type="gamma" amplitude="1.055" exponent=".416666666" offset="-0.055"/>
    <feFuncG type="gamma" amplitude="1.055" exponent=".416666666" offset="-0.055"/>
    <feFuncB type="gamma" amplitude="1.055" exponent=".416666666" offset="-0.055"/>
   </feComponentTransfer>
   <feComponentTransfer>
    <feFuncR type="linear" slope="-1" intercept="1"/>
    <feFuncG type="linear" slope="-1" intercept="1"/>
    <feFuncB type="linear" slope="-1" intercept="1"/>
    <feFuncA type="linear" slope="1" intercept="0"/>
   </feComponentTransfer>
   <feComponentTransfer>
    <feFuncR type="gamma" amplitude="1" exponent="2.4" offset="0"/>
    <feFuncG type="gamma" amplitude="1" exponent="2.4" offset="0"/>
    <feFuncB type="gamma" amplitude="1" exponent="2.4" offset="0"/>
   </feComponentTransfer>
  </filter>
 </defs>
 <g id="Document" fill="none" stroke="black" font-family="Times New Roman" font-size="16" transform="scale(1 -1)">
  <g id="Spread" transform="translate(0 -40.5)">
   <g id="Page background">
    <path d="M 0.002,40.499 L 0.002,0 L 164.997,0 L 164.997,40.499 L 0.002,40.499 Z" stroke-linejoin="bevel" stroke="none" stroke-width="0" marker-start="none" marker-end="none" stroke-miterlimit="79.8403193612775"/>
   </g>
   <g id="MouseOff">
    <g id="Group" stroke-linecap="round">
     <path d="M 5.991,34.509 C 13.779,42.297 26.422,42.297 34.21,34.509 C 41.998,26.721 41.998,14.079 34.21,6.291 C 26.422,-1.497 13.779,-1.497 5.991,6.291 C -1.797,14.079 -1.797,26.721 5.991,34.509 Z" fill="#6e5e45" stroke="none" stroke-width="0.181" stroke-linejoin="round" marker-start="none" marker-end="none" stroke-miterlimit="79.8403193612775"/>
     <path d="M 8.31,32.19 C 14.818,38.698 25.383,38.698 31.891,32.19 C 38.399,25.682 38.399,15.118 31.891,8.61 C 25.383,2.102 14.818,2.102 8.31,8.61 C 1.803,15.118 1.803,25.682 8.31,32.19 Z" stroke-width="0.842" stroke="#ffffff" stroke-linejoin="round" marker-start="none" marker-end="none" stroke-miterlimit="79.8403193612775"/>
     <path d="M 11.293,8.81 L 11.293,23.064 C 11.293,23.13 11.298,23.196 11.307,23.26 L 10.444,23.254 C 9.544,23.251 9.295,23.796 9.887,24.472 L 12.766,27.76 C 12.817,27.819 12.87,27.881 12.926,27.943 C 12.91,28 12.901,28.06 12.901,28.123 L 12.901,31.53 C 12.901,31.901 13.203,32.202 13.573,32.202 L 14.788,32.202 C 15.159,32.202 15.46,31.901 15.46,31.53 L 15.46,30.837 C 15.628,31.028 15.786,31.209 15.93,31.373 L 18.807,34.661 C 19.401,35.338 20.372,35.346 20.977,34.68 L 23.952,31.401 C 24.843,30.42 26.29,28.828 27.18,27.845 L 30.156,24.567 C 30.761,23.902 30.521,23.356 29.622,23.352 L 28.731,23.347 L 28.733,23.347 C 28.753,23.256 28.764,23.162 28.764,23.064 L 28.764,8.81 C 28.764,8.084 28.174,7.494 27.448,7.494 L 22.694,7.494 L 22.694,14.098 C 22.694,14.662 22.236,15.119 21.672,15.119 L 18.734,15.119 C 18.171,15.119 17.714,14.662 17.714,14.098 L 17.714,7.494 L 12.609,7.494 C 11.883,7.494 11.293,8.084 11.293,8.81 Z M 18.045,7.494 L 18.045,13.818 C 18.045,14.36 18.443,14.801 18.931,14.801 L 21.477,14.801 C 21.966,14.801 22.361,14.36 22.361,13.818 L 22.361,7.494 L 22.023,7.494 L 22.023,13.639 C 22.023,14.053 21.687,14.387 21.275,14.387 L 19.12,14.387 C 18.706,14.387 18.372,14.053 18.372,13.639 L 18.372,7.494 L 18.045,7.494 Z M 18.615,7.494 L 18.615,13.434 C 18.615,13.831 18.905,14.155 19.263,14.155 L 21.131,14.155 C 21.488,14.155 21.78,13.831 21.78,13.434 L 21.78,7.494 L 18.615,7.494 Z M 14.583,10.297 L 14.583,12.099 L 13.121,12.099 L 13.121,10.876 C 13.121,10.522 13.408,10.235 13.762,10.235 L 14.584,10.235 C 14.583,10.255 14.583,10.276 14.583,10.297 Z M 16.556,10.876 L 16.556,12.099 L 15.094,12.099 L 15.094,10.297 C 15.094,10.276 15.094,10.255 15.093,10.235 L 15.915,10.235 C 16.269,10.235 16.556,10.522 16.556,10.876 Z M 25.275,10.297 L 25.275,12.099 L 23.813,12.099 L 23.813,10.876 C 23.813,10.522 24.1,10.235 24.453,10.235 L 25.275,10.235 C 25.275,10.255 25.275,10.276 25.275,10.297 Z M 27.248,10.876 L 27.248,12.099 L 25.786,12.099 L 25.786,10.297 C 25.786,10.276 25.786,10.255 25.785,10.235 L 26.607,10.235 C 26.961,10.235 27.248,10.522 27.248,10.876 Z M 19.618,11.482 C 19.77,11.634 19.77,11.882 19.618,12.034 C 19.466,12.186 19.219,12.186 19.067,12.034 C 18.915,11.882 18.915,11.634 19.067,11.482 C 19.219,11.33 19.466,11.33 19.618,11.482 Z M 14.583,12.61 L 14.583,14.413 C 14.583,14.433 14.583,14.453 14.584,14.475 L 13.762,14.475 C 13.408,14.475 13.121,14.188 13.121,13.834 L 13.121,12.61 L 14.583,12.61 Z M 16.556,12.61 L 16.556,13.834 C 16.556,14.188 16.269,14.475 15.915,14.475 L 15.093,14.475 C 15.094,14.453 15.094,14.433 15.094,14.413 L 15.094,12.61 L 16.556,12.61 Z M 25.275,12.61 L 25.275,14.413 C 25.275,14.433 25.275,14.453 25.275,14.475 L 24.453,14.475 C 24.1,14.475 23.813,14.188 23.813,13.834 L 23.813,12.61 L 25.275,12.61 Z M 27.248,12.61 L 27.248,13.834 C 27.248,14.188 26.961,14.475 26.607,14.475 L 25.785,14.475 C 25.786,14.453 25.786,14.433 25.786,14.413 L 25.786,12.61 L 27.248,12.61 Z M 14.617,15.041 C 14.676,15.623 14.485,16.04 14.187,16.219 C 13.975,16.347 13.727,16.34 13.516,16.201 C 13.421,16.265 13.29,16.26 13.2,16.182 C 13.091,16.088 13.08,15.922 13.174,15.814 C 13.268,15.706 13.433,15.695 13.541,15.789 C 13.616,15.852 13.644,15.95 13.625,16.039 C 13.778,16.14 13.947,16.135 14.087,16.052 C 14.297,15.926 14.478,15.598 14.423,15.061 C 14.418,15.008 14.457,14.96 14.511,14.955 C 14.564,14.95 14.612,14.988 14.617,15.041 Z M 25.289,15.041 C 25.348,15.623 25.157,16.04 24.86,16.219 C 24.648,16.347 24.4,16.34 24.187,16.201 C 24.093,16.265 23.962,16.26 23.872,16.182 C 23.763,16.088 23.752,15.922 23.846,15.814 C 23.94,15.706 24.104,15.695 24.213,15.789 C 24.287,15.852 24.316,15.95 24.297,16.039 C 24.45,16.14 24.619,16.135 24.759,16.052 C 24.969,15.926 25.149,15.598 25.095,15.061 C 25.09,15.008 25.129,14.96 25.182,14.955 C 25.236,14.95 25.283,14.988 25.289,15.041 Z M 15.216,15.076 C 15.162,15.613 15.343,15.941 15.552,16.066 C 15.693,16.15 15.861,16.154 16.015,16.054 C 15.996,15.965 16.024,15.867 16.099,15.803 C 16.207,15.71 16.372,15.72 16.466,15.829 C 16.56,15.937 16.548,16.102 16.44,16.197 C 16.35,16.275 16.219,16.28 16.124,16.216 C 15.913,16.355 15.664,16.361 15.451,16.234 C 15.155,16.055 14.963,15.638 15.022,15.057 C 15.028,15.003 15.076,14.965 15.129,14.97 C 15.182,14.975 15.222,15.023 15.216,15.076 Z M 25.888,15.076 C 25.834,15.613 26.015,15.941 26.224,16.066 C 26.365,16.15 26.534,16.154 26.687,16.054 C 26.667,15.965 26.696,15.867 26.771,15.803 C 26.879,15.71 27.044,15.72 27.138,15.829 C 27.232,15.937 27.22,16.102 27.112,16.197 C 27.021,16.275 26.891,16.28 26.795,16.216 C 26.585,16.355 26.336,16.361 26.124,16.234 C 25.828,16.055 25.635,15.638 25.695,15.057 C 25.7,15.003 25.747,14.965 25.801,14.97 C 25.855,14.975 25.894,15.023 25.888,15.076 Z M 20.001,15.495 C 20.06,16.077 19.868,16.493 19.572,16.672 C 19.36,16.799 19.111,16.793 18.9,16.654 C 18.805,16.719 18.675,16.713 18.584,16.635 C 18.476,16.541 18.464,16.375 18.558,16.268 C 18.652,16.16 18.817,16.148 18.925,16.241 C 19,16.306 19.028,16.403 19.009,16.492 C 19.162,16.593 19.331,16.589 19.472,16.504 C 19.681,16.378 19.862,16.051 19.808,15.514 C 19.802,15.461 19.841,15.413 19.895,15.408 C 19.948,15.403 19.996,15.441 20.001,15.495 Z M 20.601,15.529 C 20.547,16.066 20.727,16.393 20.937,16.52 C 21.076,16.603 21.245,16.607 21.399,16.507 C 21.38,16.418 21.409,16.32 21.483,16.257 C 21.59,16.163 21.756,16.174 21.85,16.283 C 21.943,16.39 21.933,16.556 21.824,16.65 C 21.733,16.728 21.603,16.734 21.507,16.669 C 21.296,16.808 21.048,16.814 20.836,16.687 C 20.539,16.509 20.348,16.09 20.407,15.51 C 20.412,15.456 20.459,15.418 20.514,15.423 C 20.567,15.428 20.606,15.476 20.601,15.529 Z M 19.948,17.279 L 19.948,19.081 L 18.485,19.081 L 18.485,17.858 C 18.485,17.504 18.773,17.217 19.127,17.217 L 19.949,17.217 C 19.948,17.237 19.948,17.258 19.948,17.279 Z M 21.921,17.858 L 21.921,19.081 L 20.459,19.081 L 20.459,17.279 C 20.459,17.258 20.458,17.237 20.458,17.217 L 21.28,17.217 C 21.634,17.217 21.921,17.504 21.921,17.858 Z M 25.275,17.279 L 25.275,19.081 L 23.813,19.081 L 23.813,17.858 C 23.813,17.504 24.1,17.217 24.453,17.217 L 25.275,17.217 C 25.275,17.237 25.275,17.258 25.275,17.279 Z M 27.248,17.858 L 27.248,19.081 L 25.786,19.081 L 25.786,17.279 C 25.786,17.258 25.786,17.237 25.785,17.217 L 26.607,17.217 C 26.961,17.217 27.248,17.504 27.248,17.858 Z M 14.583,17.352 L 14.583,19.154 L 13.12,19.154 L 13.12,17.931 C 13.12,17.577 13.408,17.291 13.761,17.291 L 14.583,17.291 C 14.583,17.31 14.583,17.331 14.583,17.352 Z M 16.556,17.931 L 16.556,19.154 L 15.094,19.154 L 15.094,17.352 C 15.094,17.331 15.093,17.31 15.093,17.291 L 15.915,17.291 C 16.269,17.291 16.556,17.577 16.556,17.931 Z M 19.948,19.593 L 19.948,21.395 C 19.948,21.415 19.948,21.436 19.949,21.457 L 19.127,21.457 C 18.773,21.457 18.485,21.17 18.485,20.816 L 18.485,19.593 L 19.948,19.593 Z M 21.921,19.593 L 21.921,20.816 C 21.921,21.17 21.634,21.457 21.28,21.457 L 20.458,21.457 C 20.458,21.436 20.459,21.415 20.459,21.395 L 20.459,19.593 L 21.921,19.593 Z M 25.275,19.593 L 25.275,21.395 C 25.275,21.415 25.275,21.436 25.275,21.457 L 24.453,21.457 C 24.1,21.457 23.813,21.17 23.813,20.816 L 23.813,19.593 L 25.275,19.593 Z M 27.248,19.593 L 27.248,20.816 C 27.248,21.17 26.961,21.457 26.607,21.457 L 25.785,21.457 C 25.786,21.436 25.786,21.415 25.786,21.395 L 25.786,19.593 L 27.248,19.593 Z M 14.583,19.665 L 14.583,21.467 C 14.583,21.489 14.583,21.509 14.583,21.53 L 13.761,21.53 C 13.408,21.53 13.12,21.243 13.12,20.889 L 13.12,19.665 L 14.583,19.665 Z M 16.556,19.665 L 16.556,20.889 C 16.556,21.243 16.269,21.53 15.915,21.53 L 15.093,21.53 C 15.093,21.509 15.094,21.489 15.094,21.467 L 15.094,19.665 L 16.556,19.665 Z M 14.617,21.981 C 14.676,22.562 14.485,22.98 14.187,23.159 C 13.975,23.285 13.727,23.28 13.516,23.14 C 13.421,23.204 13.29,23.199 13.2,23.121 C 13.091,23.027 13.08,22.862 13.174,22.754 C 13.268,22.645 13.433,22.634 13.541,22.728 C 13.616,22.792 13.644,22.89 13.625,22.979 C 13.778,23.079 13.947,23.075 14.087,22.991 C 14.297,22.865 14.478,22.537 14.423,22.001 C 14.418,21.947 14.457,21.9 14.511,21.894 C 14.564,21.888 14.612,21.928 14.617,21.981 Z M 20.001,21.981 C 20.06,22.562 19.868,22.98 19.572,23.159 C 19.36,23.285 19.111,23.28 18.9,23.14 C 18.805,23.204 18.675,23.199 18.584,23.121 C 18.476,23.027 18.464,22.862 18.558,22.754 C 18.652,22.645 18.817,22.634 18.925,22.728 C 19,22.792 19.028,22.89 19.009,22.979 C 19.162,23.079 19.331,23.075 19.472,22.991 C 19.681,22.865 19.862,22.537 19.808,22.001 C 19.802,21.947 19.841,21.9 19.895,21.894 C 19.948,21.888 19.996,21.928 20.001,21.981 Z M 25.289,21.981 C 25.348,22.562 25.157,22.98 24.86,23.159 C 24.648,23.285 24.4,23.28 24.187,23.14 C 24.093,23.204 23.962,23.199 23.872,23.121 C 23.763,23.027 23.752,22.862 23.846,22.754 C 23.94,22.645 24.104,22.634 24.213,22.728 C 24.287,22.792 24.316,22.89 24.297,22.979 C 24.45,23.079 24.619,23.075 24.759,22.991 C 24.969,22.865 25.149,22.537 25.095,22.001 C 25.09,21.947 25.129,21.9 25.182,21.894 C 25.236,21.888 25.283,21.928 25.289,21.981 Z M 15.216,22.016 C 15.162,22.553 15.343,22.88 15.552,23.005 C 15.693,23.089 15.861,23.094 16.015,22.994 C 15.996,22.904 16.024,22.807 16.099,22.743 C 16.207,22.649 16.372,22.66 16.466,22.768 C 16.56,22.877 16.548,23.042 16.44,23.136 C 16.35,23.215 16.219,23.219 16.124,23.155 C 15.913,23.295 15.664,23.301 15.451,23.173 C 15.155,22.995 14.963,22.577 15.022,21.996 C 15.028,21.942 15.076,21.904 15.129,21.909 C 15.182,21.915 15.222,21.963 15.216,22.016 Z M 20.601,22.016 C 20.547,22.553 20.727,22.88 20.937,23.005 C 21.076,23.089 21.245,23.094 21.399,22.994 C 21.38,22.904 21.409,22.807 21.483,22.743 C 21.59,22.649 21.756,22.66 21.85,22.768 C 21.943,22.877 21.933,23.042 21.824,23.136 C 21.733,23.215 21.603,23.219 21.507,23.155 C 21.296,23.295 21.048,23.301 20.836,23.173 C 20.539,22.995 20.348,22.577 20.407,21.996 C 20.412,21.942 20.459,21.904 20.514,21.909 C 20.567,21.915 20.606,21.963 20.601,22.016 Z M 25.888,22.016 C 25.834,22.553 26.015,22.88 26.224,23.005 C 26.365,23.089 26.534,23.094 26.687,22.994 C 26.667,22.904 26.696,22.807 26.771,22.743 C 26.879,22.649 27.044,22.66 27.138,22.768 C 27.232,22.877 27.22,23.042 27.112,23.136 C 27.021,23.215 26.891,23.219 26.795,23.155 C 26.585,23.295 26.336,23.301 26.124,23.173 C 25.828,22.995 25.635,22.577 25.695,21.996 C 25.7,21.942 25.747,21.904 25.801,21.909 C 25.855,21.915 25.894,21.963 25.888,22.016 Z M 17.931,24.619 C 17.936,24.672 17.894,24.719 17.84,24.722 C 17.335,24.757 17.141,25.017 17.151,25.31 C 17.163,25.625 17.411,26.023 17.902,26.315 C 17.975,26.358 17.961,26.469 17.878,26.492 L 17.194,26.685 L 17.876,26.852 C 17.954,26.871 17.976,26.972 17.913,27.022 C 17.192,27.602 17.024,28.027 17.09,28.266 C 17.152,28.499 17.464,28.645 17.931,28.599 C 17.986,28.594 18.033,28.633 18.039,28.687 C 18.044,28.741 18.005,28.788 17.951,28.794 C 17.456,28.842 17.004,28.695 16.901,28.319 C 16.813,27.996 17.008,27.573 17.541,27.084 L 17.642,26.995 L 16.788,26.786 C 16.691,26.762 16.689,26.624 16.784,26.596 L 17.619,26.361 C 17.204,26.059 16.969,25.671 16.957,25.318 C 16.941,24.897 17.244,24.568 17.827,24.529 C 17.881,24.525 17.927,24.565 17.931,24.619 Z M 23.293,25.318 C 23.28,25.671 23.045,26.059 22.631,26.36 L 23.465,26.596 C 23.561,26.624 23.558,26.762 23.461,26.786 L 22.607,26.995 L 22.708,27.084 C 23.242,27.574 23.436,27.995 23.349,28.319 C 23.246,28.693 22.797,28.842 22.298,28.794 C 22.245,28.788 22.206,28.741 22.211,28.687 C 22.217,28.633 22.263,28.594 22.318,28.599 C 22.782,28.644 23.098,28.497 23.159,28.266 C 23.226,28.026 23.058,27.604 22.336,27.022 C 22.273,26.972 22.295,26.871 22.374,26.852 L 23.055,26.685 L 22.371,26.492 C 22.289,26.469 22.274,26.358 22.347,26.315 C 22.838,26.023 23.087,25.625 23.098,25.311 C 23.109,25.015 22.912,24.757 22.408,24.722 C 22.355,24.719 22.314,24.672 22.318,24.619 C 22.322,24.565 22.367,24.525 22.422,24.529 C 23.003,24.568 23.308,24.894 23.293,25.318 Z M 19.949,24.699 L 19.949,26.501 L 18.486,26.501 L 18.486,25.277 C 18.486,24.924 18.773,24.636 19.127,24.636 L 19.949,24.636 C 19.949,24.656 19.949,24.678 19.949,24.699 Z M 21.921,25.277 L 21.921,26.501 L 20.459,26.501 L 20.459,24.699 C 20.459,24.678 20.459,24.656 20.458,24.636 L 21.281,24.636 C 21.634,24.636 21.921,24.924 21.921,25.277 Z M 19.949,27.012 L 19.949,28.815 C 19.949,28.835 19.949,28.855 19.949,28.877 L 19.127,28.877 C 18.773,28.877 18.486,28.589 18.486,28.236 L 18.486,27.012 L 19.949,27.012 Z M 21.921,27.012 L 21.921,28.236 C 21.921,28.589 21.634,28.877 21.281,28.877 L 20.458,28.877 C 20.459,28.855 20.459,28.835 20.459,28.815 L 20.459,27.012 L 21.921,27.012 Z M 20.001,29.438 C 20.06,30.019 19.868,30.437 19.572,30.615 C 19.36,30.743 19.111,30.736 18.9,30.598 C 18.805,30.661 18.675,30.657 18.584,30.579 C 18.476,30.484 18.464,30.319 18.558,30.211 C 18.652,30.102 18.817,30.092 18.925,30.185 C 19,30.249 19.028,30.347 19.009,30.436 C 19.162,30.536 19.331,30.532 19.472,30.448 C 19.681,30.322 19.862,29.995 19.808,29.458 C 19.802,29.405 19.841,29.357 19.895,29.352 C 19.948,29.346 19.996,29.385 20.001,29.438 Z M 20.601,29.473 C 20.547,30.009 20.727,30.336 20.937,30.463 C 21.076,30.547 21.245,30.551 21.399,30.451 C 21.38,30.361 21.409,30.264 21.483,30.2 C 21.59,30.107 21.756,30.117 21.85,30.226 C 21.943,30.334 21.933,30.499 21.824,30.593 C 21.733,30.671 21.603,30.676 21.507,30.613 C 21.296,30.751 21.048,30.757 20.836,30.63 C 20.539,30.452 20.348,30.034 20.407,29.453 C 20.412,29.4 20.459,29.36 20.514,29.366 C 20.567,29.372 20.606,29.419 20.601,29.473 Z" fill="#ffffff" stroke-linejoin="miter" stroke-width="0.174" stroke="none" marker-start="none" marker-end="none" stroke-miterlimit="79.8403193612775"/>
     <path d="M 8.189,17.71 L 8.164,17.735 C 4.685,20.395 6.469,21.535 8.194,20.571 L 8.194,20.565 L 8.194,20.566 C 9.909,21.497 11.645,20.354 8.189,17.71 Z" fill="#ffffff" stroke="none" stroke-linejoin="round" stroke-width="0.195" marker-start="none" marker-end="none" stroke-miterlimit="79.8403193612775"/>
     <path d="M 31.803,17.71 L 31.78,17.735 C 28.299,20.395 30.083,21.535 31.808,20.571 L 31.808,20.565 L 31.808,20.566 C 33.523,21.497 35.26,20.354 31.803,17.71 Z" fill="#ffffff" stroke="none" stroke-linejoin="round" stroke-width="0.195" marker-start="none" marker-end="none" stroke-miterlimit="79.8403193612775"/>
    </g>
    <g id="Group_1" fill-rule="nonzero" stroke-linejoin="round" stroke-linecap="round" stroke="none" stroke-width="0.621" fill="#504432" stroke-miterlimit="79.8403193612775">
     <g id="Group_2">
      <path d="M 57.913,20.934 C 57.731,19.164 57.458,17.55 57.094,16.094 C 57.839,16.392 58.451,16.743 58.931,17.149 C 59.411,17.554 59.808,18.005 60.123,18.502 C 60.139,18.551 60.181,18.609 60.247,18.675 C 60.28,18.708 60.33,18.746 60.396,18.787 C 60.462,18.828 60.537,18.849 60.619,18.849 C 60.768,18.849 60.892,18.8 60.992,18.7 C 61.091,18.601 61.141,18.485 61.141,18.353 C 61.141,18.253 61.108,18.138 61.041,18.005 C 61.008,17.939 60.975,17.873 60.942,17.807 C 60.545,17.178 60.011,16.603 59.341,16.081 C 58.671,15.56 57.773,15.076 56.647,14.629 C 56.3,13.586 55.89,12.647 55.419,11.811 C 54.947,10.976 54.434,10.268 53.879,9.689 C 53.325,9.11 52.733,8.663 52.104,8.348 C 51.476,8.034 50.822,7.877 50.143,7.877 C 49.498,7.877 48.91,7.976 48.381,8.175 C 47.851,8.373 47.396,8.634 47.015,8.957 C 46.635,9.279 46.341,9.639 46.134,10.036 C 45.927,10.434 45.824,10.831 45.824,11.228 C 45.824,11.873 46.035,12.42 46.457,12.866 C 46.879,13.313 47.442,13.69 48.145,13.996 C 48.848,14.302 49.655,14.546 50.565,14.728 C 51.476,14.91 52.411,15.068 53.37,15.2 L 54.363,15.349 C 54.595,15.912 54.79,16.478 54.947,17.049 C 55.104,17.62 55.216,18.195 55.282,18.775 C 54.868,18.377 54.421,18.03 53.941,17.732 C 53.528,17.467 53.06,17.231 52.539,17.025 C 52.018,16.818 51.492,16.714 50.962,16.714 C 50.317,16.714 49.73,16.814 49.2,17.012 C 48.67,17.211 48.211,17.496 47.822,17.869 C 47.433,18.241 47.131,18.688 46.916,19.209 C 46.701,19.73 46.593,20.322 46.593,20.984 C 46.593,21.812 46.717,22.623 46.966,23.417 C 46.337,23.549 45.758,23.723 45.228,23.938 C 44.698,24.153 44.243,24.414 43.863,24.72 C 43.482,25.026 43.18,25.37 42.957,25.75 C 42.733,26.131 42.621,26.553 42.621,27.016 C 42.621,27.712 42.82,28.357 43.217,28.953 C 43.614,29.549 44.086,30.062 44.632,30.492 C 45.178,30.922 45.733,31.262 46.295,31.51 C 46.858,31.758 47.313,31.882 47.661,31.882 C 47.942,31.882 48.083,31.791 48.083,31.609 C 48.083,31.493 48.037,31.394 47.946,31.311 C 47.855,31.228 47.744,31.137 47.611,31.038 C 47.446,30.906 47.251,30.748 47.028,30.566 C 46.804,30.384 46.593,30.157 46.395,29.884 C 46.196,29.611 46.031,29.288 45.898,28.916 C 45.766,28.543 45.7,28.101 45.7,27.587 C 45.7,27.074 45.857,26.586 46.171,26.123 C 46.486,25.659 46.957,25.287 47.586,25.006 C 48.083,26.081 48.728,27.099 49.523,28.059 C 50.317,29.019 51.173,29.859 52.092,30.579 C 53.011,31.299 53.941,31.87 54.885,32.292 C 55.828,32.714 56.697,32.925 57.491,32.925 C 57.988,32.925 58.447,32.838 58.869,32.664 C 59.291,32.49 59.655,32.259 59.961,31.969 C 60.268,31.679 60.503,31.357 60.669,31.001 C 60.834,30.645 60.917,30.293 60.917,29.946 C 60.917,29.218 60.652,28.469 60.123,27.699 C 59.593,26.93 58.865,26.218 57.938,25.564 C 57.011,24.911 55.915,24.36 54.649,23.913 C 53.383,23.467 52.005,23.21 50.516,23.144 C 50.35,22.531 50.267,21.894 50.267,21.232 C 50.267,20.438 50.445,19.834 50.801,19.42 C 51.157,19.006 51.658,18.8 52.303,18.8 C 52.733,18.8 53.164,18.919 53.594,19.159 C 54.024,19.399 54.413,19.668 54.761,19.966 C 55.174,20.297 55.563,20.686 55.927,21.133 C 56.126,21.745 56.358,22.292 56.623,22.771 C 56.854,23.185 57.131,23.566 57.454,23.913 C 57.777,24.261 58.145,24.435 58.559,24.435 C 58.84,24.435 59.068,24.356 59.242,24.199 C 59.415,24.042 59.502,23.798 59.502,23.467 C 59.502,23.152 59.419,22.842 59.254,22.536 C 59.088,22.229 58.906,21.961 58.708,21.729 C 58.476,21.447 58.211,21.183 57.913,20.934 Z M 57.74,31.286 C 57.193,31.286 56.598,31.1 55.952,30.728 C 55.307,30.355 54.674,29.859 54.053,29.238 C 53.433,28.618 52.849,27.902 52.303,27.091 C 51.757,26.28 51.31,25.428 50.962,24.534 C 51.922,24.633 52.866,24.882 53.792,25.279 C 54.719,25.676 55.547,26.156 56.275,26.719 C 57.003,27.281 57.591,27.881 58.038,28.518 C 58.484,29.156 58.708,29.755 58.708,30.318 C 58.708,30.6 58.625,30.831 58.46,31.013 C 58.294,31.195 58.054,31.286 57.74,31.286 Z M 49.349,9.441 C 49.647,9.441 49.974,9.548 50.329,9.763 C 50.685,9.978 51.045,10.276 51.409,10.657 C 51.773,11.038 52.138,11.484 52.502,11.998 C 52.866,12.511 53.213,13.065 53.544,13.661 L 53.147,13.537 C 52.518,13.371 51.914,13.181 51.335,12.966 C 50.756,12.751 50.247,12.515 49.808,12.258 C 49.37,12.002 49.022,11.724 48.765,11.427 C 48.509,11.129 48.381,10.823 48.381,10.508 C 48.381,9.796 48.703,9.441 49.349,9.441 Z" marker-start="none" marker-end="none"/>
      <path d="M 66.53,29.251 C 66.53,28.92 66.476,28.601 66.369,28.295 C 66.261,27.989 66.112,27.716 65.922,27.476 C 65.732,27.236 65.516,27.045 65.276,26.905 C 65.037,26.764 64.784,26.694 64.519,26.694 C 64.155,26.694 63.841,26.818 63.576,27.066 C 63.311,27.314 63.179,27.662 63.179,28.109 C 63.179,28.423 63.237,28.729 63.353,29.027 C 63.468,29.325 63.622,29.594 63.812,29.834 C 64.002,30.074 64.221,30.264 64.47,30.405 C 64.718,30.546 64.983,30.616 65.264,30.616 C 65.628,30.616 65.93,30.492 66.17,30.244 C 66.41,29.995 66.53,29.664 66.53,29.251 Z M 62.955,17.31 C 62.955,17.029 63.026,16.801 63.166,16.627 C 63.307,16.454 63.502,16.367 63.75,16.367 C 64.081,16.367 64.408,16.474 64.73,16.689 C 65.053,16.905 65.339,17.153 65.587,17.434 C 65.885,17.732 66.158,18.088 66.406,18.502 C 66.423,18.551 66.464,18.609 66.53,18.675 C 66.563,18.708 66.613,18.746 66.679,18.787 C 66.745,18.828 66.82,18.849 66.903,18.849 C 67.035,18.849 67.155,18.8 67.262,18.7 C 67.37,18.601 67.424,18.485 67.424,18.353 C 67.424,18.286 67.411,18.224 67.387,18.166 C 67.362,18.109 67.333,18.046 67.3,17.98 C 67.267,17.914 67.234,17.84 67.2,17.757 C 66.836,17.178 66.431,16.665 65.984,16.218 C 65.603,15.837 65.152,15.49 64.631,15.175 C 64.11,14.861 63.543,14.703 62.931,14.703 C 61.987,14.703 61.226,14.956 60.647,15.461 C 60.067,15.965 59.778,16.623 59.778,17.434 C 59.778,17.881 59.852,18.419 60.001,19.048 C 60.15,19.677 60.324,20.314 60.523,20.959 C 60.721,21.605 60.932,22.217 61.156,22.796 C 61.379,23.376 61.565,23.839 61.714,24.186 C 61.78,24.319 61.871,24.431 61.987,24.522 C 62.103,24.613 62.235,24.658 62.384,24.658 C 62.566,24.658 62.773,24.6 63.005,24.484 C 63.237,24.369 63.452,24.236 63.65,24.087 C 63.849,23.938 64.015,23.785 64.147,23.628 C 64.279,23.471 64.346,23.342 64.346,23.243 C 64.346,22.862 64.271,22.453 64.122,22.014 C 63.973,21.576 63.812,21.108 63.638,20.612 C 63.464,20.115 63.307,19.59 63.166,19.035 C 63.026,18.481 62.955,17.906 62.955,17.31 Z" marker-start="none" marker-end="none"/>
      <path d="M 75.093,17.31 C 75.093,17.029 75.163,16.801 75.304,16.627 C 75.445,16.454 75.639,16.367 75.887,16.367 C 76.218,16.367 76.545,16.474 76.868,16.689 C 77.191,16.905 77.476,17.153 77.724,17.434 C 78.022,17.732 78.295,18.088 78.544,18.502 C 78.56,18.551 78.602,18.609 78.668,18.675 C 78.701,18.708 78.751,18.746 78.817,18.787 C 78.883,18.828 78.957,18.849 79.04,18.849 C 79.173,18.849 79.293,18.8 79.4,18.7 C 79.508,18.601 79.561,18.485 79.561,18.353 C 79.561,18.286 79.549,18.224 79.524,18.166 C 79.499,18.109 79.47,18.046 79.437,17.98 C 79.404,17.914 79.371,17.84 79.338,17.757 C 78.974,17.178 78.568,16.665 78.122,16.218 C 77.741,15.837 77.29,15.49 76.769,15.175 C 76.247,14.861 75.681,14.703 75.068,14.703 C 74.125,14.703 73.364,14.948 72.784,15.436 C 72.205,15.924 71.915,16.516 71.915,17.211 C 71.915,17.724 71.982,18.216 72.114,18.688 C 72.246,19.159 72.391,19.619 72.548,20.066 C 72.706,20.512 72.851,20.939 72.983,21.344 C 73.115,21.75 73.182,22.143 73.182,22.523 C 73.182,22.639 73.132,22.734 73.033,22.809 C 72.933,22.883 72.817,22.92 72.685,22.92 C 72.304,22.92 71.895,22.743 71.456,22.387 C 71.018,22.031 70.604,21.518 70.215,20.848 C 69.826,20.177 69.503,19.366 69.247,18.415 C 68.99,17.463 68.862,16.392 68.862,15.2 C 68.862,14.985 68.817,14.848 68.725,14.79 C 68.634,14.732 68.498,14.703 68.316,14.703 C 67.654,14.703 67.099,14.832 66.653,15.088 C 66.206,15.345 65.982,15.672 65.982,16.069 C 65.982,16.764 66.061,17.496 66.218,18.266 C 66.375,19.035 66.562,19.78 66.777,20.5 C 66.992,21.22 67.211,21.886 67.435,22.498 C 67.658,23.111 67.844,23.591 67.993,23.938 C 68.126,24.253 68.349,24.41 68.663,24.41 C 68.845,24.41 69.085,24.335 69.383,24.186 C 69.681,24.038 70.021,23.665 70.401,23.069 C 70.749,23.367 71.138,23.632 71.568,23.864 C 71.932,24.062 72.346,24.244 72.809,24.41 C 73.273,24.575 73.769,24.658 74.299,24.658 C 74.563,24.658 74.824,24.592 75.081,24.46 C 75.337,24.327 75.565,24.158 75.763,23.951 C 75.962,23.744 76.119,23.516 76.235,23.268 C 76.351,23.02 76.409,22.771 76.409,22.523 C 76.409,22.143 76.338,21.741 76.198,21.319 C 76.057,20.897 75.908,20.463 75.751,20.016 C 75.594,19.569 75.445,19.118 75.304,18.663 C 75.163,18.208 75.093,17.757 75.093,17.31 Z" marker-start="none" marker-end="none"/>
      <path d="M 88.369,22.325 C 88.369,22.192 88.332,21.961 88.257,21.63 C 88.183,21.299 88.083,20.885 87.959,20.388 C 87.835,19.892 87.69,19.333 87.525,18.713 C 87.359,18.092 87.177,17.426 86.979,16.714 L 86.755,15.895 C 87.517,16.309 88.154,16.727 88.667,17.149 C 89.18,17.571 89.61,18.022 89.958,18.502 C 89.991,18.551 90.04,18.609 90.107,18.675 C 90.156,18.708 90.214,18.746 90.28,18.787 C 90.347,18.828 90.421,18.849 90.504,18.849 C 90.653,18.849 90.777,18.8 90.876,18.7 C 90.976,18.601 91.025,18.485 91.025,18.353 C 91.025,18.303 91.009,18.245 90.976,18.179 C 90.942,18.113 90.909,18.046 90.876,17.98 C 90.827,17.914 90.785,17.84 90.752,17.757 C 90.537,17.476 90.301,17.202 90.045,16.938 C 89.788,16.673 89.486,16.408 89.139,16.143 C 88.791,15.878 88.394,15.614 87.947,15.349 C 87.5,15.084 86.987,14.811 86.408,14.53 C 86.209,13.752 85.973,12.97 85.7,12.184 C 85.427,11.398 85.088,10.686 84.682,10.049 C 84.277,9.412 83.793,8.89 83.23,8.485 C 82.668,8.079 81.989,7.877 81.195,7.877 C 80.814,7.877 80.454,7.939 80.115,8.063 C 79.775,8.187 79.478,8.352 79.221,8.559 C 78.965,8.766 78.762,9.014 78.613,9.304 C 78.464,9.594 78.389,9.904 78.389,10.235 C 78.389,10.665 78.518,11.079 78.774,11.476 C 79.031,11.873 79.391,12.25 79.854,12.606 C 80.317,12.962 80.876,13.305 81.53,13.636 C 82.183,13.967 82.908,14.281 83.702,14.579 C 83.818,15.01 83.917,15.419 84,15.808 C 84.083,16.197 84.149,16.532 84.198,16.814 C 83.867,16.4 83.512,16.044 83.131,15.746 C 82.8,15.481 82.428,15.241 82.014,15.026 C 81.6,14.811 81.153,14.703 80.673,14.703 C 80.342,14.703 80.024,14.765 79.718,14.89 C 79.411,15.014 79.147,15.192 78.923,15.423 C 78.7,15.655 78.522,15.928 78.389,16.243 C 78.257,16.557 78.191,16.905 78.191,17.285 C 78.191,18.179 78.36,19.064 78.7,19.941 C 79.039,20.819 79.482,21.609 80.028,22.312 C 80.574,23.016 81.186,23.582 81.865,24.013 C 82.543,24.443 83.222,24.658 83.901,24.658 C 84.397,24.658 84.819,24.596 85.167,24.472 C 85.514,24.348 85.795,24.211 86.011,24.062 C 86.259,23.88 86.457,23.69 86.606,23.491 C 86.788,23.491 86.983,23.471 87.19,23.429 C 87.397,23.388 87.587,23.322 87.761,23.231 C 87.935,23.14 88.079,23.02 88.195,22.871 C 88.311,22.722 88.369,22.54 88.369,22.325 Z M 85.34,22.151 C 85.34,22.515 85.249,22.784 85.067,22.958 C 84.885,23.131 84.67,23.218 84.422,23.218 C 84.058,23.218 83.685,23.028 83.305,22.647 C 82.924,22.267 82.581,21.799 82.274,21.245 C 81.968,20.69 81.716,20.09 81.517,19.445 C 81.319,18.8 81.219,18.22 81.219,17.707 C 81.219,16.962 81.459,16.59 81.939,16.59 C 82.237,16.59 82.581,16.789 82.97,17.186 C 83.359,17.583 83.731,18.071 84.087,18.651 C 84.443,19.23 84.74,19.838 84.98,20.475 C 85.22,21.112 85.34,21.671 85.34,22.151 Z M 80.574,9.192 C 80.855,9.192 81.124,9.304 81.381,9.527 C 81.637,9.751 81.881,10.045 82.113,10.409 C 82.345,10.773 82.556,11.191 82.746,11.662 C 82.936,12.134 83.114,12.618 83.28,13.115 C 82.8,12.85 82.366,12.556 81.977,12.233 C 81.588,11.911 81.257,11.592 80.984,11.278 C 80.711,10.963 80.5,10.665 80.351,10.384 C 80.202,10.103 80.127,9.871 80.127,9.689 C 80.127,9.358 80.276,9.192 80.574,9.192 Z" marker-start="none" marker-end="none"/>
      <path d="M 92.935,19.544 C 93.382,19.544 93.804,19.668 94.201,19.917 C 94.599,20.165 94.942,20.467 95.232,20.823 C 95.521,21.179 95.749,21.547 95.914,21.927 C 96.08,22.308 96.163,22.631 96.163,22.896 C 96.163,23.227 96.014,23.392 95.716,23.392 C 95.368,23.392 95.029,23.251 94.698,22.97 C 94.367,22.689 94.073,22.349 93.817,21.952 C 93.56,21.555 93.349,21.133 93.184,20.686 C 93.018,20.239 92.935,19.859 92.935,19.544 Z M 99.613,17.757 C 99.249,17.178 98.794,16.665 98.248,16.218 C 97.784,15.837 97.209,15.49 96.523,15.175 C 95.836,14.861 95.021,14.703 94.077,14.703 C 93.448,14.703 92.869,14.794 92.34,14.977 C 91.81,15.159 91.355,15.411 90.974,15.734 C 90.594,16.056 90.296,16.441 90.08,16.888 C 89.865,17.335 89.758,17.823 89.758,18.353 C 89.758,19.296 89.932,20.157 90.279,20.934 C 90.627,21.712 91.065,22.378 91.595,22.933 C 92.124,23.487 92.7,23.913 93.32,24.211 C 93.941,24.509 94.524,24.658 95.07,24.658 C 95.451,24.658 95.807,24.584 96.138,24.435 C 96.469,24.286 96.758,24.091 97.007,23.851 C 97.255,23.611 97.449,23.334 97.59,23.02 C 97.731,22.705 97.801,22.383 97.801,22.052 C 97.801,21.754 97.735,21.394 97.602,20.972 C 97.47,20.55 97.251,20.148 96.945,19.768 C 96.638,19.387 96.225,19.06 95.703,18.787 C 95.182,18.514 94.532,18.377 93.755,18.377 C 93.573,18.377 93.382,18.402 93.184,18.452 C 93.068,18.469 92.944,18.493 92.811,18.526 C 92.811,17.782 93.026,17.211 93.457,16.814 C 93.887,16.416 94.4,16.218 94.996,16.218 C 95.575,16.218 96.105,16.338 96.585,16.578 C 97.065,16.818 97.47,17.078 97.801,17.36 C 98.198,17.691 98.537,18.071 98.819,18.502 C 98.835,18.551 98.877,18.609 98.943,18.675 C 98.976,18.708 99.026,18.746 99.092,18.787 C 99.158,18.828 99.233,18.849 99.315,18.849 C 99.448,18.849 99.568,18.8 99.675,18.7 C 99.783,18.601 99.837,18.485 99.837,18.353 C 99.837,18.286 99.824,18.224 99.799,18.166 C 99.775,18.109 99.746,18.046 99.712,17.98 C 99.679,17.914 99.646,17.84 99.613,17.757 Z" marker-start="none" marker-end="none"/>
      <path d="M 105.098,17.236 C 105.098,16.954 105.172,16.739 105.321,16.59 C 105.47,16.441 105.669,16.367 105.917,16.367 C 106.248,16.367 106.575,16.474 106.898,16.689 C 107.221,16.905 107.506,17.153 107.754,17.434 C 108.052,17.732 108.325,18.088 108.573,18.502 C 108.59,18.551 108.631,18.609 108.698,18.675 C 108.731,18.708 108.78,18.746 108.847,18.787 C 108.913,18.828 108.987,18.849 109.07,18.849 C 109.202,18.849 109.322,18.8 109.43,18.7 C 109.538,18.601 109.591,18.485 109.591,18.353 C 109.591,18.286 109.579,18.224 109.554,18.166 C 109.529,18.109 109.5,18.046 109.467,17.98 C 109.434,17.914 109.401,17.84 109.368,17.757 C 109.004,17.178 108.598,16.665 108.151,16.218 C 107.771,15.837 107.32,15.49 106.799,15.175 C 106.277,14.861 105.71,14.703 105.098,14.703 C 104.618,14.703 104.188,14.77 103.807,14.902 C 103.426,15.034 103.095,15.212 102.814,15.436 C 102.533,15.659 102.318,15.92 102.169,16.218 C 102.02,16.516 101.945,16.838 101.945,17.186 C 101.945,17.732 102.028,18.245 102.194,18.725 C 102.359,19.205 102.537,19.644 102.727,20.041 C 102.918,20.438 103.095,20.79 103.261,21.096 C 103.426,21.402 103.509,21.654 103.509,21.853 C 103.509,21.985 103.431,22.085 103.273,22.151 C 103.116,22.217 102.947,22.275 102.764,22.325 C 102.549,22.374 102.301,22.416 102.02,22.449 C 101.54,21.241 101.085,20.252 100.654,19.482 C 100.224,18.713 99.877,18.138 99.612,17.757 C 99.579,17.707 99.517,17.633 99.426,17.533 C 99.335,17.434 99.215,17.385 99.066,17.385 C 98.933,17.385 98.813,17.438 98.706,17.546 C 98.598,17.653 98.544,17.773 98.544,17.906 C 98.544,18.022 98.582,18.133 98.656,18.241 C 98.73,18.349 98.784,18.435 98.817,18.502 C 99.049,18.833 99.376,19.358 99.798,20.078 C 100.22,20.798 100.613,21.745 100.977,22.92 C 100.812,23.036 100.671,23.185 100.555,23.367 C 100.456,23.516 100.365,23.707 100.282,23.938 C 100.199,24.17 100.158,24.443 100.158,24.757 C 100.158,25.006 100.203,25.242 100.294,25.465 C 100.385,25.688 100.505,25.883 100.654,26.048 C 100.803,26.214 100.961,26.346 101.126,26.446 C 101.292,26.545 101.449,26.594 101.598,26.594 C 101.763,26.594 101.937,26.549 102.119,26.458 C 102.301,26.367 102.467,26.259 102.616,26.135 C 102.764,26.011 102.889,25.87 102.988,25.713 C 103.087,25.556 103.137,25.419 103.137,25.304 C 103.137,24.973 103.083,24.7 102.976,24.484 C 102.868,24.269 102.814,24.062 102.814,23.864 C 102.814,23.682 102.913,23.549 103.112,23.467 C 103.311,23.384 103.559,23.342 103.857,23.342 C 104.138,23.342 104.374,23.359 104.564,23.392 C 104.755,23.425 104.924,23.462 105.073,23.504 C 105.222,23.545 105.363,23.582 105.495,23.616 C 105.628,23.649 105.768,23.665 105.917,23.665 C 106.215,23.665 106.459,23.549 106.65,23.318 C 106.84,23.086 106.935,22.805 106.935,22.474 C 106.935,22.192 106.84,21.857 106.65,21.468 C 106.459,21.079 106.248,20.653 106.017,20.19 C 105.785,19.726 105.574,19.242 105.384,18.737 C 105.193,18.233 105.098,17.732 105.098,17.236 Z" marker-start="none" marker-end="none"/>
      <path d="M 120.417,17.757 C 120.135,17.343 119.78,16.987 119.349,16.689 C 118.985,16.408 118.534,16.16 117.996,15.945 C 117.458,15.73 116.825,15.622 116.097,15.622 C 115.965,15.622 115.828,15.622 115.688,15.622 C 115.547,15.622 115.402,15.638 115.253,15.672 C 114.409,15.026 113.416,14.703 112.274,14.703 C 111.844,14.703 111.405,14.799 110.959,14.989 C 110.512,15.179 110.098,15.444 109.717,15.783 C 109.337,16.123 109.026,16.52 108.786,16.975 C 108.546,17.43 108.426,17.922 108.426,18.452 C 108.426,19.412 108.509,20.421 108.675,21.481 C 108.84,22.54 109.072,23.582 109.37,24.608 C 109.668,25.635 110.028,26.607 110.45,27.525 C 110.872,28.444 111.339,29.251 111.852,29.946 C 112.365,30.641 112.916,31.195 113.503,31.609 C 114.091,32.023 114.707,32.23 115.353,32.23 C 115.617,32.23 115.886,32.159 116.159,32.019 C 116.432,31.878 116.672,31.696 116.879,31.473 C 117.086,31.249 117.256,31.009 117.388,30.753 C 117.521,30.496 117.587,30.26 117.587,30.045 C 117.587,29.698 117.5,29.313 117.326,28.891 C 117.152,28.469 116.937,28.038 116.681,27.6 C 116.424,27.161 116.139,26.731 115.824,26.309 C 115.51,25.887 115.22,25.51 114.955,25.179 C 114.691,24.848 114.467,24.58 114.285,24.373 C 114.103,24.166 114.004,24.054 113.987,24.038 C 114.004,24.054 114.07,24.095 114.186,24.162 C 114.302,24.228 114.438,24.298 114.595,24.373 C 114.753,24.447 114.935,24.513 115.142,24.571 C 115.348,24.629 115.559,24.658 115.775,24.658 C 116.106,24.658 116.42,24.58 116.718,24.422 C 117.016,24.265 117.276,24.058 117.5,23.802 C 117.723,23.545 117.901,23.26 118.034,22.945 C 118.166,22.631 118.232,22.316 118.232,22.002 C 118.232,21.158 118.083,20.272 117.785,19.346 C 117.487,18.419 117.041,17.583 116.445,16.838 C 116.494,16.822 116.577,16.814 116.693,16.814 C 117.123,16.814 117.512,16.9 117.86,17.074 C 118.207,17.248 118.514,17.442 118.778,17.658 C 119.076,17.906 119.358,18.187 119.622,18.502 C 119.639,18.551 119.68,18.609 119.746,18.675 C 119.78,18.708 119.829,18.746 119.895,18.787 C 119.962,18.828 120.036,18.849 120.119,18.849 C 120.251,18.849 120.371,18.8 120.479,18.7 C 120.586,18.601 120.64,18.485 120.64,18.353 C 120.64,18.286 120.628,18.224 120.603,18.166 C 120.578,18.109 120.549,18.046 120.516,17.98 C 120.483,17.914 120.45,17.84 120.417,17.757 Z M 111.207,17.831 C 111.207,17.318 111.302,16.888 111.492,16.54 C 111.683,16.193 111.943,16.019 112.274,16.019 C 112.539,16.019 112.812,16.135 113.093,16.367 C 112.961,16.499 112.895,16.64 112.895,16.789 C 112.895,16.921 112.94,17.062 113.031,17.211 C 113.122,17.36 113.234,17.492 113.367,17.608 C 113.499,17.724 113.635,17.819 113.776,17.893 C 113.917,17.968 114.037,18.005 114.136,18.005 L 114.211,18.005 C 114.492,18.584 114.715,19.209 114.881,19.879 C 115.046,20.55 115.129,21.174 115.129,21.754 C 115.129,22.234 115.071,22.606 114.955,22.871 C 114.839,23.136 114.575,23.268 114.161,23.268 C 113.946,23.268 113.669,23.156 113.329,22.933 C 112.99,22.709 112.663,22.374 112.349,21.927 C 112.034,21.481 111.765,20.918 111.542,20.239 C 111.319,19.561 111.207,18.758 111.207,17.831 Z M 116.122,30.07 C 116.122,30.401 115.965,30.566 115.65,30.566 C 115.419,30.566 115.146,30.364 114.831,29.958 C 114.517,29.553 114.19,29.019 113.851,28.357 C 113.511,27.695 113.18,26.934 112.858,26.073 C 112.535,25.213 112.258,24.327 112.026,23.417 C 112.44,23.814 112.887,24.315 113.367,24.919 C 113.846,25.523 114.293,26.143 114.707,26.781 C 115.121,27.418 115.46,28.03 115.725,28.618 C 115.99,29.205 116.122,29.689 116.122,30.07 Z" marker-start="none" marker-end="none"/>
      <path d="M 125.899,17.236 C 125.899,16.954 125.973,16.739 126.122,16.59 C 126.271,16.441 126.47,16.367 126.718,16.367 C 127.049,16.367 127.376,16.474 127.699,16.689 C 128.022,16.905 128.307,17.153 128.555,17.434 C 128.853,17.732 129.126,18.088 129.374,18.502 C 129.391,18.551 129.432,18.609 129.499,18.675 C 129.532,18.708 129.581,18.746 129.648,18.787 C 129.714,18.828 129.788,18.849 129.871,18.849 C 130.003,18.849 130.123,18.8 130.231,18.7 C 130.339,18.601 130.392,18.485 130.392,18.353 C 130.392,18.286 130.38,18.224 130.355,18.166 C 130.33,18.109 130.301,18.046 130.268,17.98 C 130.235,17.914 130.202,17.84 130.169,17.757 C 129.805,17.178 129.399,16.665 128.952,16.218 C 128.572,15.837 128.121,15.49 127.6,15.175 C 127.078,14.861 126.511,14.703 125.899,14.703 C 125.419,14.703 124.989,14.77 124.608,14.902 C 124.227,15.034 123.896,15.212 123.615,15.436 C 123.334,15.659 123.119,15.92 122.97,16.218 C 122.821,16.516 122.746,16.838 122.746,17.186 C 122.746,17.732 122.829,18.245 122.995,18.725 C 123.16,19.205 123.338,19.644 123.528,20.041 C 123.719,20.438 123.896,20.79 124.062,21.096 C 124.227,21.402 124.31,21.654 124.31,21.853 C 124.31,21.985 124.232,22.085 124.074,22.151 C 123.917,22.217 123.748,22.275 123.565,22.325 C 123.35,22.374 123.102,22.416 122.821,22.449 C 122.341,21.241 121.886,20.252 121.455,19.482 C 121.025,18.713 120.678,18.138 120.413,17.757 C 120.38,17.707 120.318,17.633 120.227,17.533 C 120.136,17.434 120.016,17.385 119.867,17.385 C 119.734,17.385 119.614,17.438 119.507,17.546 C 119.399,17.653 119.345,17.773 119.345,17.906 C 119.345,18.022 119.383,18.133 119.457,18.241 C 119.531,18.349 119.585,18.435 119.618,18.502 C 119.85,18.833 120.177,19.358 120.599,20.078 C 121.021,20.798 121.414,21.745 121.778,22.92 C 121.613,23.036 121.472,23.185 121.356,23.367 C 121.257,23.516 121.166,23.707 121.083,23.938 C 121,24.17 120.959,24.443 120.959,24.757 C 120.959,25.006 121.004,25.242 121.095,25.465 C 121.186,25.688 121.306,25.883 121.455,26.048 C 121.604,26.214 121.762,26.346 121.927,26.446 C 122.093,26.545 122.25,26.594 122.399,26.594 C 122.564,26.594 122.738,26.549 122.92,26.458 C 123.102,26.367 123.268,26.259 123.417,26.135 C 123.565,26.011 123.69,25.87 123.789,25.713 C 123.888,25.556 123.938,25.419 123.938,25.304 C 123.938,24.973 123.884,24.7 123.777,24.484 C 123.669,24.269 123.615,24.062 123.615,23.864 C 123.615,23.682 123.714,23.549 123.913,23.467 C 124.112,23.384 124.36,23.342 124.658,23.342 C 124.939,23.342 125.175,23.359 125.365,23.392 C 125.556,23.425 125.725,23.462 125.874,23.504 C 126.023,23.545 126.164,23.582 126.296,23.616 C 126.429,23.649 126.569,23.665 126.718,23.665 C 127.016,23.665 127.26,23.549 127.451,23.318 C 127.641,23.086 127.736,22.805 127.736,22.474 C 127.736,22.192 127.641,21.857 127.451,21.468 C 127.26,21.079 127.049,20.653 126.818,20.19 C 126.586,19.726 126.375,19.242 126.185,18.737 C 125.994,18.233 125.899,17.732 125.899,17.236 Z" marker-start="none" marker-end="none"/>
      <path d="M 132.355,19.544 C 132.802,19.544 133.224,19.668 133.621,19.917 C 134.019,20.165 134.362,20.467 134.652,20.823 C 134.941,21.179 135.169,21.547 135.334,21.927 C 135.5,22.308 135.583,22.631 135.583,22.896 C 135.583,23.227 135.434,23.392 135.136,23.392 C 134.788,23.392 134.449,23.251 134.118,22.97 C 133.787,22.689 133.493,22.349 133.237,21.952 C 132.98,21.555 132.769,21.133 132.604,20.686 C 132.438,20.239 132.355,19.859 132.355,19.544 Z M 139.033,17.757 C 138.669,17.178 138.214,16.665 137.668,16.218 C 137.204,15.837 136.629,15.49 135.943,15.175 C 135.256,14.861 134.441,14.703 133.497,14.703 C 132.868,14.703 132.289,14.794 131.76,14.977 C 131.23,15.159 130.775,15.411 130.394,15.734 C 130.014,16.056 129.716,16.441 129.5,16.888 C 129.285,17.335 129.178,17.823 129.178,18.353 C 129.178,19.296 129.352,20.157 129.699,20.934 C 130.047,21.712 130.485,22.378 131.015,22.933 C 131.544,23.487 132.12,23.913 132.74,24.211 C 133.361,24.509 133.944,24.658 134.49,24.658 C 134.871,24.658 135.227,24.584 135.558,24.435 C 135.889,24.286 136.178,24.091 136.427,23.851 C 136.675,23.611 136.869,23.334 137.01,23.02 C 137.151,22.705 137.221,22.383 137.221,22.052 C 137.221,21.754 137.155,21.394 137.022,20.972 C 136.89,20.55 136.671,20.148 136.365,19.768 C 136.058,19.387 135.645,19.06 135.123,18.787 C 134.602,18.514 133.952,18.377 133.175,18.377 C 132.993,18.377 132.802,18.402 132.604,18.452 C 132.488,18.469 132.364,18.493 132.231,18.526 C 132.231,17.782 132.446,17.211 132.877,16.814 C 133.307,16.416 133.82,16.218 134.416,16.218 C 134.995,16.218 135.525,16.338 136.005,16.578 C 136.485,16.818 136.89,17.078 137.221,17.36 C 137.618,17.691 137.957,18.071 138.239,18.502 C 138.255,18.551 138.297,18.609 138.363,18.675 C 138.396,18.708 138.446,18.746 138.512,18.787 C 138.578,18.828 138.653,18.849 138.735,18.849 C 138.868,18.849 138.988,18.8 139.095,18.7 C 139.203,18.601 139.257,18.485 139.257,18.353 C 139.257,18.286 139.244,18.224 139.219,18.166 C 139.195,18.109 139.166,18.046 139.132,17.98 C 139.099,17.914 139.066,17.84 139.033,17.757 Z" marker-start="none" marker-end="none"/>
      <path d="M 150.823,17.757 C 150.459,17.178 150.054,16.665 149.607,16.218 C 149.226,15.837 148.775,15.49 148.254,15.175 C 147.733,14.861 147.166,14.703 146.554,14.703 C 145.859,14.703 145.271,14.881 144.791,15.237 C 144.311,15.593 144.03,16.118 143.947,16.814 C 143.616,16.4 143.26,16.044 142.88,15.746 C 142.549,15.481 142.176,15.241 141.762,15.026 C 141.349,14.811 140.902,14.703 140.422,14.703 C 140.091,14.703 139.772,14.765 139.466,14.89 C 139.16,15.014 138.895,15.192 138.672,15.423 C 138.448,15.655 138.27,15.928 138.138,16.243 C 138.006,16.557 137.939,16.905 137.939,17.285 C 137.939,18.179 138.109,19.064 138.448,19.941 C 138.788,20.819 139.23,21.609 139.777,22.312 C 140.323,23.016 140.935,23.582 141.614,24.013 C 142.292,24.443 142.971,24.658 143.649,24.658 C 144.146,24.658 144.568,24.596 144.915,24.472 C 145.263,24.348 145.544,24.211 145.759,24.062 C 146.008,23.88 146.206,23.69 146.355,23.491 C 146.537,23.491 146.732,23.471 146.938,23.429 C 147.145,23.388 147.336,23.322 147.509,23.231 C 147.683,23.14 147.828,23.02 147.944,22.871 C 148.06,22.722 148.118,22.54 148.118,22.325 C 148.118,22.143 148.043,21.845 147.894,21.431 C 147.745,21.017 147.58,20.558 147.398,20.053 C 147.216,19.548 147.05,19.027 146.901,18.489 C 146.752,17.951 146.678,17.476 146.678,17.062 C 146.678,16.863 146.74,16.698 146.864,16.565 C 146.988,16.433 147.158,16.367 147.373,16.367 C 147.704,16.367 148.031,16.474 148.353,16.689 C 148.676,16.905 148.962,17.153 149.21,17.434 C 149.508,17.732 149.781,18.088 150.029,18.502 C 150.046,18.551 150.087,18.609 150.153,18.675 C 150.186,18.708 150.236,18.746 150.302,18.787 C 150.368,18.828 150.443,18.849 150.526,18.849 C 150.658,18.849 150.778,18.8 150.886,18.7 C 150.993,18.601 151.047,18.485 151.047,18.353 C 151.047,18.286 151.035,18.224 151.01,18.166 C 150.985,18.109 150.956,18.046 150.923,17.98 C 150.89,17.914 150.857,17.84 150.823,17.757 Z M 145.064,22.151 C 145.064,22.515 144.977,22.784 144.804,22.958 C 144.63,23.131 144.419,23.218 144.17,23.218 C 143.806,23.218 143.434,23.028 143.053,22.647 C 142.673,22.267 142.329,21.799 142.023,21.245 C 141.717,20.69 141.465,20.09 141.266,19.445 C 141.067,18.8 140.968,18.22 140.968,17.707 C 140.968,16.962 141.208,16.59 141.688,16.59 C 141.986,16.59 142.329,16.789 142.718,17.186 C 143.107,17.583 143.475,18.071 143.823,18.651 C 144.17,19.23 144.464,19.838 144.704,20.475 C 144.944,21.112 145.064,21.671 145.064,22.151 Z" marker-start="none" marker-end="none"/>
      <path d="M 157.032,22.871 C 156.966,22.937 156.9,23.003 156.833,23.069 C 156.767,23.119 156.693,23.165 156.61,23.206 C 156.527,23.247 156.436,23.268 156.337,23.268 C 155.94,23.268 155.538,23.078 155.133,22.697 C 154.727,22.316 154.363,21.849 154.041,21.294 C 153.718,20.74 153.457,20.148 153.259,19.519 C 153.06,18.891 152.961,18.32 152.961,17.807 C 152.961,17.36 153.043,17.012 153.209,16.764 C 153.374,16.516 153.598,16.392 153.879,16.392 C 154.144,16.392 154.434,16.495 154.748,16.702 C 155.063,16.909 155.36,17.145 155.642,17.409 C 155.956,17.707 156.279,18.055 156.61,18.452 C 156.626,19.197 156.672,19.929 156.746,20.649 C 156.821,21.369 156.916,22.109 157.032,22.871 Z M 159.688,21.828 C 160.416,23.02 161.07,24.162 161.649,25.254 C 161.898,25.717 162.142,26.193 162.382,26.681 C 162.622,27.17 162.833,27.637 163.015,28.084 C 163.197,28.531 163.346,28.945 163.462,29.325 C 163.577,29.706 163.635,30.037 163.635,30.318 C 163.635,30.6 163.519,30.74 163.288,30.74 C 163.073,30.74 162.808,30.48 162.493,29.958 C 162.179,29.437 161.848,28.754 161.5,27.91 C 161.153,27.066 160.818,26.115 160.495,25.055 C 160.172,23.996 159.903,22.92 159.688,21.828 Z M 159.936,14.703 C 159.473,14.703 159.051,14.79 158.67,14.964 C 158.29,15.138 157.963,15.349 157.69,15.597 C 157.417,15.845 157.202,16.11 157.044,16.392 C 156.887,16.673 156.8,16.921 156.784,17.136 C 156.386,16.673 155.964,16.267 155.518,15.92 C 155.137,15.605 154.703,15.324 154.214,15.076 C 153.726,14.828 153.225,14.703 152.712,14.703 C 152.365,14.703 152.021,14.778 151.682,14.927 C 151.343,15.076 151.041,15.283 150.776,15.547 C 150.511,15.812 150.296,16.135 150.131,16.516 C 149.965,16.896 149.882,17.31 149.882,17.757 C 149.882,18.766 150.081,19.697 150.478,20.55 C 150.875,21.402 151.372,22.13 151.968,22.734 C 152.563,23.338 153.205,23.81 153.892,24.149 C 154.578,24.489 155.211,24.658 155.791,24.658 C 156.022,24.658 156.238,24.637 156.436,24.596 C 156.635,24.555 156.8,24.509 156.933,24.46 C 157.098,24.393 157.239,24.327 157.355,24.261 C 157.636,25.27 157.975,26.255 158.372,27.215 C 158.77,28.175 159.204,29.027 159.676,29.772 C 160.147,30.517 160.648,31.113 161.178,31.559 C 161.707,32.006 162.262,32.23 162.841,32.23 C 163.089,32.23 163.342,32.163 163.598,32.031 C 163.855,31.899 164.086,31.725 164.293,31.51 C 164.5,31.295 164.67,31.046 164.802,30.765 C 164.934,30.484 165.001,30.202 165.001,29.921 C 165.001,29.623 164.922,29.251 164.765,28.804 C 164.608,28.357 164.401,27.873 164.144,27.352 C 163.888,26.83 163.598,26.288 163.275,25.726 C 162.953,25.163 162.617,24.608 162.27,24.062 C 161.476,22.788 160.565,21.431 159.539,19.991 C 159.506,19.776 159.481,19.565 159.465,19.358 C 159.448,19.151 159.44,18.948 159.44,18.75 C 159.44,18.055 159.548,17.484 159.763,17.037 C 159.978,16.59 160.317,16.367 160.78,16.367 C 161.111,16.367 161.434,16.474 161.749,16.689 C 162.063,16.905 162.344,17.153 162.593,17.434 C 162.891,17.732 163.164,18.088 163.412,18.502 C 163.428,18.551 163.47,18.609 163.536,18.675 C 163.569,18.708 163.619,18.746 163.685,18.787 C 163.751,18.828 163.826,18.849 163.908,18.849 C 164.041,18.849 164.161,18.8 164.268,18.7 C 164.376,18.601 164.43,18.485 164.43,18.353 C 164.43,18.286 164.417,18.224 164.392,18.166 C 164.368,18.109 164.339,18.046 164.306,17.98 C 164.272,17.914 164.239,17.84 164.206,17.757 C 163.842,17.178 163.437,16.665 162.99,16.218 C 162.609,15.837 162.158,15.49 161.637,15.175 C 161.116,14.861 160.549,14.703 159.936,14.703 Z" marker-start="none" marker-end="none"/>
     </g>
    </g>
    <g id="Group_3" fill-rule="nonzero" stroke-linejoin="round" stroke-linecap="round" stroke="none" stroke-width="0.317" fill="#504432" stroke-miterlimit="79.8403193612775">
     <g id="Group_4">
      <path d="M 95.196,6.39 L 93.603,6.39 L 93.603,8.781 L 91.762,8.781 L 91.762,6.39 L 90.169,6.39 L 90.169,12.256 L 91.762,12.256 L 91.762,10.081 L 93.603,10.081 L 93.603,12.256 L 95.196,12.256 L 95.196,6.39 Z" marker-start="none" marker-end="none"/>
      <path d="M 101.953,9.331 C 101.953,8.344 101.711,7.594 101.226,7.08 C 100.742,6.567 100.034,6.31 99.1,6.31 C 98.18,6.31 97.474,6.568 96.984,7.084 C 96.493,7.601 96.248,8.352 96.247,9.339 C 96.248,10.315 96.492,11.061 96.98,11.576 C 97.468,12.091 98.177,12.348 99.108,12.348 C 100.042,12.348 100.749,12.093 101.23,11.582 C 101.712,11.071 101.953,10.321 101.953,9.331 Z M 97.916,9.331 C 97.917,8.197 98.311,7.63 99.1,7.63 C 99.501,7.63 99.799,7.768 99.993,8.043 C 100.187,8.319 100.284,8.748 100.284,9.331 C 100.284,9.917 100.185,10.35 99.989,10.629 C 99.792,10.909 99.499,11.048 99.108,11.048 C 98.314,11.048 97.917,10.476 97.916,9.331 Z" marker-start="none" marker-end="none"/>
      <path d="M 107.999,12.256 L 107.999,8.725 C 107.999,7.958 107.782,7.363 107.347,6.942 C 106.913,6.521 106.286,6.31 105.467,6.31 C 104.668,6.31 104.053,6.515 103.624,6.924 C 103.195,7.333 102.98,7.922 102.98,8.689 L 102.98,12.256 L 104.573,12.256 L 104.573,8.814 C 104.573,8.399 104.65,8.098 104.806,7.911 C 104.961,7.724 105.189,7.63 105.492,7.63 C 105.815,7.63 106.05,7.723 106.196,7.909 C 106.341,8.095 106.414,8.399 106.414,8.822 L 106.414,12.256 L 107.999,12.256 Z" marker-start="none" marker-end="none"/>
      <path d="M 113.067,8.172 C 113.067,7.808 112.974,7.485 112.79,7.203 C 112.605,6.921 112.339,6.701 111.991,6.545 C 111.644,6.388 111.236,6.31 110.768,6.31 C 110.377,6.31 110.05,6.337 109.785,6.392 C 109.52,6.447 109.245,6.543 108.958,6.679 L 108.958,8.091 C 109.261,7.936 109.575,7.815 109.901,7.728 C 110.228,7.641 110.527,7.598 110.8,7.598 C 111.035,7.598 111.208,7.639 111.317,7.72 C 111.427,7.802 111.482,7.907 111.482,8.035 C 111.482,8.116 111.46,8.186 111.416,8.246 C 111.372,8.306 111.301,8.367 111.203,8.428 C 111.105,8.49 110.845,8.616 110.423,8.806 C 110.04,8.979 109.753,9.148 109.562,9.311 C 109.371,9.474 109.229,9.661 109.137,9.873 C 109.045,10.084 108.998,10.334 108.998,10.623 C 108.998,11.163 109.195,11.585 109.588,11.887 C 109.981,12.189 110.522,12.34 111.209,12.34 C 111.816,12.34 112.435,12.2 113.067,11.919 L 112.581,10.695 C 112.033,10.947 111.559,11.072 111.161,11.072 C 110.955,11.072 110.805,11.036 110.712,10.964 C 110.618,10.892 110.571,10.802 110.571,10.695 C 110.571,10.58 110.631,10.477 110.75,10.386 C 110.869,10.295 111.192,10.13 111.719,9.889 C 112.224,9.661 112.575,9.417 112.772,9.157 C 112.968,8.896 113.067,8.567 113.067,8.172 Z" marker-start="none" marker-end="none"/>
      <path d="M 117.456,6.39 L 113.973,6.39 L 113.973,12.256 L 117.456,12.256 L 117.456,10.984 L 115.558,10.984 L 115.558,10.061 L 117.315,10.061 L 117.315,8.789 L 115.558,8.789 L 115.558,7.682 L 117.456,7.682 L 117.456,6.39 Z" marker-start="none" marker-end="none"/>
     </g>
    </g>
   </g>
  </g>
 </g>
</svg>
